<?xml version="1.0" encoding="UTF-8"?>
<svg xmlns="http://www.w3.org/2000/svg" xmlns:xlink="http://www.w3.org/1999/xlink" width="900pt" height="599.999999pt" viewBox="0 0 900 599.999999" version="1.2">
<defs>
<clipPath id="clip1">
  <path d="M 142.308594 61 L 758.058594 61 L 758.058594 506 L 142.308594 506 Z M 142.308594 61 "/>
</clipPath>
<clipPath id="clip2">
  <path d="M 443.230469 513 L 582 513 L 582 539.609375 L 443.230469 539.609375 Z M 443.230469 513 "/>
</clipPath>
</defs>
<g id="surface1">
<path style=" stroke:none;fill-rule:nonzero;fill:rgb(100%,100%,100%);fill-opacity:1;" d="M 578.070312 514.902344 L 577.925781 514.882812 L 577.789062 514.835938 C 577.488281 514.730469 577.164062 514.679688 576.8125 514.679688 L 465.550781 514.679688 C 463.957031 514.679688 459.609375 517.707031 457.726562 519.269531 C 456.707031 520.085938 455.554688 521.042969 454.398438 522.011719 L 451.574219 524.363281 C 450.386719 525.367188 449.328125 526.265625 448.535156 526.898438 C 447.605469 527.652344 447.035156 528.472656 446.964844 529.160156 L 446.921875 529.597656 L 446.625 529.921875 C 445.425781 531.210938 444.742188 532.652344 444.742188 533.886719 C 444.742188 535.96875 446.226562 538.292969 448.207031 538.292969 L 557.710938 538.292969 C 560.628906 538.292969 565.210938 536.027344 567.941406 533.84375 C 569.355469 532.683594 570.996094 531.179688 572.554688 529.722656 C 574.074219 528.3125 575.425781 527.078125 576.507812 526.203125 C 578.75 524.390625 579.949219 522.039062 580.125 520.871094 L 580.125 516.953125 C 580.117188 516.410156 579.894531 515.125 578.070312 514.902344 "/>
<path style=" stroke:none;fill-rule:nonzero;fill:rgb(100%,100%,100%);fill-opacity:1;" d="M 746.636719 375.253906 C 751.414062 373.632812 754.9375 371.933594 757.113281 370.191406 L 755.394531 364.175781 C 748.398438 339.597656 739.699219 309.007812 711.480469 282.75 C 681.121094 254.53125 650.671875 253.363281 626.207031 252.425781 L 618.023438 252.109375 C 613.003906 251.921875 607.3125 251.703125 603.433594 248.460938 C 601.734375 246.992188 601.050781 244.875 601.144531 241.34375 C 601.191406 240.300781 601.34375 229.5 601.375 226.855469 L 601.378906 226.308594 L 601.773438 225.925781 C 605.140625 222.671875 608.308594 219.289062 611.195312 215.867188 L 611.3125 215.734375 L 611.457031 215.632812 C 620.175781 209.664062 632.484375 191.671875 636.496094 185.238281 C 644.640625 172.234375 648.359375 156.863281 647.25 140.65625 C 647.914062 118.929688 640.648438 98.410156 627.324219 84.371094 C 622.007812 78.765625 614.75 74.667969 605.121094 71.835938 C 602.5 71.054688 598.605469 70.011719 595.117188 70.011719 C 591.5 70.011719 589.132812 71.078125 587.882812 73.277344 L 587.257812 74.382812 L 586.128906 73.789062 C 583.164062 72.226562 571.878906 66.910156 551.054688 63.984375 C 549.03125 63.683594 546.964844 63.429688 544.875 63.195312 C 544.84375 63.273438 544.808594 63.34375 544.773438 63.410156 C 544.410156 64.195312 544.121094 64.808594 543.582031 65.34375 C 543.078125 65.816406 542.476562 65.953125 541.648438 66.144531 C 541.238281 66.234375 540.71875 66.355469 540.046875 66.542969 L 536.144531 67.644531 L 538.65625 64.46875 C 539.125 63.878906 539.46875 63.421875 539.742188 63.054688 C 539.835938 62.9375 539.917969 62.824219 540 62.71875 C 536.558594 62.445312 533.363281 62.3125 530.300781 62.3125 C 519.984375 62.3125 511.3125 63.859375 503.78125 67.042969 C 497.925781 69.511719 491.648438 74.714844 487.714844 80.421875 C 482.351562 86.550781 476.828125 96.210938 480.964844 107.414062 C 482.121094 110.542969 484.097656 113.25 486.6875 115.253906 L 487.414062 115.820312 L 487.132812 116.699219 C 482.316406 131.539062 477.164062 152.96875 487.992188 167.652344 L 488.242188 167.996094 L 488.246094 168.421875 C 488.328125 177.832031 489.429688 187.035156 491.523438 195.785156 C 498.410156 224.523438 511.933594 241.542969 531.730469 246.378906 C 533.417969 246.800781 535.242188 247.082031 536.953125 247.324219 L 540.921875 247.882812 L 537.398438 249.777344 C 533.691406 251.765625 528.96875 251.949219 524.691406 252.113281 L 522.828125 252.191406 C 494.503906 253.488281 470.457031 262.546875 451.355469 279.109375 C 427.65625 299.652344 409.105469 328.765625 393.59375 354.453125 C 398.941406 358.722656 407.359375 363.667969 417.929688 368.753906 L 419.074219 369.300781 L 418.566406 370.464844 C 406.238281 398.46875 387.609375 440.796875 357.96875 446.378906 C 357.578125 446.449219 357.089844 446.492188 356.511719 446.492188 C 352.398438 446.492188 343.460938 444.566406 336.9375 443.164062 L 335.5625 442.867188 C 332.25 442.144531 329.394531 441.519531 328.230469 441.410156 C 327.238281 441.316406 326.238281 441.269531 325.238281 441.269531 C 319.5625 441.269531 313.613281 442.75 307.855469 445.644531 L 306.394531 446.378906 L 278.460938 389.691406 C 275.304688 383.265625 266.996094 378.226562 259.542969 378.226562 L 153.1875 378.226562 C 152.523438 378.226562 151.84375 378.289062 151.140625 378.421875 C 148.476562 378.796875 146.4375 379.917969 145.242188 381.660156 C 143.820312 383.769531 143.742188 386.652344 145.023438 389.761719 L 187.871094 491.789062 C 190.738281 498.617188 198.90625 504.179688 206.074219 504.179688 L 451.382812 504.179688 C 454.28125 504.179688 456.636719 501.828125 456.636719 498.929688 L 456.636719 494.996094 C 456.636719 492.824219 454.867188 491.058594 452.695312 491.058594 L 328.421875 491.058594 L 322.328125 478.679688 L 324.546875 478.777344 C 326.183594 478.855469 327.933594 478.902344 329.726562 478.902344 C 341.847656 478.902344 346.425781 476.617188 348.132812 474.699219 C 349.054688 473.664062 349.417969 472.4375 349.242188 470.953125 L 349.113281 469.847656 L 350.1875 469.542969 C 352.121094 468.984375 354.914062 467.851562 356.976562 466.355469 L 357.320312 466.105469 L 422.5625 465.949219 L 422.871094 465.886719 L 423.214844 466.128906 C 423.398438 466.121094 423.585938 466.082031 423.773438 466.050781 C 423.953125 466.015625 424.125 465.980469 424.476562 465.949219 L 428.769531 465.933594 C 444.546875 465.886719 460.328125 465.835938 476.101562 465.8125 L 477.90625 465.8125 L 477.359375 467.527344 C 477.226562 467.925781 477.210938 468.335938 477.289062 468.777344 C 477.484375 469.800781 478.105469 470.683594 479.195312 471.472656 L 481.53125 473.183594 L 478.703125 473.816406 C 476.628906 474.277344 475.300781 475.921875 475.15625 478.011719 C 475.289062 479.585938 476.007812 480.8125 477.339844 481.746094 L 479.1875 483.054688 L 477.132812 484.011719 C 476.609375 484.253906 476.199219 484.605469 475.9375 485.046875 C 475.332031 486.050781 475.632812 487.023438 475.988281 487.65625 C 477.320312 490 480.21875 490.648438 482.808594 491.226562 L 483.296875 491.332031 C 483.722656 491.421875 484.140625 491.515625 484.496094 491.613281 C 485.136719 491.75 485.75 491.859375 486.371094 491.96875 L 490.632812 492.761719 L 487.871094 494.546875 C 486.890625 495.507812 486.433594 496.894531 486.648438 498.269531 C 486.957031 500.289062 490.472656 501.160156 491.839844 501.332031 C 496.335938 502.4375 501.691406 503 507.761719 503 C 513.613281 503 518.253906 502.449219 518.972656 502.339844 C 519.683594 502.328125 525.496094 501.96875 528.589844 500.9375 C 535.539062 498.230469 539.378906 496.449219 544.394531 493.617188 C 545.601562 492.941406 546.84375 492.207031 548.226562 491.382812 L 549.203125 490.8125 L 550.304688 490.511719 L 550.484375 490.511719 C 550.570312 490.511719 550.671875 490.515625 550.988281 490.542969 C 577.632812 493.367188 602.203125 494.800781 624.019531 494.800781 C 644.46875 494.800781 662.257812 493.515625 676.855469 490.980469 C 685.570312 489.238281 693.964844 486.351562 701.800781 482.410156 C 711.164062 477.707031 719.46875 471.480469 725.8125 464.390625 C 729.007812 460.8125 731.691406 457.101562 733.792969 453.371094 C 733.980469 453.039062 734.148438 452.695312 734.316406 452.359375 L 734.523438 451.941406 C 734.886719 451.277344 735.242188 450.609375 735.578125 449.914062 C 745.851562 429.097656 745.792969 403.730469 745.742188 381.242188 L 745.742188 375.550781 L 746.636719 375.253906 "/>
<path style=" stroke:none;fill-rule:nonzero;fill:rgb(6.269836%,5.879211%,5.099487%);fill-opacity:1;" d="M 604.953125 250.988281 C 604.917969 250.972656 604.890625 250.960938 604.863281 250.945312 C 605.003906 250.925781 605.148438 250.914062 605.285156 250.84375 C 605.390625 250.792969 605.574219 250.671875 605.660156 250.589844 C 606.058594 250.230469 606.117188 249.652344 605.925781 249.148438 C 605.726562 248.644531 605.160156 248.308594 604.617188 248.308594 C 603.890625 248.308594 603.304688 248.898438 603.304688 249.625 C 603.304688 249.773438 603.367188 249.902344 603.414062 250.039062 C 603.148438 249.847656 602.867188 249.683594 602.609375 249.464844 C 602.527344 249.394531 602.464844 249.3125 602.382812 249.242188 C 602.140625 249.339844 601.863281 249.445312 601.566406 249.566406 C 594.0625 252.476562 571.171875 259.410156 543.851562 248.878906 C 543.730469 248.949219 543.609375 249.035156 543.492188 249.097656 C 542.777344 249.464844 541.308594 249.75 541.308594 249.75 L 541.269531 247.832031 C 540.8125 247.640625 540.359375 247.464844 539.898438 247.261719 C 539.25 246.96875 538.460938 247.261719 538.167969 247.929688 C 537.867188 248.59375 538.171875 249.367188 538.835938 249.660156 C 539.070312 249.765625 539.300781 249.847656 539.542969 249.945312 C 552.03125 255.347656 563.753906 257.132812 573.742188 257.132812 C 590.730469 257.132812 602.679688 252.035156 604.953125 250.988281 "/>
<path style=" stroke:none;fill-rule:nonzero;fill:rgb(6.269836%,5.879211%,5.099487%);fill-opacity:1;" d="M 573.742188 255.820312 C 567.660156 255.820312 561.617188 255.152344 555.667969 253.828125 C 561.632812 255.152344 567.699219 255.820312 573.796875 255.820312 C 573.941406 255.820312 574.078125 255.820312 574.222656 255.820312 C 574.066406 255.820312 573.902344 255.820312 573.742188 255.820312 "/>
<g clip-path="url(#clip1)" clip-rule="nonzero">
<path style=" stroke:none;fill-rule:nonzero;fill:rgb(6.269836%,5.879211%,5.099487%);fill-opacity:1;" d="M 733.789062 377.257812 C 713.902344 381.402344 688.128906 383.105469 678.539062 383.628906 C 676.203125 383.765625 674.785156 383.8125 674.703125 383.8125 C 674.125 383.84375 673.652344 384.234375 673.496094 384.757812 C 672.96875 368.042969 672.441406 353.589844 672.441406 353.589844 C 672.417969 352.851562 671.757812 352.222656 671.105469 352.324219 C 670.367188 352.351562 669.792969 352.953125 669.816406 353.695312 C 669.816406 353.695312 670.445312 371.195312 671.023438 390.011719 C 671.417969 402.316406 670.921875 412.707031 670.605469 419.582031 C 670.5 421.574219 670.421875 423.28125 670.394531 424.597656 C 665.71875 429.214844 592.941406 447.136719 547.25 457.582031 L 547.152344 457.472656 C 544.230469 455.117188 540.632812 453.382812 536.691406 452.488281 C 530.882812 451.175781 524 451.046875 515.625 452.070312 C 511.890625 452.515625 508.710938 452.804688 505.664062 452.964844 C 502.246094 453.117188 497.9375 453.933594 496.890625 456.976562 C 496.179688 458.996094 496.785156 460.414062 497.414062 461.226562 C 497.808594 461.753906 498.386719 462.171875 499.015625 462.566406 C 493.476562 462.695312 488.246094 462.800781 483.804688 463.25 C 482.230469 463.40625 480.234375 463.71875 478.628906 464.484375 C 463.414062 464.535156 448.230469 464.558594 433.019531 464.613281 C 446.183594 458.214844 456.457031 442.648438 458.816406 429.636719 C 463.414062 404.234375 469.984375 379.226562 475.449219 353.980469 C 475.789062 352.328125 473.269531 351.648438 472.898438 353.300781 C 470.695312 363.5625 468.300781 373.796875 465.910156 384.03125 C 465.757812 383.925781 465.597656 383.871094 465.414062 383.847656 C 453.117188 381.851562 435.171875 375.472656 419.617188 368.128906 C 419.617188 368.128906 419.617188 368.105469 419.59375 368.105469 C 414.761719 365.820312 410.164062 363.429688 406.039062 361.074219 C 401.890625 358.707031 398.265625 356.34375 395.320312 354.117188 C 410.664062 328.796875 428.949219 300.269531 452.226562 280.117188 C 471.113281 263.742188 494.894531 254.792969 522.902344 253.511719 L 524.714844 253.429688 C 529.730469 253.246094 535.351562 253.011719 539.53125 249.941406 C 539.292969 249.835938 539.085938 249.753906 538.84375 249.648438 C 538.160156 249.359375 537.871094 248.601562 538.160156 247.917969 C 538.453125 247.265625 539.238281 246.972656 539.898438 247.265625 C 540.34375 247.472656 540.816406 247.632812 541.261719 247.84375 L 541.316406 249.753906 C 541.316406 249.753906 542.789062 249.464844 543.496094 249.101562 C 543.601562 249.046875 543.730469 248.941406 543.867188 248.890625 C 544.046875 248.785156 544.230469 248.679688 544.414062 248.546875 L 552.425781 248.707031 C 553.925781 248.523438 555.371094 248.3125 556.765625 248.023438 C 557.472656 247.867188 557.917969 247.183594 557.761719 246.476562 C 557.761719 246.371094 557.683594 246.296875 557.660156 246.214844 C 557.394531 245.660156 556.816406 245.320312 556.210938 245.453125 C 548.722656 247 539.214844 246.871094 532.042969 245.113281 C 530.332031 244.695312 528.730469 244.167969 527.128906 243.566406 C 510.523438 237.371094 498.964844 221.234375 492.792969 195.46875 C 490.425781 185.675781 489.425781 175.472656 489.585938 165.289062 C 489.613281 163.949219 489.613281 162.613281 489.691406 161.273438 C 491.609375 161.328125 494.105469 160.667969 496.785156 160.355469 C 500.753906 159.570312 505.953125 161.296875 506.558594 159.355469 C 507.292969 157.128906 500.382812 154.082031 495.207031 155.132812 C 493.421875 155.316406 491.527344 155.945312 490.003906 156.785156 C 490.792969 147.625 492.527344 138.574219 495.335938 129.9375 C 496.546875 126.1875 498.125 122.722656 499.964844 119.523438 C 500.828125 119.3125 501.695312 118.972656 502.535156 118.578125 C 509.472656 120.570312 516.800781 121.230469 524 121.304688 C 526.285156 121.304688 553.003906 120.414062 553.003906 119.417969 C 553.480469 123.171875 554.769531 126.84375 556.027344 130.386719 C 559.496094 140.121094 566.007812 152.558594 573.550781 159.433594 C 575.96875 161.640625 578.226562 164.160156 580.957031 165.941406 C 583.246094 167.464844 586.949219 170.140625 589.628906 168.019531 C 590.652344 167.203125 591.519531 166.046875 592.253906 164.972656 C 592.253906 164.972656 593.332031 164.683594 594.515625 164.527344 C 597.824219 164.917969 600.84375 166.261719 603.160156 169.535156 C 606.414062 174.128906 606.992188 180.269531 604.578125 184.390625 C 603.472656 186.253906 601.003906 187.957031 598.535156 188.664062 C 598.007812 188.824219 597.507812 188.957031 597.035156 189.007812 C 596.433594 189.085938 595.988281 189.636719 596.066406 190.242188 C 596.144531 190.847656 596.671875 191.292969 597.300781 191.210938 C 597.878906 191.132812 598.484375 191 599.0625 190.847656 C 599.0625 190.898438 598.195312 218.871094 606.707031 218.972656 C 604.683594 221.175781 602.527344 223.382812 600.214844 225.640625 C 599.820312 226.035156 599.714844 226.609375 599.957031 227.109375 C 599.980469 227.164062 600.007812 227.210938 600.054688 227.261719 C 600.003906 230.230469 599.875 240.304688 599.820312 241.304688 C 599.742188 243.875 600.003906 247.050781 602.371094 249.230469 C 602.453125 249.308594 602.527344 249.382812 602.605469 249.464844 C 602.871094 249.675781 603.132812 249.859375 603.421875 250.042969 C 603.371094 249.90625 603.289062 249.777344 603.289062 249.625 C 603.289062 248.890625 603.894531 248.308594 604.601562 248.308594 C 605.15625 248.308594 605.730469 248.648438 605.917969 249.148438 C 606.125 249.648438 606.050781 250.226562 605.65625 250.59375 C 605.574219 250.671875 605.390625 250.804688 605.285156 250.855469 C 605.15625 250.90625 604.996094 250.9375 604.867188 250.9375 C 604.890625 250.960938 604.917969 250.988281 604.941406 250.988281 C 608.882812 253.058594 613.722656 253.269531 618.105469 253.429688 L 619.921875 253.507812 C 621.964844 253.582031 624.042969 253.664062 626.144531 253.742188 C 651.65625 254.710938 680.578125 255.816406 710.558594 283.707031 C 738.539062 309.738281 747.183594 340.152344 754.148438 364.582031 C 754.644531 366.3125 755.117188 368.019531 755.621094 369.675781 C 751.15625 372.824219 743.144531 375.316406 733.789062 377.257812 Z M 732.65625 452.699219 C 722.441406 470.859375 701.472656 484.683594 676.621094 489.699219 C 638.5 496.308594 587.003906 493.078125 550.511719 489.199219 C 550.328125 489.175781 550.171875 489.199219 549.984375 489.222656 L 548.828125 489.5625 C 548.722656 489.59375 548.617188 489.644531 548.515625 489.699219 C 540.65625 494.367188 537.03125 496.253906 528.175781 499.695312 C 525.027344 500.746094 518.902344 501.03125 518.75 501.058594 C 518.589844 501.082031 504.007812 502.945312 492.027344 500.035156 C 490.449219 499.824219 488.089844 499.011719 487.953125 498.066406 C 487.824219 497.335938 488.007812 496.285156 488.796875 495.472656 C 489.796875 494.527344 491.449219 494.214844 493.628906 494.578125 C 493.65625 494.578125 493.710938 494.554688 493.765625 494.554688 C 497.730469 495.105469 501.433594 495.417969 504.796875 495.417969 C 508.683594 495.417969 512.179688 495.054688 515.332031 494.320312 C 516.042969 494.160156 516.488281 493.449219 516.300781 492.742188 C 516.148438 492.039062 515.460938 491.613281 514.730469 491.773438 C 507.316406 493.480469 497.230469 493.007812 484.855469 490.355469 C 484.304688 490.199219 483.695312 490.066406 483.097656 489.9375 C 480.675781 489.410156 478.179688 488.863281 477.132812 487 C 476.949219 486.679688 476.789062 486.1875 477.078125 485.710938 C 477.339844 485.265625 478.050781 484.742188 479.152344 484.847656 C 480.230469 484.871094 481.308594 485.003906 482.542969 485.1875 C 484.199219 485.398438 486.246094 485.6875 489.113281 485.816406 C 489.136719 485.816406 489.136719 485.816406 489.136719 485.816406 C 492 486.074219 494.917969 486.183594 497.808594 486.183594 C 502.484375 486.183594 507.132812 485.921875 511.285156 485.6875 C 511.992188 485.65625 512.546875 485.027344 512.519531 484.324219 C 512.46875 483.585938 511.839844 483.011719 511.125 483.089844 C 504.457031 483.429688 496.574219 483.875 489.242188 483.195312 C 489.214844 483.195312 489.214844 483.195312 489.191406 483.195312 C 486.746094 482.953125 484.378906 482.589844 482.121094 482.089844 C 476.707031 481.195312 476.527344 478.730469 476.472656 478.125 C 476.601562 476.265625 477.945312 475.003906 479.8125 474.980469 C 482.25 474.949219 484.722656 475.054688 487.1875 475.191406 C 489.738281 475.53125 492.339844 475.660156 494.863281 475.683594 L 495.046875 475.714844 C 495.070312 475.714844 495.101562 475.683594 495.125 475.683594 C 495.308594 475.683594 495.496094 475.714844 495.679688 475.714844 C 498.855469 475.714844 501.953125 475.53125 504.875 475.34375 C 505.558594 475.292969 506.238281 475.238281 506.921875 475.1875 C 508.523438 475.03125 510.179688 474.898438 511.703125 474.949219 C 512.515625 474.949219 513.039062 474.402344 513.070312 473.664062 C 513.09375 472.957031 512.515625 472.351562 511.808594 472.328125 C 510.101562 472.273438 508.367188 472.433594 506.710938 472.5625 C 506.027344 472.617188 505.34375 472.691406 504.6875 472.722656 C 501.640625 472.933594 498.382812 473.085938 495.070312 473.0625 L 493.730469 472.980469 C 491.65625 472.828125 489.527344 472.691406 487.402344 472.5625 C 486.113281 472.40625 484.796875 472.191406 483.539062 471.910156 C 482.484375 471.667969 478.992188 470.726562 478.570312 468.523438 C 478.492188 468.023438 478.621094 467.757812 478.753906 467.578125 C 479.199219 467 480.460938 466.210938 484.0625 465.871094 C 488.449219 465.425781 493.703125 465.296875 499.277344 465.164062 C 505.765625 465.03125 512.433594 464.878906 517.769531 464.167969 C 517.851562 464.167969 517.902344 464.113281 517.980469 464.089844 C 518.058594 464.058594 518.140625 464.058594 518.214844 464.007812 C 518.296875 463.984375 518.351562 463.90625 518.425781 463.855469 C 518.480469 463.800781 518.558594 463.773438 518.609375 463.695312 C 518.664062 463.640625 518.6875 463.5625 518.738281 463.484375 C 518.769531 463.40625 518.820312 463.324219 518.847656 463.25 C 518.875 463.167969 518.875 463.089844 518.875 462.984375 C 518.875 462.90625 518.898438 462.855469 518.898438 462.777344 L 518.898438 462.75 C 518.898438 462.726562 518.898438 462.726562 518.898438 462.695312 C 518.898438 462.621094 518.847656 462.566406 518.820312 462.511719 C 518.792969 462.40625 518.792969 462.332031 518.738281 462.25 C 518.714844 462.171875 518.632812 462.121094 518.609375 462.066406 C 518.527344 461.988281 518.476562 461.914062 518.425781 461.859375 C 518.347656 461.808594 518.269531 461.777344 518.191406 461.726562 C 518.109375 461.703125 518.058594 461.648438 517.980469 461.621094 C 517.898438 461.597656 517.796875 461.597656 517.691406 461.597656 C 517.640625 461.570312 517.585938 461.542969 517.503906 461.570312 L 516.875 461.597656 C 503.820312 462.566406 500.378906 460.785156 499.480469 459.625 C 499.246094 459.3125 499.011719 458.816406 499.351562 457.84375 C 499.800781 456.609375 502.242188 455.746094 505.757812 455.5625 C 508.914062 455.429688 512.144531 455.140625 515.929688 454.667969 C 523.996094 453.667969 530.585938 453.804688 536.109375 455.039062 C 539.652344 455.851562 542.882812 457.398438 545.410156 459.445312 L 545.933594 459.945312 C 546.273438 460.261719 546.722656 460.390625 547.140625 460.285156 C 547.222656 460.261719 548.558594 459.96875 550.898438 459.421875 C 552.027344 459.15625 553.371094 458.839844 554.945312 458.472656 C 566.164062 455.875 587.941406 450.757812 609.542969 445.355469 C 672.882812 429.476562 672.960938 426.75 673.015625 424.9375 C 673.039062 423.597656 673.121094 421.839844 673.226562 419.6875 C 673.460938 414.3125 673.828125 406.75 673.777344 397.808594 C 673.777344 395.261719 673.75 392.660156 673.644531 389.933594 C 673.621094 388.464844 673.566406 387.015625 673.515625 385.578125 C 673.613281 385.863281 673.828125 386.101562 674.089844 386.257812 C 674.304688 386.363281 674.507812 386.441406 674.746094 386.441406 C 674.746094 386.441406 674.773438 386.441406 674.796875 386.441406 C 677.007812 386.363281 719.859375 384.605469 744.421875 377.308594 L 744.421875 381.25 C 744.507812 404.804688 744.5625 431.546875 732.65625 452.699219 Z M 480.996094 103.121094 C 479.761719 98.398438 480.707031 93.777344 482.835938 89.5 C 481.757812 99.421875 486.773438 111.910156 495.210938 115.875 C 496.234375 116.34375 497.285156 116.789062 498.335938 117.183594 C 498.308594 117.265625 498.257812 117.320312 498.230469 117.394531 C 490.53125 118.65625 483.148438 111.4375 480.996094 103.121094 Z M 509.972656 98.027344 C 510.394531 98.34375 510.8125 98.660156 511.230469 99.003906 C 510.449219 99.972656 509.683594 100.96875 508.894531 101.964844 C 508.605469 101.753906 508.347656 101.546875 508.054688 101.335938 C 508.6875 100.230469 509.34375 99.132812 509.972656 98.027344 Z M 541.550781 79.632812 C 539.898438 84.566406 539.898438 84.566406 535.300781 83.597656 C 535.246094 82.574219 535.222656 81.472656 535.140625 80.160156 C 537.273438 79.976562 539.136719 79.84375 541.550781 79.632812 Z M 549.070312 71.628906 C 547.910156 71.894531 546.886719 72.101562 545.597656 72.394531 C 545.230469 71.183594 544.96875 70.296875 544.625 69.167969 C 546.992188 68.273438 548.539062 68.242188 549.070312 71.628906 Z M 582.988281 115.03125 C 583.171875 115.296875 583.351562 115.554688 583.5625 115.84375 C 582.699219 116.578125 581.828125 117.3125 580.960938 118.050781 C 580.75 117.761719 580.542969 117.445312 580.332031 117.160156 C 581.199219 116.449219 582.09375 115.742188 582.988281 115.03125 Z M 582.144531 76.875 C 583.0625 77.269531 584.011719 77.664062 584.953125 78.035156 C 584.847656 78.453125 584.742188 78.847656 584.640625 79.238281 C 583.671875 79.003906 582.695312 78.769531 581.722656 78.535156 C 581.855469 77.980469 581.988281 77.429688 582.144531 76.875 Z M 610.046875 74.835938 C 617.980469 77.746094 624.441406 82.703125 629.828125 89.160156 C 636.476562 97.109375 640.96875 106.898438 643.492188 117.183594 C 634.03125 91.574219 612.988281 72.183594 589.582031 73.175781 C 593.648438 68.507812 605.5 73.175781 610.046875 74.835938 Z M 623.050781 138.070312 C 623.179688 136.917969 623.316406 135.761719 623.5 134.136719 C 626.414062 135.761719 626.101562 136.972656 623.050781 138.070312 Z M 620.660156 109.417969 C 621.367188 107.921875 621.898438 106.898438 622.390625 105.871094 C 624.257812 108.550781 623.445312 109.417969 620.660156 109.417969 Z M 614.539062 120.988281 C 616.140625 119.859375 616.875 119.335938 618.089844 118.472656 C 618.742188 120.148438 619.242188 121.464844 620.214844 123.929688 C 617.898438 122.722656 616.640625 122.066406 614.539062 120.988281 Z M 612.308594 173.339844 C 612.753906 172.054688 613.09375 171.03125 613.515625 169.71875 C 615.246094 170.320312 616.640625 170.820312 618.21875 171.394531 C 618.242188 172.683594 618.242188 173.8125 618.269531 175.859375 C 615.773438 174.78125 614.226562 174.125 612.308594 173.339844 Z M 609.703125 171.476562 C 608.257812 169.976562 607.261719 168.984375 605.554688 167.25 C 607.839844 166.253906 609.339844 165.597656 610.835938 164.96875 C 611.230469 165.46875 611.625 165.96875 612.019531 166.460938 C 611.335938 167.9375 610.675781 169.402344 609.703125 171.476562 Z M 310.460938 489.328125 C 309.277344 491.296875 308.675781 492.296875 307.621094 494.054688 C 306.597656 492.320312 306.148438 491.53125 305.285156 490.0625 C 307.066406 489.828125 308.25 489.644531 310.460938 489.328125 Z M 290.441406 417.140625 C 289.886719 416.671875 289.335938 416.40625 289.179688 415.960938 C 289.023438 415.488281 289.207031 414.882812 289.335938 412.679688 C 290.070312 413.753906 290.519531 414.359375 290.835938 414.808594 L 291.230469 415.621094 C 291.308594 415.984375 290.808594 416.511719 290.441406 417.140625 Z M 284.714844 474.292969 C 284.53125 473.691406 284.34375 473.085938 284.160156 472.511719 C 285.109375 472.273438 286.050781 472.035156 286.972656 471.800781 C 287.128906 472.222656 287.285156 472.617188 287.445312 473.035156 C 286.527344 473.453125 285.601562 473.875 284.714844 474.292969 Z M 323.777344 481.640625 L 323.804688 481.71875 C 323.464844 485.234375 322.199219 487.648438 318.785156 488.621094 C 318.789062 482.6875 318.84375 482.582031 323.777344 481.640625 Z M 330.636719 492.003906 L 334.996094 500.847656 C 335.316406 501.503906 335.023438 502.292969 334.390625 502.605469 C 334.210938 502.710938 333.996094 502.742188 333.816406 502.742188 C 333.320312 502.742188 332.84375 502.476562 332.636719 502.003906 L 331.058594 498.800781 C 331.582031 496.546875 331.269531 493.972656 330.058594 491.425781 C 330.292969 491.558594 330.503906 491.746094 330.636719 492.003906 Z M 275.175781 421.574219 C 273.203125 422.992188 271.3125 424.304688 268.789062 426.117188 C 267.582031 425.25 265.980469 424.144531 264.296875 422.964844 C 266.582031 418.871094 269.949219 419.421875 272.863281 418.742188 C 273.597656 417.007812 274.359375 415.277344 275.386719 412.890625 C 276.464844 414.570312 277.171875 415.671875 277.800781 416.671875 C 276.777344 418.558594 275.9375 420.128906 275.175781 421.574219 Z M 234.609375 439.234375 C 237.554688 439.707031 237.554688 439.707031 239.417969 442.515625 C 234.898438 443.378906 234.898438 443.378906 234.609375 439.234375 Z M 228.671875 400.871094 C 226.257812 400.320312 226.257812 400.320312 226.359375 397.042969 C 227.28125 397.621094 228.222656 397.933594 228.699219 398.613281 C 229.042969 399.089844 228.722656 400.058594 228.671875 400.871094 Z M 224.757812 412.125 C 223.023438 409.820312 222.890625 408.269531 224.496094 406.222656 C 226.464844 408.296875 225.652344 409.84375 224.757812 412.125 Z M 216.21875 485.5 C 217.875 484.972656 218.691406 484.734375 220.050781 484.316406 C 220.105469 485.917969 220.160156 487.070312 220.265625 489.644531 C 218.449219 487.78125 217.585938 486.886719 216.21875 485.5 Z M 214.140625 382.53125 C 211.988281 383.394531 211.066406 382.003906 211.148438 378.960938 C 212.382812 379.460938 213.617188 379.957031 215.035156 380.5625 C 214.589844 381.585938 214.484375 382.402344 214.140625 382.53125 Z M 209.230469 476.179688 C 209.679688 476.101562 210.121094 476.027344 210.542969 475.921875 C 210.726562 477.125 210.886719 478.308594 211.097656 479.800781 C 208.472656 479.097656 208.675781 477.703125 209.230469 476.179688 Z M 203.085938 463.585938 C 202.789062 463.007812 202.53125 462.40625 202.242188 461.828125 C 203.265625 461.332031 204.292969 460.804688 205.316406 460.308594 C 205.550781 460.78125 205.789062 461.277344 206.023438 461.75 C 205.050781 462.355469 204.054688 462.984375 203.085938 463.585938 Z M 193.78125 483.949219 C 193.546875 482.324219 193.386719 481.089844 193.207031 479.855469 C 193.523438 479.644531 193.859375 479.410156 194.175781 479.171875 C 195.125 480.226562 196.042969 481.25 197.539062 482.902344 C 195.703125 483.425781 194.914062 483.636719 193.78125 483.949219 Z M 162.96875 382.136719 C 162.753906 381.613281 162.386719 381.0625 162.332031 380.507812 C 162.308594 380.089844 162.648438 379.621094 163.28125 378.226562 L 163.410156 378.226562 C 163.597656 380.144531 163.699219 381.03125 163.78125 381.902344 C 163.515625 381.976562 163.226562 382.054688 162.96875 382.136719 Z M 155.398438 395.886719 C 157.292969 394.050781 159.152344 393.816406 161.730469 395.492188 C 159.023438 398.878906 159.023438 398.878906 155.398438 395.886719 Z M 757.933594 371.222656 C 758.355469 370.882812 758.539062 370.328125 758.378906 369.828125 C 757.832031 367.890625 757.25 365.894531 756.671875 363.871094 C 749.632812 339.128906 740.882812 308.320312 712.375 281.789062 C 681.667969 253.242188 650.929688 252.058594 626.253906 251.117188 C 624.152344 251.035156 622.078125 250.960938 620.054688 250.878906 L 618.1875 250.800781 C 613.332031 250.617188 607.839844 250.4375 604.289062 247.46875 C 602.921875 246.289062 602.375 244.480469 602.453125 241.40625 C 602.503906 240.304688 602.664062 229.101562 602.6875 226.871094 C 606.207031 223.457031 609.363281 220.070312 612.195312 216.714844 C 621.234375 210.523438 633.875 191.917969 637.605469 185.9375 C 646.484375 171.765625 649.609375 155.917969 648.5625 140.695312 C 649.191406 120.070312 642.570312 98.527344 628.273438 83.46875 C 622.105469 76.957031 613.984375 73.070312 605.496094 70.582031 C 600.136719 68.980469 590.234375 66.484375 586.738281 72.628906 C 583.351562 70.84375 571.972656 65.59375 551.242188 62.679688 C 548.90625 62.339844 546.515625 62.050781 544.101562 61.789062 C 543.441406 63.074219 543.179688 63.886719 542.683594 64.386719 C 542.289062 64.757812 541.550781 64.757812 539.6875 65.28125 C 540.976562 63.652344 541.339844 63.023438 541.839844 62.605469 C 542.207031 62.3125 542.757812 62.210938 543.914062 61.761719 C 530.253906 60.347656 515.9375 60.476562 503.273438 65.828125 C 497.226562 68.375 490.765625 73.675781 486.71875 79.550781 C 479.863281 87.402344 475.789062 97.1875 479.730469 107.867188 C 481.019531 111.359375 483.203125 114.214844 485.878906 116.292969 C 480.570312 132.636719 476 153.605469 486.929688 168.429688 C 487.007812 177.773438 488.082031 187.089844 490.238281 196.085938 C 497.253906 225.347656 511.097656 242.691406 531.410156 247.652344 C 533.09375 248.066406 534.902344 248.363281 536.765625 248.621094 C 533.300781 250.484375 528.753906 250.644531 524.632812 250.800781 L 522.765625 250.878906 C 494.152344 252.191406 469.828125 261.351562 450.488281 278.117188 C 426.632812 298.792969 408.03125 328 392.453125 353.765625 C 392.113281 354.316406 392.242188 355.054688 392.765625 355.476562 C 398.523438 360.0625 407.429688 365.15625 417.359375 369.929688 C 404.246094 399.714844 386.308594 439.707031 357.71875 445.085938 C 354.644531 445.660156 343.824219 443.304688 336.625 441.75 C 332.761719 440.910156 329.6875 440.230469 328.347656 440.097656 C 321.515625 439.46875 314.292969 440.941406 307.433594 444.378906 C 307.28125 444.457031 307.144531 444.53125 306.988281 444.613281 L 279.640625 389.113281 C 276.277344 382.265625 267.445312 376.910156 259.539062 376.910156 L 153.1875 376.910156 C 152.398438 376.910156 151.636719 376.992188 150.953125 377.121094 C 147.960938 377.539062 145.566406 378.855469 144.148438 380.925781 C 142.46875 383.417969 142.363281 386.753906 143.808594 390.269531 L 186.660156 492.292969 C 189.703125 499.558594 198.429688 505.492188 206.074219 505.492188 L 451.382812 505.492188 C 455.007812 505.492188 457.953125 502.554688 457.953125 498.929688 L 457.953125 494.996094 C 457.953125 492.085938 455.585938 489.746094 452.695312 489.746094 L 329.246094 489.746094 L 324.488281 480.089844 C 335.421875 480.589844 351.628906 480.015625 350.550781 470.800781 L 350.550781 470.695312 C 350.316406 469.042969 347.6875 469.019531 347.925781 470.695312 C 347.949219 470.90625 347.898438 471.0625 347.898438 471.277344 C 347.820312 478.175781 330.558594 477.519531 323.070312 477.230469 L 319.578125 470.171875 L 318.128906 467.207031 L 316.003906 462.878906 L 314.746094 460.355469 L 311.773438 454.300781 C 311.90625 454.269531 312.011719 454.246094 312.140625 454.21875 C 314.898438 453.589844 319.707031 454.398438 324.015625 455.558594 C 324.730469 455.347656 325.382812 455.214844 325.882812 455.109375 C 327.273438 454.847656 329.085938 454.875 330.792969 455.003906 C 326.011719 453.117188 316.609375 450.519531 311.566406 451.648438 C 311.222656 451.722656 310.90625 451.828125 310.59375 451.910156 L 308.152344 446.972656 C 308.308594 446.898438 308.4375 446.789062 308.621094 446.714844 C 315.03125 443.515625 321.785156 442.121094 328.121094 442.726562 C 329.296875 442.828125 332.425781 443.515625 336.078125 444.296875 C 346.21875 446.53125 354.914062 448.289062 358.226562 447.660156 C 388.148438 442.015625 406.410156 401.371094 419.757812 371.035156 C 435.253906 378.25 452.832031 384.472656 464.996094 386.414062 C 465.074219 386.4375 465.15625 386.4375 465.207031 386.4375 C 465.261719 386.4375 465.316406 386.414062 465.367188 386.414062 C 462.082031 400.53125 458.875 414.671875 456.277344 428.921875 C 456.277344 428.921875 456.277344 428.921875 456.277344 428.945312 C 454.488281 438.8125 449.417969 447.054688 442.324219 454.007812 C 437.703125 458.546875 431.078125 463.53125 424.378906 464.636719 L 423.671875 464.636719 C 402.519531 464.691406 381.347656 464.738281 360.171875 464.789062 C 360.171875 464.820312 360.171875 464.84375 360.171875 464.84375 C 359.722656 465.765625 358.828125 466.628906 357.753906 467.417969 C 379.347656 467.367188 400.972656 467.3125 422.566406 467.257812 C 422.75 467.390625 422.988281 467.472656 423.300781 467.441406 C 423.695312 467.417969 424.089844 467.3125 424.484375 467.257812 C 441.695312 467.207031 458.902344 467.152344 476.113281 467.128906 C 475.929688 467.707031 475.875 468.335938 476.007812 469.019531 C 476.296875 470.566406 477.265625 471.695312 478.425781 472.535156 C 475.847656 473.109375 474.035156 475.179688 473.851562 478.121094 C 473.980469 479.644531 474.613281 481.429688 476.582031 482.820312 C 475.847656 483.160156 475.21875 483.683594 474.824219 484.367188 C 474.085938 485.570312 474.117188 486.988281 474.847656 488.304688 C 476.476562 491.164062 479.816406 491.898438 482.519531 492.503906 C 483.101562 492.632812 483.648438 492.738281 484.230469 492.894531 C 485.226562 493.105469 486.175781 493.261719 487.144531 493.445312 C 487.0625 493.496094 487.011719 493.550781 486.964844 493.605469 C 485.675781 494.863281 485.066406 496.671875 485.355469 498.460938 C 485.855469 501.765625 491.085938 502.554688 491.53125 502.605469 C 496.972656 503.941406 502.855469 504.3125 507.769531 504.3125 C 513.992188 504.3125 518.695312 503.707031 518.984375 503.652344 C 519.25 503.652344 525.527344 503.339844 529.074219 502.160156 C 536.140625 499.402344 539.980469 497.621094 545.050781 494.761719 C 546.492188 493.945312 547.992188 493.054688 549.722656 492.03125 L 550.488281 491.820312 C 550.589844 491.820312 550.722656 491.84375 550.855469 491.84375 C 587.480469 495.730469 638.871094 498.90625 677.121094 492.261719 C 686.160156 490.457031 694.671875 487.464844 702.394531 483.578125 C 711.957031 478.777344 720.289062 472.535156 726.804688 465.261719 C 729.957031 461.722656 732.714844 457.96875 734.949219 454.007812 C 735.210938 453.535156 735.449219 453.035156 735.683594 452.558594 C 736.050781 451.878906 736.417969 451.195312 736.761719 450.488281 C 747.1875 429.367188 747.109375 403.859375 747.058594 381.238281 L 747.058594 376.492188 C 751.628906 374.945312 755.4375 373.214844 757.933594 371.222656 "/>
</g>
<path style=" stroke:none;fill-rule:nonzero;fill:rgb(6.269836%,5.879211%,5.099487%);fill-opacity:1;" d="M 588.261719 72.691406 C 588.632812 72.1875 589.078125 71.761719 589.589844 71.398438 C 589.21875 71.667969 588.886719 71.976562 588.589844 72.316406 Z M 629.300781 86.546875 C 625.695312 82.558594 621.800781 79.359375 617.53125 76.890625 C 621.347656 79.003906 624.59375 81.488281 627.328125 84.371094 C 628 85.082031 628.660156 85.804688 629.300781 86.546875 Z M 488.824219 179.523438 C 488.472656 175.863281 488.277344 172.160156 488.246094 168.421875 L 488.242188 167.996094 L 487.992188 167.652344 C 477.160156 152.96875 482.316406 131.539062 487.132812 116.699219 L 487.414062 115.820312 L 486.6875 115.253906 C 484.097656 113.25 482.121094 110.542969 480.964844 107.414062 C 480.714844 106.730469 480.5 106.054688 480.316406 105.386719 C 483.070312 113.183594 489.738281 118.851562 496.460938 118.851562 C 497.117188 118.851562 497.78125 118.796875 498.445312 118.6875 L 498.976562 118.601562 L 498.824219 118.867188 C 496.867188 122.277344 495.269531 125.871094 494.089844 129.535156 C 491.332031 138 489.515625 147.132812 488.699219 156.671875 L 488.488281 159.117188 L 490.636719 157.929688 C 492.082031 157.136719 493.792969 156.59375 495.339844 156.4375 C 496.082031 156.292969 496.75 156.226562 497.457031 156.226562 C 501.398438 156.226562 504.859375 158.089844 505.269531 158.953125 C 505.25 158.949219 505.230469 158.949219 505.207031 158.949219 C 505.046875 158.949219 504.691406 159.007812 504.023438 159.007812 C 503.4375 159.007812 502.765625 158.964844 502.058594 158.917969 C 501.210938 158.871094 500.304688 158.820312 499.402344 158.820312 C 498.300781 158.820312 497.355469 158.902344 496.523438 159.0625 C 495.589844 159.167969 494.578125 159.34375 493.613281 159.507812 C 492.242188 159.742188 490.945312 159.957031 489.910156 159.957031 L 488.675781 159.957031 L 488.378906 161.191406 C 488.3125 162.226562 488.300781 163.253906 488.285156 164.285156 L 488.269531 165.257812 C 488.199219 170.109375 488.382812 174.867188 488.824219 179.523438 Z M 546.761719 67.339844 C 546.054688 67.339844 545.253906 67.523438 544.164062 67.9375 L 543.019531 68.367188 L 544.699219 73.941406 L 550.554688 72.640625 L 550.367188 71.429688 C 549.945312 68.71875 548.734375 67.339844 546.761719 67.339844 Z M 580.886719 76.515625 C 580.71875 77.085938 580.582031 77.660156 580.449219 78.230469 L 580.144531 79.5 L 585.585938 80.820312 L 586.230469 78.351562 L 586.507812 77.230469 L 585.429688 76.808594 C 584.503906 76.449219 583.570312 76.058594 582.664062 75.675781 L 581.300781 75.089844 Z M 533.753906 78.960938 L 533.832031 80.238281 C 533.875 81.003906 533.90625 81.699219 533.929688 82.34375 L 534.042969 84.671875 L 535.03125 84.878906 C 536.550781 85.199219 537.554688 85.414062 538.421875 85.414062 C 541 85.414062 541.605469 83.621094 542.796875 80.050781 L 543.4375 78.152344 Z M 506.328125 101.707031 L 509.148438 103.761719 L 510.777344 101.691406 C 511.265625 101.0625 511.757812 100.4375 512.257812 99.824219 L 513.078125 98.804688 L 512.058594 97.980469 C 511.625 97.628906 511.195312 97.300781 510.761719 96.980469 L 509.566406 96.085938 Z M 620.671875 106.394531 C 620.324219 107.101562 619.933594 107.878906 619.472656 108.855469 L 618.589844 110.726562 L 620.660156 110.726562 C 622.0625 110.726562 623.753906 110.554688 624.457031 109.226562 C 625.167969 107.859375 624.300781 106.320312 623.46875 105.128906 L 622.191406 103.289062 Z M 582.167969 114.003906 C 581.269531 114.714844 580.371094 115.429688 579.5 116.140625 L 578.542969 116.925781 L 580.734375 119.964844 L 585.347656 116.054688 L 584.113281 114.351562 L 583.3125 113.214844 Z M 613.785156 119.917969 L 612.007812 121.167969 L 613.9375 122.15625 C 616.039062 123.234375 617.292969 123.886719 619.601562 125.089844 L 622.71875 126.71875 L 618.695312 116.417969 C 618.695312 116.417969 615.378906 118.789062 613.785156 119.917969 Z M 621.503906 140.027344 L 623.492188 139.304688 C 624.980469 138.769531 626.695312 137.953125 626.828125 136.351562 C 626.957031 134.757812 625.355469 133.667969 624.136719 132.988281 L 622.410156 132.023438 Z M 612.257812 169.320312 C 611.84375 170.621094 611.507812 171.636719 611.0625 172.910156 L 610.65625 174.082031 L 611.804688 174.550781 C 613.714844 175.335938 615.265625 175.988281 617.746094 177.0625 L 619.613281 177.867188 L 619.511719 170.472656 L 618.667969 170.164062 C 617.085938 169.585938 615.6875 169.085938 613.945312 168.480469 L 612.730469 168.058594 L 613.546875 166.285156 L 611.25 163.367188 L 610.328125 163.757812 C 608.878906 164.367188 607.429688 164.996094 605.28125 165.9375 L 603.277344 166.8125 L 605.847656 169.410156 C 606.882812 170.464844 607.699219 171.289062 608.761719 172.386719 L 610.085938 173.757812 L 612.523438 168.503906 Z M 606.722656 217.660156 C 606.015625 217.652344 605.371094 217.339844 604.761719 216.703125 C 600.851562 212.640625 600.183594 198.042969 600.378906 190.894531 L 600.417969 189.378906 C 602.664062 188.40625 604.6875 186.78125 605.710938 185.058594 C 608.398438 180.480469 607.789062 173.789062 604.234375 168.777344 C 601.953125 165.535156 598.820312 163.714844 594.675781 163.21875 L 594.511719 163.199219 L 594.347656 163.222656 C 593.078125 163.390625 591.921875 163.703125 591.921875 163.703125 L 591.453125 163.828125 L 591.179688 164.226562 C 590.5625 165.132812 589.734375 166.253906 588.816406 166.984375 C 588.382812 167.332031 587.914062 167.488281 587.335938 167.488281 C 585.636719 167.488281 583.550781 166.09375 582.03125 165.074219 L 581.695312 164.847656 C 579.828125 163.628906 578.128906 161.988281 576.488281 160.402344 C 575.8125 159.746094 575.132812 159.09375 574.441406 158.464844 C 566.777344 151.480469 560.402344 138.734375 557.269531 129.945312 C 556.105469 126.667969 554.777344 122.949219 554.316406 119.25 L 551.699219 119.417969 L 552.34375 118.34375 C 550.300781 119.121094 527.460938 119.996094 524.007812 119.996094 C 515.769531 119.902344 508.859375 119.023438 502.90625 117.3125 L 502.433594 117.179688 L 501.984375 117.386719 C 501.113281 117.800781 500.347656 118.078125 499.65625 118.246094 L 499.308594 118.328125 L 499.875 116.601562 L 498.800781 115.960938 C 497.78125 115.574219 496.753906 115.144531 495.765625 114.683594 C 487.609375 110.847656 483.167969 98.636719 484.144531 89.644531 L 481.988281 89.011719 C 483.542969 85.695312 485.640625 82.792969 487.71875 80.421875 C 491.652344 74.714844 497.925781 69.511719 503.785156 67.042969 C 511.320312 63.859375 519.992188 62.3125 530.308594 62.3125 C 533.367188 62.3125 536.566406 62.445312 540.003906 62.71875 C 539.921875 62.824219 539.839844 62.9375 539.75 63.0625 C 539.472656 63.421875 539.128906 63.878906 538.660156 64.46875 L 536.152344 67.644531 L 540.050781 66.542969 C 540.726562 66.355469 541.246094 66.234375 541.652344 66.144531 C 542.480469 65.953125 543.082031 65.816406 543.585938 65.347656 C 544.125 64.808594 544.414062 64.195312 544.78125 63.417969 C 544.8125 63.34375 544.847656 63.273438 544.878906 63.195312 C 546.96875 63.429688 549.035156 63.683594 551.0625 63.984375 C 571.882812 66.910156 583.171875 72.230469 586.132812 73.792969 L 586.941406 74.214844 L 586.589844 74.625 L 589.640625 74.492188 C 590.195312 74.46875 590.753906 74.457031 591.3125 74.457031 C 612.25 74.457031 632.722656 91.8125 642.265625 117.640625 L 644.726562 116.886719 C 646.628906 124.453125 647.503906 132.464844 647.253906 140.65625 C 648.363281 156.863281 644.648438 172.234375 636.5 185.238281 C 632.488281 191.671875 620.175781 209.667969 611.460938 215.636719 L 611.316406 215.734375 C 611.316406 215.734375 610.160156 217.089844 609.628906 217.699219 Z M 604.148438 223.574219 C 605.390625 222.308594 606.558594 221.074219 607.675781 219.859375 L 608.347656 219.125 C 607 220.625 605.59375 222.109375 604.148438 223.574219 Z M 601.253906 243.996094 C 601.125 243.078125 601.113281 242.167969 601.140625 241.34375 C 601.171875 240.707031 601.234375 236.710938 601.3125 231.554688 L 601.339844 229.578125 C 601.28125 233.761719 601.183594 240.527344 601.144531 241.34375 C 601.113281 242.332031 601.152344 243.210938 601.253906 243.996094 Z M 531.273438 246.265625 C 514.132812 241.898438 501.738281 228.300781 494.339844 205.78125 C 501.054688 226.175781 511.902344 239.28125 526.671875 244.789062 C 528.320312 245.410156 529.800781 245.886719 531.273438 246.265625 Z M 554.640625 247.074219 C 555.265625 246.972656 555.875 246.859375 556.476562 246.734375 L 556.480469 246.757812 C 555.914062 246.867188 555.3125 246.972656 554.640625 247.074219 Z M 618.164062 252.113281 C 616.722656 252.058594 615.210938 252.007812 613.695312 251.878906 C 615.152344 252.003906 616.617188 252.054688 618.023438 252.109375 C 618.023438 252.109375 629.597656 252.558594 631.339844 252.632812 C 629.613281 252.558594 618.164062 252.113281 618.164062 252.113281 Z M 434.4375 296.019531 C 439.777344 289.96875 445.402344 284.269531 451.351562 279.109375 C 470.453125 262.546875 494.5 253.488281 522.828125 252.191406 L 524.683594 252.113281 C 526.882812 252.027344 529.195312 251.941406 531.429688 251.605469 C 529.175781 251.949219 526.855469 252.03125 524.664062 252.113281 L 522.84375 252.195312 C 494.527344 253.492188 470.480469 262.550781 451.367188 279.121094 C 445.398438 284.289062 439.765625 289.980469 434.4375 296.019531 Z M 751.074219 349.496094 C 744.339844 328.03125 734.277344 303.976562 711.460938 282.746094 C 709.773438 281.175781 708.085938 279.691406 706.40625 278.277344 C 708.09375 279.691406 709.792969 281.179688 711.480469 282.75 C 734.308594 303.992188 744.359375 328.066406 751.074219 349.496094 Z M 472.089844 363.085938 C 472.796875 359.949219 473.492188 356.816406 474.164062 353.695312 C 474.167969 353.699219 474.179688 353.703125 474.183594 353.707031 C 473.5 356.824219 472.804688 359.953125 472.089844 363.085938 Z M 409.4375 364.449219 C 402.808594 360.898438 397.414062 357.503906 393.59375 354.453125 L 394.523438 355.152344 C 397.570312 357.464844 401.226562 359.835938 405.390625 362.207031 C 406.699219 362.957031 408.050781 363.703125 409.4375 364.449219 Z M 678.613281 384.941406 C 688.683594 384.390625 714.25 382.671875 734.058594 378.539062 C 734.191406 378.511719 734.320312 378.484375 734.457031 378.457031 C 712.390625 383.164062 683.4375 384.734375 676.367188 385.0625 C 676.96875 385.027344 677.722656 384.992188 678.613281 384.941406 Z M 464.972656 385.152344 C 460.730469 384.449219 455.605469 383.160156 449.976562 381.417969 C 455.574219 383.132812 460.734375 384.402344 465.113281 385.121094 Z M 672.464844 395.78125 C 672.441406 393.898438 672.402344 391.957031 672.339844 389.96875 C 671.757812 371.152344 671.132812 353.644531 671.132812 353.644531 C 671.132812 353.644531 671.652344 368.09375 672.183594 384.804688 L 674.714844 385.140625 L 672.207031 385.625 C 672.257812 387.054688 672.3125 388.496094 672.339844 389.957031 C 672.417969 391.964844 672.449219 393.890625 672.464844 395.78125 Z M 671.710938 424.621094 C 671.734375 423.320312 671.8125 421.628906 671.917969 419.648438 C 671.917969 419.648438 671.960938 418.710938 671.976562 418.457031 C 671.96875 418.476562 671.917969 419.628906 671.917969 419.628906 C 671.816406 421.792969 671.734375 423.558594 671.710938 424.910156 C 671.710938 424.933594 671.707031 424.953125 671.699219 424.976562 Z M 457.191406 431.023438 C 457.332031 430.414062 457.457031 429.800781 457.566406 429.183594 C 457.667969 428.613281 457.773438 428.042969 457.878906 427.46875 C 457.757812 428.113281 457.644531 428.757812 457.527344 429.394531 C 457.433594 429.929688 457.320312 430.472656 457.191406 431.023438 Z M 372.914062 440.105469 C 394.101562 426.042969 408.457031 393.433594 418.566406 370.464844 L 419.070312 369.316406 C 419.070312 369.316406 418.550781 370.507812 418.550781 370.507812 C 408.449219 393.464844 394.113281 426.054688 372.914062 440.105469 Z M 329.667969 441.632812 C 329.066406 441.527344 328.582031 441.449219 328.230469 441.421875 C 327.230469 441.324219 326.214844 441.277344 325.191406 441.277344 C 324.046875 441.277344 322.890625 441.339844 321.726562 441.457031 C 322.90625 441.332031 324.078125 441.269531 325.238281 441.269531 C 326.246094 441.269531 327.238281 441.320312 328.230469 441.410156 C 328.570312 441.445312 329.0625 441.519531 329.667969 441.632812 Z M 352.140625 446.097656 C 349.738281 445.769531 346.898438 445.238281 343.871094 444.625 C 346.773438 445.210938 349.675781 445.753906 352.140625 446.097656 Z M 586.730469 449.605469 C 611.667969 443.566406 642.324219 435.84375 659.128906 430.492188 C 648.796875 433.796875 632.132812 438.339844 609.230469 444.078125 C 601.53125 446.003906 593.863281 447.882812 586.730469 449.605469 Z M 509.417969 454.019531 C 510.917969 453.902344 512.503906 453.742188 514.203125 453.554688 C 512.507812 453.746094 510.925781 453.90625 509.417969 454.019531 Z M 324.007812 454.199219 C 321.296875 453.488281 317.554688 452.691406 314.445312 452.691406 C 313.457031 452.691406 312.582031 452.773438 311.847656 452.941406 L 311.503906 453.015625 C 311.617188 452.988281 311.734375 452.957031 311.855469 452.929688 C 312.570312 452.773438 313.441406 452.691406 314.4375 452.691406 C 317.230469 452.691406 320.738281 453.320312 324.027344 454.195312 C 324.015625 454.195312 324.011719 454.195312 324.007812 454.199219 Z M 498.78125 456.363281 C 499.320312 455.808594 500.082031 455.390625 500.933594 455.085938 C 500.082031 455.394531 499.320312 455.808594 498.78125 456.363281 Z M 731.789062 456.664062 C 732.5 455.570312 733.171875 454.460938 733.804688 453.339844 C 733.875 453.21875 733.941406 453.097656 734.007812 452.972656 C 733.941406 453.109375 733.871094 453.242188 733.796875 453.371094 C 733.175781 454.472656 732.507812 455.566406 731.789062 456.664062 Z M 500.160156 461.726562 C 502.160156 462.707031 505.449219 463.1875 510.117188 463.1875 C 512.144531 463.1875 514.460938 463.089844 516.980469 462.902344 L 517.355469 462.886719 L 517.402344 462.902344 C 513.304688 463.410156 508.609375 463.625 503.410156 463.757812 Z M 481.523438 464.914062 C 482.234375 464.761719 483.039062 464.640625 483.9375 464.554688 C 485.496094 464.398438 487.164062 464.28125 488.914062 464.191406 C 487.175781 464.285156 485.503906 464.40625 483.9375 464.566406 C 483.042969 464.652344 482.234375 464.765625 481.523438 464.914062 Z M 422.957031 465.953125 L 424.378906 465.949219 C 432.394531 464.644531 439.621094 458.496094 443.242188 454.941406 C 446.726562 451.53125 449.613281 447.914062 451.894531 444.109375 C 447.410156 451.964844 440.660156 459.433594 432.445312 463.429688 L 433.027344 465.925781 L 434.09375 465.917969 C 432.320312 465.925781 424.476562 465.949219 424.476562 465.949219 C 424.128906 465.980469 423.953125 466.015625 423.773438 466.050781 C 423.589844 466.082031 423.402344 466.121094 423.214844 466.136719 Z M 477.90625 465.8125 C 477.90625 465.8125 458.15625 465.851562 449.1875 465.875 L 478.9375 465.789062 C 478.410156 466.070312 478.011719 466.398438 477.71875 466.773438 C 477.613281 466.921875 477.523438 467.082031 477.449219 467.234375 Z M 478.074219 470.433594 C 477.703125 469.972656 477.460938 469.484375 477.335938 468.957031 C 477.472656 469.511719 477.734375 470.003906 478.074219 470.433594 Z M 495.128906 474.371094 L 494.808594 474.371094 L 494.765625 474.394531 C 491.898438 474.332031 489.527344 474.171875 487.371094 473.882812 C 485.148438 473.765625 482.871094 473.664062 480.5625 473.664062 L 479.800781 473.664062 C 479.597656 473.667969 479.398438 473.683594 479.203125 473.707031 L 481.539062 473.183594 L 479.480469 471.683594 C 480.796875 472.539062 482.363281 472.984375 483.257812 473.1875 C 484.457031 473.457031 485.761719 473.683594 487.242188 473.863281 C 489.449219 474.003906 491.566406 474.132812 493.640625 474.292969 L 495.003906 474.371094 L 495.847656 474.375 C 498.511719 474.375 501.347656 474.261719 504.78125 474.027344 C 504.855469 474.023438 504.933594 474.019531 505.003906 474.019531 L 504.78125 474.03125 C 501.742188 474.226562 498.746094 474.398438 495.683594 474.398438 C 495.378906 474.378906 495.253906 474.371094 495.128906 474.371094 Z M 475.328125 479 C 475.246094 478.6875 475.183594 478.355469 475.15625 478.011719 C 475.257812 476.546875 475.9375 475.300781 477.058594 474.527344 C 475.976562 475.296875 475.269531 476.535156 475.164062 478.03125 C 475.1875 478.347656 475.242188 478.671875 475.328125 479 Z M 489.128906 484.5 C 486.582031 484.375 484.71875 484.140625 483.210938 483.941406 L 482.710938 483.878906 C 481.425781 483.695312 480.320312 483.558594 479.1875 483.53125 C 479.140625 483.523438 479.007812 483.515625 478.875 483.515625 C 478.558594 483.515625 478.261719 483.554688 477.988281 483.617188 L 479.191406 483.058594 L 477.339844 481.753906 C 477.015625 481.527344 476.734375 481.277344 476.476562 481.019531 C 477.46875 482.050781 479.148438 482.925781 481.914062 483.382812 C 484.152344 483.875 486.582031 484.253906 489.070312 484.496094 C 489.085938 484.496094 489.109375 484.5 489.128906 484.5 Z M 497.808594 484.867188 C 495.753906 484.867188 493.78125 484.8125 491.90625 484.703125 C 493.746094 484.808594 495.6875 484.855469 497.789062 484.855469 C 502.171875 484.855469 506.5625 484.628906 510.4375 484.433594 L 511.195312 484.394531 C 507.125 484.605469 502.503906 484.867188 497.808594 484.867188 Z M 477.496094 489.308594 C 476.894531 488.875 476.375 488.332031 475.992188 487.65625 C 475.636719 487.023438 475.339844 486.050781 475.945312 485.054688 C 475.972656 485 476 484.957031 476.03125 484.910156 C 476 484.957031 475.972656 485 475.949219 485.042969 C 475.480469 485.800781 475.496094 486.78125 475.996094 487.648438 C 476.382812 488.332031 476.894531 488.875 477.496094 489.308594 Z M 484.375 491.582031 C 484.046875 491.496094 483.679688 491.414062 483.296875 491.332031 L 482.808594 491.226562 C 482.023438 491.046875 481.207031 490.867188 480.414062 490.636719 C 481.210938 490.867188 482.027344 491.042969 482.816406 491.214844 C 483.367188 491.335938 483.894531 491.445312 484.375 491.582031 Z M 490.609375 492.78125 C 491.613281 492.949219 492.605469 493.097656 493.582031 493.238281 L 493.542969 493.25 C 493.101562 493.160156 492.511719 493.117188 491.972656 493.117188 C 491 493.117188 490.136719 493.265625 489.398438 493.566406 Z M 504.796875 494.101562 C 503.203125 494.101562 501.515625 494.035156 499.703125 493.890625 C 501.476562 494.015625 503.179688 494.085938 504.8125 494.085938 C 508.601562 494.085938 512.039062 493.734375 515.027344 493.046875 C 511.988281 493.746094 508.542969 494.101562 504.796875 494.101562 Z M 542.285156 494.789062 C 543.625 494.058594 545.023438 493.273438 546.574219 492.367188 C 545.824219 492.804688 545.101562 493.222656 544.398438 493.617188 C 543.671875 494.03125 542.972656 494.421875 542.285156 494.789062 Z M 486.65625 498.269531 C 486.445312 496.960938 486.847656 495.644531 487.734375 494.6875 C 486.679688 495.894531 486.488281 497.320312 486.664062 498.296875 C 486.664062 498.316406 486.667969 498.339844 486.675781 498.363281 C 486.664062 498.332031 486.660156 498.300781 486.65625 498.269531 Z M 519.179688 502.335938 C 521.261719 502.203125 523.058594 502.019531 524.582031 501.804688 C 522.25 502.144531 519.953125 502.296875 519.179688 502.335938 Z M 507.765625 503 C 501.695312 503 496.335938 502.4375 491.84375 501.332031 C 491.417969 501.28125 490.78125 501.160156 490.09375 500.953125 C 491.015625 501.222656 491.777344 501.324219 491.855469 501.335938 C 496.285156 502.421875 501.695312 502.984375 507.816406 502.984375 C 511.953125 502.984375 515.378906 502.726562 517.296875 502.539062 C 515.316406 502.730469 511.832031 503 507.765625 503 Z M 158.585938 393.046875 C 157.136719 393.046875 155.796875 393.671875 154.484375 394.949219 L 153.429688 395.96875 L 154.558594 396.898438 C 156.578125 398.554688 157.589844 399.398438 158.835938 399.398438 C 160.292969 399.398438 161.167969 398.296875 162.753906 396.308594 L 163.65625 395.179688 L 162.449219 394.390625 C 161.058594 393.488281 159.796875 393.046875 158.585938 393.046875 Z M 225.042969 397 C 224.929688 400.699219 225.164062 401.417969 228.382812 402.148438 L 229.886719 402.496094 L 229.984375 400.953125 C 229.992188 400.75 230.027344 400.539062 230.0625 400.328125 C 230.175781 399.570312 230.316406 398.617188 229.769531 397.851562 C 229.273438 397.140625 228.535156 396.742188 227.824219 396.359375 C 227.574219 396.230469 227.316406 396.09375 227.058594 395.933594 L 225.121094 394.714844 Z M 223.460938 405.414062 C 221.503906 407.914062 221.582031 410.085938 223.707031 412.914062 L 225.121094 414.800781 L 226.15625 412.164062 C 226.996094 410.050781 227.867188 407.867188 225.449219 405.324219 L 224.402344 404.21875 Z M 271.925781 417.59375 C 271.542969 417.660156 271.160156 417.714844 270.773438 417.765625 C 268.320312 418.113281 265.269531 418.535156 263.152344 422.328125 L 262.574219 423.363281 L 265.359375 425.3125 C 266.351562 426.003906 267.265625 426.640625 268.023438 427.183594 L 268.789062 427.730469 L 269.558594 427.183594 C 270.871094 426.234375 272.015625 425.429688 273.089844 424.667969 C 274.070312 423.972656 276.195312 422.460938 276.195312 422.460938 L 276.335938 422.191406 C 277.09375 420.75 277.929688 419.179688 278.957031 417.296875 L 279.328125 416.625 L 275.152344 410.101562 Z M 233.296875 439.324219 C 233.5 442.203125 233.644531 444.289062 236.351562 444.289062 C 237.15625 444.289062 238.15625 444.097656 239.667969 443.804688 L 241.605469 443.433594 L 240.511719 441.789062 C 238.449219 438.6875 238.132812 438.472656 234.816406 437.9375 L 233.183594 437.679688 Z M 200.472656 461.234375 L 201.0625 462.421875 C 201.207031 462.699219 201.761719 463.882812 201.90625 464.175781 L 202.550781 465.464844 L 207.734375 462.234375 L 205.902344 458.558594 Z M 282.492188 471.574219 L 283.898438 476.128906 L 289.109375 473.714844 L 287.785156 470.238281 Z M 210.234375 474.648438 C 209.835938 474.742188 209.417969 474.816406 209 474.894531 L 208.253906 475.023438 L 208 475.738281 C 207.621094 476.78125 207.3125 478 207.902344 479.132812 C 208.382812 480.046875 209.3125 480.679688 210.753906 481.070312 L 212.675781 481.585938 L 212.226562 478.40625 C 212.097656 477.445312 211.976562 476.589844 211.84375 475.722656 L 211.625 474.308594 Z M 193.394531 478.121094 C 193.09375 478.34375 192.777344 478.566406 192.472656 478.765625 L 191.78125 479.226562 L 192.695312 485.613281 C 192.695312 485.613281 196.621094 484.523438 197.898438 484.160156 L 199.929688 483.582031 L 194.351562 477.40625 Z M 218.421875 483.445312 C 217.65625 483.679688 216.925781 483.894531 215.820312 484.246094 L 213.785156 484.894531 L 221.714844 493.015625 C 221.714844 493.015625 221.410156 485.507812 221.371094 484.273438 L 221.3125 482.554688 Z M 308.332031 488.308594 C 307.207031 488.472656 306.292969 488.609375 305.109375 488.761719 L 303.144531 489.027344 L 307.617188 496.621094 L 313.007812 487.640625 Z M 206.074219 504.179688 C 198.90625 504.179688 190.738281 498.617188 187.875 491.789062 L 145.023438 389.765625 C 143.742188 386.652344 143.820312 383.769531 145.242188 381.660156 C 146.4375 379.921875 148.480469 378.796875 151.140625 378.421875 C 151.84375 378.289062 152.53125 378.226562 153.195312 378.226562 L 161.832031 378.226562 C 161.742188 378.417969 161.660156 378.589844 161.585938 378.742188 C 161.226562 379.476562 160.984375 379.960938 161.023438 380.589844 C 161.085938 381.25 161.347656 381.78125 161.558594 382.207031 C 161.621094 382.347656 161.691406 382.488281 161.75 382.621094 L 162.199219 383.746094 L 165.183594 382.855469 L 164.738281 378.226562 L 209.855469 378.226562 L 209.835938 378.929688 C 209.785156 381 210.152344 382.414062 210.980469 383.261719 C 211.515625 383.808594 212.21875 384.097656 213.011719 384.097656 C 213.511719 384.097656 214.058594 383.976562 214.632812 383.746094 C 215.40625 383.453125 215.65625 382.714844 215.898438 382.003906 C 215.988281 381.734375 216.09375 381.425781 216.238281 381.085938 L 216.765625 379.875 L 215.550781 379.355469 C 214.574219 378.941406 213.6875 378.578125 212.832031 378.226562 L 259.539062 378.226562 C 266.996094 378.226562 275.300781 383.265625 278.460938 389.691406 L 288.210938 409.480469 L 288.023438 412.601562 C 287.972656 413.433594 287.917969 414.035156 287.875 414.480469 C 287.792969 415.316406 287.746094 415.820312 287.925781 416.375 C 288.179688 417.089844 288.699219 417.472656 289.160156 417.808594 C 289.296875 417.910156 289.441406 418.015625 289.585938 418.140625 L 290.78125 419.160156 L 291.570312 417.800781 C 291.667969 417.636719 291.773438 417.484375 291.875 417.339844 C 291.914062 417.28125 291.957031 417.222656 291.996094 417.160156 L 306.394531 446.378906 L 307.640625 445.757812 L 306.625 446.382812 L 306.96875 447.558594 L 309.882812 453.4375 L 310.238281 453.351562 L 310.59375 454.875 L 313.5625 460.9375 L 314.828125 463.464844 L 318.394531 470.746094 L 322.238281 478.515625 L 323.015625 478.546875 C 324.84375 478.617188 327.253906 478.707031 329.855469 478.707031 C 334.617188 478.707031 349.125 478.707031 349.210938 471.292969 C 349.21875 471.175781 349.234375 471.070312 349.238281 470.953125 L 349.242188 470.957031 C 349.417969 472.441406 349.054688 473.671875 348.132812 474.707031 C 346.425781 476.621094 341.84375 478.910156 329.726562 478.910156 C 327.933594 478.910156 326.175781 478.859375 324.546875 478.785156 L 322.328125 478.683594 L 323.183594 480.421875 C 317.6875 481.503906 317.472656 482.445312 317.472656 488.621094 L 317.472656 490.359375 L 319.144531 489.886719 C 322.910156 488.8125 324.277344 486.183594 324.820312 483.746094 L 328.433594 491.0625 L 328.871094 491.988281 C 329.933594 494.234375 330.246094 496.484375 329.773438 498.507812 L 329.671875 498.964844 L 331.453125 502.582031 C 331.84375 503.457031 332.78125 504.050781 333.816406 504.050781 C 334.277344 504.050781 334.695312 503.949219 335.046875 503.75 C 336.269531 503.140625 336.800781 501.574219 336.179688 500.28125 L 331.8125 491.425781 C 331.75 491.300781 331.679688 491.175781 331.59375 491.0625 L 452.699219 491.0625 C 454.875 491.0625 456.636719 492.832031 456.636719 495 L 456.636719 498.9375 C 456.636719 501.828125 454.28125 504.1875 451.386719 504.1875 L 206.074219 504.1875 L 206.074219 504.179688 "/>
<path style=" stroke:none;fill-rule:nonzero;fill:rgb(6.269836%,5.879211%,5.099487%);fill-opacity:1;" d="M 518.847656 208.363281 C 520.535156 208.296875 520.539062 205.671875 518.847656 205.738281 C 500.15625 206.480469 510.648438 182.730469 515.027344 173.433594 C 515.75 171.910156 513.484375 170.574219 512.761719 172.105469 C 507.5 183.28125 497.273438 209.21875 518.847656 208.363281 "/>
<path style=" stroke:none;fill-rule:nonzero;fill:rgb(6.269836%,5.879211%,5.099487%);fill-opacity:1;" d="M 517.832031 207.074219 C 513.300781 207.074219 510.285156 205.78125 508.597656 203.128906 C 508.265625 202.605469 507.984375 202.023438 507.753906 201.390625 C 507.960938 201.871094 508.199219 202.328125 508.472656 202.765625 C 510.289062 205.617188 513.496094 207.066406 518.007812 207.066406 C 518.164062 207.066406 518.316406 207.066406 518.476562 207.0625 C 518.238281 207.066406 518.03125 207.074219 517.832031 207.074219 "/>
<path style=" stroke:none;fill-rule:nonzero;fill:rgb(6.269836%,5.879211%,5.099487%);fill-opacity:1;" d="M 537.597656 212.863281 C 533.96875 219.511719 524.265625 220.527344 517.796875 217.976562 C 516.214844 217.359375 515.535156 219.898438 517.09375 220.507812 C 524.65625 223.484375 535.699219 221.816406 539.863281 214.1875 C 540.675781 212.703125 538.410156 211.378906 537.597656 212.863281 "/>
<path style=" stroke:none;fill-rule:nonzero;fill:rgb(6.269836%,5.879211%,5.099487%);fill-opacity:1;" d="M 524.746094 220.585938 C 522.429688 220.585938 520.152344 220.207031 518.128906 219.492188 C 520.207031 220.203125 522.511719 220.570312 524.84375 220.570312 C 525.296875 220.570312 525.738281 220.5625 526.175781 220.53125 C 525.695312 220.566406 525.214844 220.585938 524.746094 220.585938 "/>
<path style=" stroke:none;fill-rule:nonzero;fill:rgb(6.269836%,5.879211%,5.099487%);fill-opacity:1;" d="M 542.632812 154.5625 C 538.402344 153.25 533.769531 153.433594 529.644531 155.058594 C 528.796875 155.390625 523.832031 157.464844 525.382812 159.09375 C 526.917969 160.703125 530.523438 159.699219 532.414062 159.496094 C 535.6875 159.15625 538.964844 158.96875 542.234375 159.425781 C 543.5 159.601562 547.957031 161.066406 548.800781 159.449219 C 550.011719 157.128906 543.929688 154.960938 542.632812 154.5625 "/>
<path style=" stroke:none;fill-rule:nonzero;fill:rgb(6.269836%,5.879211%,5.099487%);fill-opacity:1;" d="M 546.890625 158.890625 C 545.894531 158.890625 544.578125 158.589844 543.617188 158.371094 C 543.117188 158.257812 542.695312 158.164062 542.417969 158.128906 C 541.050781 157.933594 539.636719 157.84375 538.09375 157.84375 C 536.402344 157.84375 534.605469 157.949219 532.277344 158.195312 C 531.898438 158.234375 531.457031 158.304688 530.980469 158.378906 C 530.089844 158.519531 529.085938 158.679688 528.1875 158.679688 C 527.421875 158.679688 526.863281 158.5625 526.515625 158.339844 C 526.972656 157.835938 528.398438 156.960938 530.125 156.277344 C 532.269531 155.4375 534.535156 155.003906 536.863281 155.003906 C 538.699219 155.003906 540.511719 155.277344 542.25 155.816406 C 545.125 156.707031 547.53125 158.175781 547.644531 158.8125 C 547.597656 158.8125 547.382812 158.890625 546.890625 158.890625 "/>
<path style=" stroke:none;fill-rule:nonzero;fill:rgb(6.269836%,5.879211%,5.099487%);fill-opacity:1;" d="M 494.3125 175.613281 C 494.507812 172.398438 496.3125 169.890625 498.34375 170.015625 C 500.367188 170.140625 501.847656 172.851562 501.652344 176.066406 C 501.453125 179.28125 499.644531 181.785156 497.621094 181.660156 C 495.589844 181.535156 494.109375 178.828125 494.3125 175.613281 "/>
<path style=" stroke:none;fill-rule:nonzero;fill:rgb(6.269836%,5.879211%,5.099487%);fill-opacity:1;" d="M 497.710938 180.359375 C 497.203125 180.332031 496.6875 179.898438 496.292969 179.171875 C 495.792969 178.261719 495.554688 176.992188 495.628906 175.699219 C 495.789062 173.125 497.109375 171.332031 498.203125 171.332031 C 498.773438 171.367188 499.289062 171.796875 499.683594 172.519531 C 500.183594 173.433594 500.425781 174.699219 500.347656 175.992188 C 500.1875 178.566406 498.867188 180.363281 497.773438 180.363281 L 497.710938 180.359375 "/>
<path style=" stroke:none;fill-rule:nonzero;fill:rgb(6.269836%,5.879211%,5.099487%);fill-opacity:1;" d="M 534.4375 167.097656 C 536.464844 167.226562 537.945312 169.929688 537.746094 173.148438 C 537.550781 176.363281 535.742188 178.863281 533.71875 178.742188 C 531.6875 178.617188 530.207031 175.910156 530.410156 172.691406 C 530.605469 169.480469 532.410156 166.976562 534.4375 167.097656 "/>
<path style=" stroke:none;fill-rule:nonzero;fill:rgb(6.269836%,5.879211%,5.099487%);fill-opacity:1;" d="M 533.792969 177.417969 C 533.285156 177.390625 532.769531 176.957031 532.375 176.234375 C 531.875 175.320312 531.636719 174.054688 531.710938 172.757812 C 531.871094 170.183594 533.199219 168.394531 534.289062 168.394531 C 534.863281 168.425781 535.375 168.859375 535.769531 169.578125 C 536.269531 170.492188 536.511719 171.761719 536.429688 173.046875 C 536.269531 175.628906 534.945312 177.417969 533.855469 177.417969 L 533.792969 177.417969 "/>
<path style=" stroke:none;fill-rule:nonzero;fill:rgb(6.269836%,5.879211%,5.099487%);fill-opacity:1;" d="M 360.167969 464.796875 C 360.167969 464.820312 360.167969 464.847656 360.167969 464.847656 C 359.71875 465.765625 358.824219 466.628906 357.746094 467.417969 C 355.621094 468.964844 352.730469 470.175781 350.550781 470.804688 L 350.550781 470.699219 C 350.3125 469.046875 347.6875 469.023438 347.921875 470.699219 C 347.949219 470.910156 347.898438 471.070312 347.898438 471.28125 C 345.425781 471.464844 342.59375 471.539062 339.703125 471.539062 C 331.6875 471.539062 323.230469 470.964844 320.890625 470.410156 C 320.46875 470.335938 320.019531 470.253906 319.574219 470.175781 L 318.128906 467.210938 C 318.601562 467.3125 319.101562 467.417969 319.707031 467.523438 C 320.308594 467.628906 320.914062 467.734375 321.46875 467.863281 C 324.542969 468.546875 339.515625 469.386719 348.34375 468.601562 C 350.894531 468.339844 356.539062 465.820312 357.671875 463.878906 C 357.695312 463.824219 357.746094 463.773438 357.777344 463.75 C 358.089844 463.089844 358.878906 462.800781 359.535156 463.113281 C 360.167969 463.402344 360.457031 464.167969 360.167969 464.796875 "/>
<path style=" stroke:none;fill-rule:nonzero;fill:rgb(6.269836%,5.879211%,5.099487%);fill-opacity:1;" d="M 358.199219 465.324219 C 358.449219 465.058594 358.652344 464.796875 358.804688 464.53125 L 358.890625 464.449219 C 358.753906 464.683594 358.535156 464.976562 358.199219 465.324219 "/>
<path style=" stroke:none;fill-rule:nonzero;fill:rgb(6.269836%,5.879211%,5.099487%);fill-opacity:1;" d="M 326.355469 457.699219 C 329.464844 457.128906 335.472656 458.261719 335.535156 458.273438 C 336.203125 458.398438 336.816406 458 337.019531 457.375 C 337.03125 457.320312 337.066406 457.28125 337.074219 457.230469 C 337.210938 456.523438 336.742188 455.832031 336.03125 455.695312 C 335.867188 455.667969 333.453125 455.210938 330.785156 455.011719 C 329.085938 454.886719 327.28125 454.859375 325.878906 455.117188 C 325.386719 455.207031 324.738281 455.359375 324.007812 455.566406 C 321.261719 456.332031 317.226562 457.90625 314.746094 460.351562 L 315.996094 462.886719 C 318.035156 460.238281 323.445312 458.234375 326.355469 457.699219 "/>
<path style=" stroke:none;fill-rule:nonzero;fill:rgb(6.269836%,5.879211%,5.099487%);fill-opacity:1;" d="M 326.113281 456.40625 C 326.386719 456.355469 326.695312 456.316406 327.027344 456.289062 C 326.703125 456.316406 326.398438 456.359375 326.121094 456.40625 C 325.925781 456.441406 325.726562 456.484375 325.511719 456.53125 C 325.734375 456.480469 325.9375 456.4375 326.113281 456.40625 Z M 316.359375 460.660156 C 317.910156 459.386719 319.890625 458.429688 321.535156 457.78125 C 319.667969 458.527344 317.785156 459.515625 316.367188 460.667969 L 316.359375 460.660156 "/>
<g clip-path="url(#clip2)" clip-rule="nonzero">
<path style=" stroke:none;fill-rule:nonzero;fill:rgb(6.269836%,5.879211%,5.099487%);fill-opacity:1;" d="M 578.808594 520.847656 C 578.753906 521.371094 577.757812 523.523438 575.679688 525.175781 C 574.527344 526.089844 573.132812 527.378906 571.660156 528.765625 C 570.113281 530.214844 568.511719 531.679688 567.117188 532.808594 C 564.59375 534.828125 560.207031 536.980469 557.710938 536.980469 L 448.207031 536.980469 C 447.128906 536.980469 446.050781 535.40625 446.050781 533.882812 C 446.050781 533.175781 446.445312 532.285156 447.078125 531.449219 C 447.472656 531.601562 447.917969 531.734375 448.441406 531.734375 L 558.765625 531.734375 C 561.757812 531.734375 565.960938 529.214844 568.089844 527.507812 C 569.21875 526.621094 570.769531 525.308594 572.394531 523.941406 C 574.109375 522.5 575.894531 521.003906 577.289062 519.898438 C 577.917969 519.375 578.390625 518.875 578.808594 518.375 Z M 449.359375 527.925781 C 450.332031 527.144531 451.757812 525.933594 453.304688 524.652344 C 455.035156 523.179688 456.957031 521.550781 458.535156 520.292969 C 461.949219 517.566406 464.839844 516.019531 465.546875 515.988281 L 490.242188 515.988281 L 475.476562 529.109375 L 448.335938 529.109375 C 448.441406 528.847656 448.730469 528.425781 449.359375 527.925781 Z M 543.234375 515.988281 L 576.8125 515.988281 C 576.996094 515.988281 577.125 516.019531 577.230469 516.019531 C 577.101562 516.332031 576.707031 516.988281 575.628906 517.851562 C 574.210938 518.980469 572.425781 520.476562 570.6875 521.945312 C 569.113281 523.285156 567.5625 524.574219 566.433594 525.492188 C 563.9375 527.484375 560.492188 529.113281 558.761719 529.113281 L 530.519531 529.113281 Z M 578.230469 513.601562 C 577.859375 513.472656 577.390625 513.367188 576.8125 513.367188 L 465.546875 513.367188 C 463.050781 513.367188 457.507812 517.746094 456.902344 518.246094 C 455.300781 519.535156 453.382812 521.15625 451.597656 522.628906 C 450.074219 523.914062 448.679688 525.097656 447.707031 525.886719 C 446.476562 526.878906 445.761719 527.984375 445.65625 529.03125 C 444.320312 530.476562 443.425781 532.230469 443.425781 533.886719 C 443.425781 536.585938 445.398438 539.609375 448.207031 539.609375 L 557.710938 539.609375 C 561.050781 539.609375 565.882812 537.167969 568.773438 534.859375 C 570.21875 533.675781 571.871094 532.152344 573.449219 530.683594 C 574.894531 529.347656 576.257812 528.089844 577.335938 527.21875 C 579.703125 525.308594 581.199219 522.679688 581.355469 521.164062 C 581.378906 521.082031 581.433594 520.953125 581.433594 520.871094 L 581.433594 516.9375 C 581.410156 515.382812 580.410156 513.867188 578.230469 513.601562 "/>
</g>
<path style=" stroke:none;fill-rule:nonzero;fill:rgb(6.269836%,5.879211%,5.099487%);fill-opacity:1;" d="M 462.53125 515.914062 C 463.730469 515.210938 464.839844 514.703125 465.503906 514.679688 C 464.863281 514.703125 463.78125 515.183594 462.53125 515.914062 Z M 577.996094 517.304688 C 578.214844 516.996094 578.355469 516.730469 578.445312 516.519531 L 579.003906 515.164062 C 579.210938 515.257812 579.378906 515.378906 579.519531 515.503906 Z M 458.910156 518.34375 C 459.316406 518.035156 459.765625 517.714844 460.230469 517.390625 C 459.789062 517.699219 459.347656 518.019531 458.910156 518.34375 Z M 580.121094 516.949219 C 580.121094 516.949219 580.117188 520.898438 580.117188 520.910156 Z M 571.539062 522.945312 C 573.261719 521.484375 575.035156 520 576.445312 518.882812 C 576.546875 518.800781 576.644531 518.71875 576.734375 518.640625 C 576.636719 518.726562 576.542969 518.808594 576.441406 518.890625 C 575.066406 519.980469 573.265625 521.488281 571.550781 522.941406 L 571.289062 523.152344 C 571.375 523.085938 571.457031 523.011719 571.539062 522.945312 Z M 447.890625 527.496094 C 448.078125 527.292969 448.292969 527.09375 448.535156 526.902344 C 449.324219 526.265625 450.386719 525.367188 451.574219 524.367188 L 454.050781 522.296875 C 453.613281 522.667969 450.703125 525.113281 450.703125 525.113281 C 449.867188 525.8125 449.121094 526.4375 448.539062 526.90625 C 448.292969 527.101562 448.078125 527.296875 447.890625 527.496094 Z M 573.121094 529.199219 C 574.304688 528.085938 575.5 526.996094 576.5 526.203125 C 576.734375 526.015625 576.960938 525.816406 577.171875 525.621094 C 576.964844 525.816406 576.738281 526.015625 576.507812 526.207031 C 575.5625 526.964844 574.40625 528.007812 573.121094 529.199219 Z M 475.976562 530.425781 L 493.695312 514.679688 L 465.550781 514.679688 L 576.8125 514.679688 L 542.675781 514.679688 L 527.421875 530.425781 Z M 444.738281 533.875 C 444.742188 532.75 445.320312 531.441406 446.335938 530.242188 L 446.023438 530.65625 C 445.199219 531.753906 444.742188 532.898438 444.738281 533.875 Z M 557.710938 538.292969 C 560.582031 538.292969 565.257812 535.976562 567.9375 533.832031 C 568.4375 533.425781 568.960938 532.984375 569.515625 532.5 C 568.96875 532.980469 568.441406 533.433594 567.941406 533.84375 C 565.207031 536.027344 560.621094 538.292969 557.710938 538.292969 "/>
<path style=" stroke:none;fill-rule:nonzero;fill:rgb(6.269836%,5.879211%,5.099487%);fill-opacity:1;" d="M 560.410156 521.238281 L 555.152344 521.238281 C 554.425781 521.238281 553.839844 521.824219 553.839844 522.550781 C 553.839844 523.277344 554.425781 523.863281 555.152344 523.863281 L 560.410156 523.863281 C 561.136719 523.863281 561.722656 523.277344 561.722656 522.550781 C 561.722656 521.824219 561.136719 521.238281 560.410156 521.238281 "/>
<path style=" stroke:none;fill-rule:nonzero;fill:rgb(6.269836%,5.879211%,5.099487%);fill-opacity:1;" d="M 560.410156 521.238281 L 555.152344 521.238281 C 554.425781 521.238281 553.839844 521.824219 553.839844 522.550781 C 553.839844 523.277344 554.425781 523.863281 555.152344 523.863281 L 560.410156 523.863281 C 561.136719 523.863281 561.722656 523.277344 561.722656 522.550781 C 561.722656 521.824219 561.136719 521.238281 560.410156 521.238281 "/>
<path style=" stroke:none;fill-rule:nonzero;fill:rgb(6.269836%,5.879211%,5.099487%);fill-opacity:1;" d="M 544.644531 521.238281 L 542.019531 521.238281 C 541.292969 521.238281 540.699219 521.824219 540.699219 522.550781 C 540.699219 523.277344 541.292969 523.863281 542.019531 523.863281 L 544.644531 523.863281 C 545.371094 523.863281 545.957031 523.277344 545.957031 522.550781 C 545.957031 521.824219 545.371094 521.238281 544.644531 521.238281 "/>
<path style=" stroke:none;fill-rule:nonzero;fill:rgb(6.269836%,5.879211%,5.099487%);fill-opacity:1;" d="M 544.644531 521.238281 L 542.019531 521.238281 C 541.292969 521.238281 540.699219 521.824219 540.699219 522.550781 C 540.699219 523.277344 541.292969 523.863281 542.019531 523.863281 L 544.644531 523.863281 C 545.371094 523.863281 545.957031 523.277344 545.957031 522.550781 C 545.957031 521.824219 545.371094 521.238281 544.644531 521.238281 "/>
<path style=" stroke:none;fill-rule:nonzero;fill:rgb(6.269836%,5.879211%,5.099487%);fill-opacity:1;" d="M 552.527344 523.863281 L 547.269531 523.863281 C 546.542969 523.863281 545.957031 524.449219 545.957031 525.175781 C 545.957031 525.898438 546.542969 526.484375 547.269531 526.484375 L 552.527344 526.484375 C 553.253906 526.484375 553.839844 525.898438 553.839844 525.175781 C 553.839844 524.449219 553.253906 523.863281 552.527344 523.863281 "/>
<path style=" stroke:none;fill-rule:nonzero;fill:rgb(6.269836%,5.879211%,5.099487%);fill-opacity:1;" d="M 552.527344 523.863281 L 547.269531 523.863281 C 546.542969 523.863281 545.957031 524.449219 545.957031 525.175781 C 545.957031 525.898438 546.542969 526.484375 547.269531 526.484375 L 552.527344 526.484375 C 553.253906 526.484375 553.839844 525.898438 553.839844 525.175781 C 553.839844 524.449219 553.253906 523.863281 552.527344 523.863281 "/>
<path style=" stroke:none;fill-rule:nonzero;fill:rgb(6.269836%,5.879211%,5.099487%);fill-opacity:1;" d="M 547.269531 518.613281 C 546.542969 518.613281 545.957031 519.203125 545.957031 519.929688 C 545.957031 520.652344 546.542969 521.238281 547.269531 521.238281 L 552.527344 521.238281 C 553.253906 521.238281 553.839844 520.652344 553.839844 519.929688 C 553.839844 519.203125 553.253906 518.613281 552.527344 518.613281 L 547.269531 518.613281 "/>
<path style=" stroke:none;fill-rule:nonzero;fill:rgb(6.269836%,5.879211%,5.099487%);fill-opacity:1;" d="M 547.269531 518.613281 C 546.542969 518.613281 545.957031 519.203125 545.957031 519.929688 C 545.957031 520.652344 546.542969 521.238281 547.269531 521.238281 L 552.527344 521.238281 C 553.253906 521.238281 553.839844 520.652344 553.839844 519.929688 C 553.839844 519.203125 553.253906 518.613281 552.527344 518.613281 L 547.269531 518.613281 "/>
<path style=" stroke:none;fill-rule:nonzero;fill:rgb(6.269836%,5.879211%,5.099487%);fill-opacity:1;" d="M 468.542969 524.910156 C 465.179688 524.910156 463.125 523.597656 463.125 522.863281 C 463.125 522.15625 465.175781 520.847656 468.542969 520.847656 C 471.933594 520.847656 473.980469 522.15625 473.980469 522.863281 C 473.980469 523.597656 471.933594 524.910156 468.542969 524.910156 Z M 468.542969 518.21875 C 463.96875 518.21875 460.5 520.214844 460.5 522.863281 C 460.5 525.542969 463.972656 527.53125 468.542969 527.53125 C 473.140625 527.53125 476.609375 525.539062 476.609375 522.863281 C 476.609375 520.214844 473.140625 518.21875 468.542969 518.21875 "/>
<path style=" stroke:none;fill-rule:nonzero;fill:rgb(6.269836%,5.879211%,5.099487%);fill-opacity:1;" d="M 475.292969 522.863281 C 475.292969 521.027344 472.265625 519.53125 468.542969 519.53125 C 464.832031 519.53125 461.816406 521.027344 461.816406 522.863281 C 461.816406 521.027344 464.832031 519.53125 468.542969 519.53125 C 472.265625 519.53125 475.292969 521.027344 475.292969 522.863281 "/>
</g>
</svg>
