<?xml version="1.0" encoding="UTF-8"?>
<svg xmlns="http://www.w3.org/2000/svg" xmlns:xlink="http://www.w3.org/1999/xlink" width="900pt" height="599.999999pt" viewBox="0 0 900 599.999999" version="1.2">
<defs>
<clipPath id="clip1">
  <path d="M 236.734375 60 L 663.230469 60 L 663.230469 540 L 236.734375 540 Z M 236.734375 60 "/>
</clipPath>
</defs>
<g id="surface1">
<path style=" stroke:none;fill-rule:nonzero;fill:rgb(100%,100%,100%);fill-opacity:1;" d="M 342.792969 522.25 L 342.050781 522.152344 L 341.261719 522.207031 C 337.101562 522.484375 333.84375 525.949219 333.84375 530.09375 C 333.84375 534.480469 337.414062 538.046875 341.796875 538.046875 C 346.183594 538.046875 349.75 534.480469 349.75 530.09375 C 349.75 526.121094 346.761719 522.75 342.792969 522.25 "/>
<path style=" stroke:none;fill-rule:nonzero;fill:rgb(100%,100%,100%);fill-opacity:1;" d="M 289.945312 522.585938 L 289.371094 522.390625 L 289.371094 522.378906 L 288.144531 522.214844 C 287.902344 522.175781 287.664062 522.140625 287.414062 522.140625 C 283.03125 522.140625 279.460938 525.707031 279.460938 530.09375 C 279.460938 534.480469 283.03125 538.046875 287.414062 538.046875 C 291.800781 538.046875 295.371094 534.480469 295.371094 530.09375 C 295.371094 526.71875 293.1875 523.699219 289.945312 522.585938 "/>
<path style=" stroke:none;fill-rule:nonzero;fill:rgb(100%,100%,100%);fill-opacity:1;" d="M 653.035156 310.5625 L 653.019531 295.734375 C 653.007812 295.683594 651.429688 290.484375 650.207031 288.546875 L 631.246094 258.554688 L 631.3125 258.230469 C 631.421875 257.621094 631.503906 257.027344 631.570312 256.453125 L 642.414062 135.753906 C 642.824219 131.082031 641.429688 126.09375 639.3125 124.636719 C 637.488281 123.390625 633.066406 122.484375 628.804688 122.484375 C 628.222656 122.484375 627.636719 122.5 626.980469 122.539062 L 552.277344 127.433594 C 547.605469 127.742188 543.535156 131.796875 543.210938 136.464844 L 534.710938 257.578125 C 534.558594 259.832031 535.292969 261.976562 536.785156 263.605469 C 538.289062 265.25 540.359375 266.171875 542.613281 266.203125 L 606.171875 267.28125 L 619.609375 288.539062 C 622.019531 292.359375 622.523438 295.96875 621.023438 298.703125 C 619.523438 301.417969 616.210938 302.914062 611.699219 302.914062 L 549.972656 302.914062 C 548.8125 302.914062 547.96875 303.625 547.96875 304.613281 L 547.96875 306.3125 L 531.613281 306.3125 L 532.496094 304.988281 C 533.015625 304.207031 532.546875 303.34375 532.222656 302.902344 C 529.78125 299.550781 526.210938 296.375 521.609375 293.464844 C 516.539062 290.226562 511.011719 288.5 505.511719 288.464844 C 502.433594 288.464844 498.984375 289.1875 496.148438 290.445312 L 494 291.011719 C 492.703125 291.3125 491.484375 291.460938 490.464844 291.570312 L 489.625 291.660156 L 489.53125 290.820312 C 489.320312 288.90625 488.191406 287.273438 487.203125 286.375 L 486.933594 286.128906 L 486.925781 285.765625 C 486.824219 281.488281 484.242188 280.011719 482.09375 279.519531 L 480.867188 279.242188 L 481.585938 278.207031 C 486.957031 270.515625 492.503906 261.925781 497.398438 254.34375 L 500.117188 250.128906 C 500.539062 249.488281 500.59375 248.804688 500.273438 248.167969 C 499.851562 247.34375 498.875 246.765625 497.6875 246.71875 C 496.824219 246.71875 496.089844 247.136719 495.617188 247.890625 C 491.492188 254.457031 486.898438 261.175781 483.207031 266.578125 C 480.550781 270.484375 477.796875 274.523438 475.09375 278.632812 L 474.886719 278.945312 L 474.519531 279.003906 C 473.089844 279.242188 470.007812 279.710938 467.582031 279.949219 C 467.207031 279.984375 466.703125 280.132812 466.085938 280.382812 L 465.535156 280.605469 L 465.140625 280.167969 C 455.941406 270.070312 449.035156 254.855469 443.496094 242.621094 C 441.78125 238.828125 440.109375 235.164062 438.53125 231.992188 C 430.820312 216.597656 410.558594 180.78125 388.929688 180.78125 C 388.652344 180.78125 388.378906 180.789062 388.101562 180.796875 L 387.332031 180.832031 L 387.226562 180.0625 C 386.894531 177.601562 384.65625 177.234375 383.351562 177.234375 C 383.039062 177.234375 382.71875 177.25 382.398438 177.289062 C 379.949219 177.609375 378.097656 178.195312 377.035156 178.984375 L 376.621094 179.292969 L 376.160156 179.066406 C 375.558594 178.777344 375.035156 178.441406 374.589844 178.070312 C 373.203125 176.910156 373.0625 175.09375 373.097656 173.644531 L 373.109375 172.976562 L 373.761719 172.828125 C 375.589844 172.425781 377.320312 171.921875 379.050781 171.285156 C 383.964844 169.441406 388.496094 166.035156 392.160156 161.4375 C 395.429688 157.324219 397.824219 152.039062 399.082031 146.160156 C 399.453125 144.367188 399.792969 142.625 400.097656 140.929688 L 400.167969 140.558594 L 400.488281 140.359375 C 401.445312 139.765625 402.136719 138.964844 402.539062 137.972656 L 402.609375 137.804688 L 402.742188 137.675781 C 404.585938 135.910156 405.554688 128.78125 405.554688 122.660156 C 405.554688 114.175781 403.960938 107.277344 402.003906 107.277344 C 401.796875 107.277344 401.601562 107.359375 401.414062 107.515625 L 400.351562 108.425781 L 400.035156 107.058594 C 398.890625 102.035156 397.710938 97.191406 395.878906 93.230469 C 395.75 92.953125 395.621094 92.6875 395.472656 92.414062 L 394.988281 91.492188 L 395.984375 91.199219 C 396.363281 91.085938 396.730469 90.980469 397.054688 90.851562 C 400.125 89.644531 401.644531 87.21875 402.375 85.386719 C 403.605469 82.320312 403.527344 78.597656 402.140625 75.609375 C 401.097656 72.839844 398.730469 70.113281 395.816406 68.316406 C 392.117188 66.046875 387.1875 64.800781 381.929688 64.800781 C 380.042969 64.800781 378.167969 64.957031 376.34375 65.269531 C 376.226562 65.289062 376.105469 65.296875 375.980469 65.296875 C 374.871094 65.296875 373.511719 64.542969 372.203125 63.800781 C 371.628906 63.484375 371.085938 63.175781 370.714844 63.03125 C 368.832031 62.304688 366.871094 61.867188 365.117188 61.539062 C 365.121094 61.535156 365.125 61.53125 365.128906 61.53125 C 365.011719 61.507812 364.886719 61.492188 364.773438 61.46875 C 364.664062 61.453125 364.550781 61.429688 364.445312 61.410156 C 364.355469 61.394531 364.257812 61.386719 364.164062 61.371094 C 364.011719 61.351562 363.859375 61.324219 363.707031 61.300781 C 363.714844 61.304688 363.722656 61.3125 363.726562 61.316406 C 361.824219 61.019531 359.855469 60.847656 357.699219 60.847656 C 355.507812 60.847656 353.167969 61 350.546875 61.316406 C 330.996094 63.707031 314.375 74.746094 306.078125 90.84375 C 296.859375 108.75 300.730469 130.539062 316.421875 149.113281 C 320.066406 153.433594 323.667969 156.316406 327.421875 157.921875 L 327.585938 158.003906 L 327.699219 158.109375 C 327.984375 158.378906 328.265625 158.648438 328.570312 158.902344 L 330.410156 160.445312 L 328.011719 160.40625 C 323.796875 160.335938 319.582031 160.292969 315.371094 160.292969 C 306.007812 160.292969 297.773438 160.511719 290.195312 160.964844 C 274.589844 161.902344 261.457031 171.121094 256.738281 184.449219 C 251.570312 199.019531 250.449219 215.382812 249.363281 231.207031 C 249.214844 233.351562 249.066406 235.484375 248.914062 237.59375 C 247.84375 251.90625 247.304688 267.242188 247.183594 287.3125 C 247.070312 303.972656 247.046875 317.847656 247.859375 332.164062 L 247.90625 332.980469 L 247.097656 333.058594 C 244.269531 333.332031 241.945312 335.058594 240.371094 338.046875 C 238.734375 341.140625 237.871094 345.542969 237.871094 350.769531 C 237.871094 370.484375 250.550781 401.007812 273.472656 404.640625 L 276.148438 405.0625 L 273.707031 406.246094 C 268.867188 408.582031 265.859375 413.355469 265.859375 418.703125 L 265.859375 419.960938 C 265.859375 427.578125 272.050781 433.777344 279.660156 433.777344 L 335.539062 433.777344 L 335.539062 509.460938 C 335.539062 509.878906 335.613281 510.324219 335.785156 510.847656 L 336.140625 511.957031 L 336.328125 511.957031 L 336.585938 512.292969 C 337.6875 513.734375 339.578125 514.816406 341.632812 515.183594 L 342.332031 515.304688 L 342.332031 515.40625 L 343.097656 515.328125 C 345.234375 515.109375 347.15625 513.992188 348.230469 512.34375 L 348.484375 511.957031 L 348.578125 511.957031 L 348.890625 510.875 C 349.003906 510.492188 349.132812 509.984375 349.132812 509.464844 L 349.132812 433.78125 L 400.746094 433.78125 L 400.699219 436.058594 C 400.285156 456.074219 399.773438 480.988281 398.917969 487.621094 L 398.816406 488.359375 C 398.1875 493.316406 398.035156 494.492188 401.90625 497.132812 L 402.589844 497.601562 L 402.136719 498.296875 C 400.15625 501.378906 397.480469 506.183594 396.007812 511.589844 L 395.796875 512.347656 L 395.796875 512.351562 L 395.609375 513.210938 C 395.179688 515.210938 394.964844 517.035156 394.964844 518.773438 L 394.964844 522.660156 L 394.976562 522.65625 L 394.285156 523.441406 C 394.285156 523.441406 392.394531 524.851562 391.863281 525.75 C 391.253906 526.796875 389.792969 528.796875 389.792969 530.09375 C 389.792969 532.585938 391.417969 535.277344 393.367188 536.546875 C 393.359375 536.199219 395.25 537.664062 395.25 537.664062 L 395.222656 537.644531 L 395.222656 537.996094 C 395.222656 538.375 395.234375 538.609375 395.238281 538.664062 L 395.246094 539.152344 C 409.105469 539.152344 440.746094 538.648438 464.695312 538.230469 L 465.535156 538.300781 L 467.234375 538.300781 L 468.09375 538.171875 C 482.554688 537.914062 493.53125 537.703125 494.820312 537.679688 L 495.003906 537.617188 L 494.9375 537.253906 C 494.859375 536.765625 494.765625 536.265625 494.664062 535.753906 L 495.359375 534.902344 C 495.832031 534.902344 496.210938 534.523438 496.210938 534.054688 C 496.210938 533.585938 495.832031 533.203125 495.359375 533.203125 L 494.988281 533.203125 L 493.90625 532.359375 C 493.027344 528.664062 491.398438 522.984375 489.152344 519.796875 C 483.863281 512.300781 476.421875 506.519531 468.09375 503.410156 L 468.09375 505.273438 L 467.234375 504.074219 L 467.234375 502.203125 C 466.667969 502.011719 466.105469 501.828125 465.535156 501.660156 L 465.535156 501.699219 L 464.691406 500.519531 C 464.691406 500.519531 466.1875 500.972656 466.390625 501.035156 L 466.390625 498.15625 L 467.386719 497.675781 L 468.226562 497.253906 C 468.511719 495.773438 469.871094 488.605469 469.871094 488.605469 C 471.582031 479.671875 473.515625 469.542969 475.15625 459.261719 L 476.804688 459.140625 C 477.1875 460.335938 478.027344 462.929688 478.027344 462.929688 C 480.074219 469.359375 482.398438 476.648438 484.476562 483.839844 C 484.769531 484.863281 484.992188 485.96875 485.214844 487.035156 C 486.015625 490.90625 486.769531 494.566406 490.324219 495.902344 C 490.949219 496.132812 491.609375 496.347656 492.261719 496.53125 L 493.039062 496.742188 L 492.863281 497.527344 C 491.761719 502.582031 490.886719 509.964844 492.980469 516.425781 C 494.59375 521.453125 496.058594 525.789062 497.195312 529.117188 L 496.382812 530.1875 L 496.300781 530.214844 C 495.847656 530.359375 495.605469 530.839844 495.753906 531.28125 C 495.863281 531.640625 496.203125 531.875 496.558594 531.875 C 496.644531 531.875 496.734375 531.859375 496.816406 531.832031 L 496.9375 531.792969 L 498.023438 532.339844 C 498.347656 533.265625 499.03125 535.203125 499.03125 535.203125 L 499.148438 535.546875 L 499.15625 535.542969 C 512.21875 531.328125 543.976562 520.609375 591.003906 504.542969 C 592.539062 504.019531 593.453125 503.707031 593.496094 503.707031 C 593.496094 503.707031 593.496094 503.707031 593.492188 503.710938 L 593.683594 503.601562 L 593.566406 503.367188 C 593.296875 502.851562 593.007812 502.320312 592.710938 501.785156 L 593.105469 500.761719 L 593.859375 500.515625 C 594.304688 500.375 594.550781 499.894531 594.410156 499.449219 C 594.261719 499 593.78125 498.753906 593.339844 498.898438 L 592.226562 499.261719 L 591.230469 498.789062 C 589.285156 495.609375 586.054688 490.816406 582.996094 488.507812 C 575.085938 482.578125 565.511719 479.308594 556.039062 479.308594 C 554.746094 479.308594 553.457031 479.375 552.199219 479.496094 L 549.773438 479.660156 L 551.632812 477.941406 C 552.242188 477.378906 552.851562 476.816406 553.441406 476.238281 C 553.589844 476.101562 553.78125 475.929688 553.996094 475.738281 C 554.441406 475.355469 555.613281 474.328125 555.613281 473.890625 C 555.613281 472.035156 554.78125 469.722656 553.980469 467.488281 C 553.578125 466.375 553.195312 465.324219 552.929688 464.34375 C 549.394531 451.570312 546.382812 439.144531 542.808594 424.222656 L 540.980469 416.535156 C 538.699219 406.921875 536.339844 396.980469 533.886719 387.234375 C 533.339844 385.050781 532.816406 382.832031 532.285156 380.601562 C 530.34375 372.378906 528.335938 363.875 524.816406 356.285156 C 518.664062 343.042969 506.304688 334.828125 497.019531 330.277344 C 488.078125 325.90625 478.011719 322.707031 467.097656 320.765625 L 466.394531 320.640625 L 466.394531 318.753906 L 637.191406 319.027344 C 645.640625 319.027344 654.105469 319.042969 662.664062 319.0625 L 662.664062 310.5625 L 653.035156 310.5625 "/>
<path style=" stroke:none;fill-rule:nonzero;fill:rgb(6.269836%,5.879211%,5.099487%);fill-opacity:1;" d="M 556.828125 512.484375 C 557.152344 513.386719 557.40625 514.03125 557.765625 515.003906 C 555.792969 514.21875 555.792969 514.21875 556.828125 512.484375 Z M 593.113281 500.757812 L 496.941406 531.792969 C 497.738281 534.101562 498.230469 535.445312 498.230469 535.480469 L 498.621094 536.597656 L 499.417969 536.34375 C 521.855469 529.105469 593.199219 504.683594 593.910156 504.445312 L 594.808594 503.9375 L 594.320312 502.964844 C 593.945312 502.253906 593.539062 501.507812 593.113281 500.757812 "/>
<path style=" stroke:none;fill-rule:nonzero;fill:rgb(6.269836%,5.879211%,5.099487%);fill-opacity:1;" d="M 435.570312 280.453125 C 431.847656 263.65625 426.753906 241.597656 420.34375 219.96875 L 418.710938 220.453125 C 425.105469 242.027344 430.195312 264.046875 433.910156 280.824219 L 435.570312 280.453125 "/>
<path style=" stroke:none;fill-rule:nonzero;fill:rgb(6.269836%,5.879211%,5.099487%);fill-opacity:1;" d="M 466.960938 502.203125 L 466.960938 533.203125 L 494.699219 533.203125 C 493.523438 528 491.753906 522.410156 489.566406 519.300781 C 483.90625 511.277344 475.78125 505.210938 466.960938 502.203125 "/>
<path style=" stroke:none;fill-rule:nonzero;fill:rgb(6.269836%,5.879211%,5.099487%);fill-opacity:1;" d="M 416.101562 338.25 C 439.730469 341.222656 455.96875 348.488281 465.253906 360.234375 L 465.253906 357.523438 C 461.257812 352.953125 456.152344 349.101562 449.964844 345.9375 C 441.722656 341.722656 431.523438 338.730469 419.273438 336.957031 C 418.21875 337.390625 417.164062 337.828125 416.101562 338.25 "/>
<path style=" stroke:none;fill-rule:nonzero;fill:rgb(6.269836%,5.879211%,5.099487%);fill-opacity:1;" d="M 384.9375 108.988281 C 382.160156 108.265625 379.175781 108.507812 376.558594 109.675781 C 375.753906 110.035156 372.015625 111.894531 372.972656 113.296875 C 373.640625 114.269531 376.386719 112.984375 377.1875 112.769531 C 379.253906 112.226562 381.371094 112.09375 383.503906 112.0625 C 384.726562 112.042969 387.125 112.410156 387.984375 111.257812 C 388.855469 110.09375 385.503906 109.140625 384.9375 108.988281 "/>
<path style=" stroke:none;fill-rule:nonzero;fill:rgb(6.269836%,5.879211%,5.099487%);fill-opacity:1;" d="M 382.789062 117.0625 C 381.496094 117.300781 380.753906 119.15625 381.128906 121.207031 C 381.507812 123.261719 382.859375 124.734375 384.152344 124.496094 C 385.445312 124.261719 386.1875 122.402344 385.8125 120.347656 C 385.433594 118.296875 384.078125 116.824219 382.789062 117.0625 "/>
<g clip-path="url(#clip1)" clip-rule="nonzero">
<path style=" stroke:none;fill-rule:nonzero;fill:rgb(6.269836%,5.879211%,5.099487%);fill-opacity:1;" d="M 661.535156 318.210938 L 659.152344 318.210938 C 614.253906 318.140625 569.371094 318.054688 524.492188 317.988281 C 499.21875 317.953125 473.945312 317.917969 448.675781 317.867188 C 452.90625 316.59375 456.800781 314.671875 459.585938 311.359375 C 459.671875 311.257812 459.738281 311.136719 459.824219 311.035156 C 459.875 311.035156 459.925781 311.070312 459.980469 311.070312 C 465.175781 311.070312 470.394531 311.089844 475.597656 311.089844 L 479.792969 311.15625 L 480.765625 311.191406 C 481.308594 311.207031 481.886719 311.222656 482.460938 311.222656 C 483.175781 311.222656 483.925781 311.191406 484.636719 311.105469 C 516.0625 311.15625 547.484375 311.222656 578.902344 311.273438 C 600.929688 311.304688 622.9375 311.34375 644.945312 311.378906 L 653.105469 311.410156 L 653.105469 311.390625 C 655.90625 311.390625 658.730469 311.410156 661.535156 311.410156 Z M 465.261719 497.5625 C 447.824219 505.277344 417.730469 506.636719 402.332031 496.59375 C 398.664062 494.144531 398.746094 493.5 399.375 488.472656 L 399.476562 487.722656 C 400.359375 480.875 400.851562 456.230469 401.292969 434.492188 C 401.570312 420.949219 401.804688 409.253906 402.09375 404.9375 C 402.113281 404.714844 402.027344 404.480469 401.855469 404.304688 C 401.703125 404.136719 401.480469 404.035156 401.242188 404.035156 C 391.644531 404.035156 381.683594 404.613281 372.066406 405.175781 C 365.640625 405.550781 359.285156 405.902344 353.066406 406.128906 C 353.726562 405.667969 354.386719 405.140625 355.019531 404.511719 C 363.039062 396.644531 365.148438 377.914062 365.148438 369.109375 C 365.148438 365.578125 365.011719 358.777344 364.058594 351.910156 C 365.691406 351.671875 367.320312 351.433594 368.9375 351.164062 C 383.433594 348.769531 397.691406 344.957031 411.492188 339.980469 C 413.039062 339.421875 414.570312 338.84375 416.097656 338.246094 C 417.167969 337.835938 418.222656 337.394531 419.273438 336.957031 C 422.792969 335.492188 426.277344 333.945312 429.710938 332.296875 C 435.199219 329.648438 437.648438 323.851562 441.609375 319.566406 L 444.71875 319.566406 C 444.734375 319.566406 444.734375 319.585938 444.75 319.585938 L 444.917969 319.585938 C 451.582031 319.605469 458.449219 320.164062 465.261719 321.304688 Z M 447.792969 512.636719 C 447.230469 511.769531 446.839844 511.140625 445.941406 509.730469 C 447.417969 510.292969 448.0625 510.53125 448.945312 510.871094 C 448.503906 511.535156 448.269531 511.921875 447.792969 512.636719 Z M 431.1875 518.535156 L 430.269531 517.261719 C 430.558594 517.089844 430.851562 516.921875 431.121094 516.769531 C 431.34375 517.226562 431.542969 517.703125 431.75 518.179688 C 431.5625 518.296875 431.375 518.414062 431.1875 518.535156 Z M 421.839844 512.824219 C 419.15625 512.230469 419.648438 510.9375 420.570312 509.304688 C 422.199219 509.917969 422.503906 510.9375 421.839844 512.824219 Z M 394.90625 511.359375 C 394.019531 511.191406 393.105469 511.105469 392.1875 511.105469 L 349.425781 511.105469 C 349.582031 510.582031 349.703125 510.039062 349.703125 509.460938 L 349.703125 434.628906 L 399.597656 434.628906 C 399.171875 455.226562 398.664062 480.773438 397.792969 487.5 L 397.691406 488.25 C 397.046875 493.3125 396.859375 494.910156 401.140625 497.835938 C 399.238281 500.792969 396.433594 505.753906 394.90625 511.359375 Z M 279.378906 432.929688 C 272.238281 432.929688 266.425781 427.113281 266.425781 419.960938 L 266.425781 418.703125 C 266.425781 412.125 271.339844 406.6875 277.660156 405.855469 L 277.679688 405.855469 C 278.238281 405.769531 278.800781 405.734375 279.378906 405.734375 L 317.546875 405.734375 C 326.65625 407.621094 336.683594 408.097656 347.183594 407.960938 L 347.199219 407.960938 C 355.308594 407.84375 363.683594 407.367188 372.167969 406.875 C 381.292969 406.347656 390.722656 405.804688 399.832031 405.753906 C 400 405.753906 400.171875 405.773438 400.34375 405.773438 C 400.085938 410.511719 399.867188 420.894531 399.628906 432.929688 Z M 348 509.460938 C 348 512.109375 345.570312 514.320312 342.460938 514.488281 C 339.058594 514.300781 336.105469 511.957031 336.105469 509.460938 L 336.105469 434.628906 L 348 434.628906 Z M 348.902344 530.09375 C 348.902344 534 345.707031 537.195312 341.796875 537.195312 C 337.890625 537.195312 334.695312 534 334.695312 530.09375 C 334.695312 526.179688 337.890625 522.984375 341.796875 522.984375 C 345.703125 522.984375 348.902344 526.179688 348.902344 530.09375 Z M 238.4375 350.769531 C 238.4375 345.671875 239.269531 341.40625 240.832031 338.453125 C 242.277344 335.695312 244.296875 334.183594 246.832031 333.894531 C 246.933594 335.390625 247.015625 336.871094 247.121094 338.367188 C 247.9375 349.449219 247.921875 361.597656 257.4375 368.957031 C 263.453125 373.597656 271.421875 375.316406 279.15625 376.0625 C 286.070312 391.5625 297.199219 399.835938 310.882812 404.035156 L 279.375 404.035156 C 278.796875 404.035156 278.238281 404.089844 277.675781 404.15625 L 277.625 404.15625 C 253.359375 404.105469 238.4375 373.054688 238.4375 350.769531 Z M 277.4375 366.410156 C 276.300781 362.484375 275.453125 358.179688 274.839844 353.589844 C 290.796875 355.140625 306.808594 354.476562 322.832031 354.410156 C 336.105469 354.339844 349.238281 353.863281 362.359375 352.132812 C 363.125 357.550781 363.449219 363.503906 363.449219 369.109375 C 363.449219 379.054688 360.882812 396.371094 353.828125 403.304688 C 351.789062 405.3125 349.496094 406.347656 347.015625 406.246094 L 347.015625 406.265625 C 314.945312 406.667969 287.550781 401.128906 277.4375 366.410156 Z M 273.480469 333.183594 C 300.042969 332.574219 339.417969 331.921875 352.777344 332.996094 C 357.667969 333.40625 360.59375 340.945312 362.121094 350.5 C 348.527344 352.355469 334.878906 352.65625 321.148438 352.710938 C 305.613281 352.796875 290.117188 353.390625 274.621094 351.878906 C 273.902344 346.011719 273.546875 339.742188 273.480469 333.183594 Z M 275.789062 366.886719 C 276.554688 369.488281 277.425781 371.914062 278.359375 374.207031 C 272.203125 373.496094 266.117188 372.085938 260.679688 369.046875 C 249.941406 363.058594 249.890625 350.875 248.957031 339.964844 C 248.769531 337.921875 248.652344 335.867188 248.515625 333.808594 C 251.128906 333.742188 260.070312 333.488281 271.78125 333.21875 C 271.914062 345.777344 273.089844 357.382812 275.789062 366.886719 Z M 248.292969 259.929688 C 249.023438 239.011719 250.210938 217.59375 254.121094 196.980469 C 255.703125 188.636719 257.792969 179.746094 263.828125 173.441406 C 270.097656 166.863281 280.039062 162.597656 289.042969 161.863281 C 301.773438 160.847656 314.742188 161.390625 327.503906 161.492188 C 328.335938 161.492188 329.171875 161.507812 330 161.507812 C 331.105469 162.445312 332.261719 163.363281 333.46875 164.28125 C 333.589844 164.550781 333.824219 164.789062 334.183594 164.824219 L 334.234375 164.824219 C 334.367188 164.839844 334.484375 164.820312 334.617188 164.824219 C 334.484375 164.820312 334.371094 164.84375 334.238281 164.828125 C 334.621094 165.046875 334.914062 165.390625 335.105469 165.875 C 335.113281 165.894531 335.121094 165.917969 335.132812 165.941406 C 335.789062 167.691406 335.40625 170.742188 335.003906 172.511719 C 334.851562 173.175781 334.617188 173.773438 334.339844 174.34375 C 333.46875 174.226562 330.261719 174.015625 325.777344 176.453125 C 324.378906 177.210938 323.574219 178.175781 323.382812 179.320312 C 323.304688 179.78125 323.34375 180.21875 323.4375 180.609375 C 323.410156 180.621094 323.386719 180.632812 323.359375 180.648438 C 322.636719 181.019531 321.8125 181.4375 320.523438 181.945312 C 315.175781 184.050781 310.164062 186.953125 305.570312 190.539062 L 306.613281 191.832031 C 306.550781 191.878906 306.492188 191.9375 306.4375 191.988281 C 306.492188 191.9375 306.546875 191.875 306.601562 191.832031 L 305.566406 190.539062 L 305.546875 190.503906 C 305.429688 190.589844 305.328125 190.710938 305.226562 190.792969 C 305.226562 190.796875 305.222656 190.796875 305.222656 190.800781 C 305.027344 190.953125 304.824219 191.089844 304.632812 191.242188 C 286.28125 206.117188 281.847656 234.941406 280.800781 246.578125 C 276.492188 271.570312 271.699219 303.769531 271.78125 331.515625 C 272.339844 331.503906 272.90625 331.492188 273.476562 331.476562 C 273.398438 303.890625 278.183594 271.765625 282.484375 246.796875 C 283.3125 237.632812 286.246094 217.792969 296.453125 202.792969 C 292.492188 211.042969 290.425781 220.648438 289.949219 227.128906 C 289.121094 241.21875 291.664062 257.824219 297.734375 277.828125 C 301.640625 292.460938 306.453125 307.585938 318.363281 317.53125 C 329.648438 326.84375 345.042969 329.480469 359.984375 329.460938 C 371.996094 329.460938 383.707031 327.761719 392.714844 326.453125 C 393.902344 326.296875 395.097656 326.164062 396.285156 326.023438 C 397.730469 325.855469 399.191406 325.667969 400.632812 325.5 L 406.125 324.855469 C 415.351562 323.75 425.207031 322.472656 434.777344 320.6875 C 435.898438 320.46875 437.085938 320.285156 438.292969 320.078125 C 438.535156 320.027344 438.785156 319.996094 439.023438 319.941406 C 435.863281 323.867188 433.449219 328.371094 428.863281 330.835938 C 424.789062 333.011719 416.152344 336.445312 415.992188 336.507812 C 415.988281 336.511719 415.976562 336.515625 415.976562 336.515625 L 412.476562 337.824219 C 412.476562 337.824219 409.710938 338.824219 408.332031 339.320312 C 394.9375 344.042969 381.058594 347.441406 367.050781 349.769531 C 365.984375 349.9375 364.894531 350.09375 363.808594 350.246094 C 362.332031 340.863281 359.253906 331.824219 352.914062 331.3125 C 339.503906 330.226562 300.078125 330.871094 273.484375 331.484375 C 272.902344 331.484375 272.34375 331.5 271.78125 331.515625 C 259.921875 331.789062 250.894531 332.042969 248.398438 332.128906 C 246.847656 308.164062 247.460938 283.84375 248.292969 259.929688 Z M 326.84375 107.140625 C 326.246094 105.785156 326.160156 104.675781 328.761719 104.21875 C 328.386719 105.613281 328.152344 106.546875 327.894531 107.484375 C 327.554688 107.363281 327.199219 107.242188 326.84375 107.140625 Z M 317.171875 129.78125 C 316.847656 129.421875 316.542969 129.234375 316.5625 129.0625 C 316.628906 127.839844 317.089844 127.078125 319.125 127.671875 C 318.257812 128.605469 317.714844 129.203125 317.171875 129.78125 Z M 329.851562 113.140625 C 330.171875 113.601562 330.511719 114.09375 330.972656 114.722656 C 330.226562 115.382812 329.628906 115.925781 328.660156 116.792969 C 327.828125 114.65625 328.132812 113.683594 329.851562 113.140625 Z M 335.730469 75.515625 C 335.339844 76.3125 335.066406 76.855469 334.574219 77.859375 C 334.113281 76.855469 333.894531 76.347656 333.386719 75.207031 C 334.507812 75.339844 334.929688 75.414062 335.730469 75.515625 Z M 336.332031 164.5625 C 336.359375 164.550781 336.378906 164.546875 336.394531 164.53125 C 339.113281 163.433594 340.011719 159.539062 339.945312 156.613281 C 348.75 152.199219 351.210938 144.394531 346.179688 136.015625 C 346.402344 135.996094 346.621094 135.996094 346.84375 135.984375 C 347.234375 135.914062 347.488281 135.558594 347.441406 135.167969 C 347.371094 134.777344 347.011719 134.503906 346.621094 134.574219 C 344.738281 134.859375 342.320312 134.183594 341.117188 133.007812 C 338.910156 130.867188 338.210938 126.957031 339.453125 123.523438 C 340.421875 120.789062 342.339844 119.035156 344.738281 118.578125 C 344.535156 121.726562 346.589844 125.902344 349.683594 126.769531 C 350.023438 126.855469 350.359375 126.921875 350.683594 126.976562 C 355.546875 127.941406 359.964844 126.34375 362.90625 122.144531 C 363.246094 121.652344 363.515625 121.144531 363.753906 120.632812 L 368.9375 120.632812 C 368.917969 120.921875 368.902344 121.195312 368.902344 121.484375 C 368.902344 131.085938 374.703125 138.902344 381.820312 138.902344 C 388.683594 138.902344 394.3125 131.628906 394.703125 122.484375 C 394.703125 122.433594 394.738281 122.386719 394.738281 122.3125 C 394.769531 121.378906 395.226562 120.601562 396.011719 120.105469 C 399.683594 126.023438 407.550781 139.789062 395.890625 140.742188 C 394.804688 140.824219 394.804688 142.523438 395.890625 142.4375 C 396.996094 142.355469 397.929688 142.167969 398.78125 141.894531 C 398.523438 143.234375 398.253906 144.582031 397.964844 145.972656 C 397.777344 146.871094 397.542969 147.738281 397.300781 148.589844 C 395.65625 149.476562 393.546875 150 391.457031 150 C 388.667969 150 385.933594 149.085938 384.351562 146.859375 C 383.722656 145.972656 382.246094 146.824219 382.890625 147.722656 C 385.882812 151.921875 391.984375 152.515625 396.640625 150.746094 C 395.3125 154.589844 393.480469 158.039062 391.21875 160.894531 C 387.648438 165.382812 383.246094 168.679688 378.472656 170.484375 C 373.644531 172.296875 369.246094 172.941406 364.65625 172.570312 C 364.300781 172.539062 363.925781 172.792969 363.804688 173.167969 C 363.773438 173.214844 363.753906 173.269531 363.738281 173.335938 C 363.703125 173.8125 364.042969 174.222656 364.519531 174.253906 C 365.421875 174.335938 366.304688 174.371094 367.1875 174.371094 C 368.785156 174.371094 370.367188 174.222656 371.964844 173.964844 C 371.964844 175.699219 372.285156 177.464844 373.765625 178.726562 C 374.191406 179.082031 374.648438 179.371094 375.140625 179.640625 C 374.648438 180.8125 374.527344 182.136719 374.597656 183.484375 C 374.863281 183.847656 375.121094 184.253906 375.378906 184.683594 C 375.121094 184.253906 374.859375 183.851562 374.589844 183.484375 C 371.03125 178.609375 366.589844 179.292969 360.921875 180.203125 C 359.152344 180.484375 357.320312 180.777344 355.265625 180.957031 C 349.019531 181.652344 344.570312 179.835938 339.359375 177.007812 C 338.316406 176.441406 337.253906 175.851562 336.128906 175.214844 L 335.867188 175.066406 C 336.199219 174.386719 336.480469 173.671875 336.660156 172.886719 C 336.742188 172.527344 336.894531 171.789062 337.015625 170.871094 C 337.261719 168.96875 337.351562 166.289062 336.332031 164.5625 Z M 352.894531 99.308594 C 352.28125 99.289062 351.6875 99.289062 350.804688 99.273438 C 351.398438 97.4375 352.113281 97.828125 352.894531 99.308594 Z M 360.441406 121.316406 C 360.574219 121.113281 360.675781 120.859375 360.796875 120.636719 L 361.628906 120.636719 C 360.710938 122.269531 359.402344 123.59375 357.789062 124.457031 C 358.808594 123.542969 359.695312 122.457031 360.441406 121.316406 Z M 362.546875 110.558594 C 362.703125 111.511719 362.855469 112.460938 362.957031 113.429688 C 363.191406 115.417969 362.972656 117.289062 362.394531 118.9375 L 361.507812 118.9375 C 362.328125 116.355469 362.445312 113.296875 362.546875 110.558594 Z M 361.9375 75.125 C 363.160156 74.628906 364.382812 74.121094 365.589844 73.628906 C 365.742188 73.882812 365.898438 74.136719 366.046875 74.390625 C 365.65625 74.953125 365.28125 75.546875 364.839844 76.058594 C 364.433594 76.535156 363.957031 76.921875 363.550781 77.3125 C 363.175781 78.660156 362.832031 79.898438 362.476562 81.152344 C 362.222656 81.070312 361.96875 81.003906 361.695312 80.917969 C 361.78125 79.113281 361.851562 77.296875 361.9375 75.125 Z M 364.84375 61.527344 C 364.636719 61.675781 364.414062 61.816406 364.195312 61.96875 C 363.9375 61.746094 363.683594 61.527344 363.429688 61.304688 C 363.90625 61.371094 364.382812 61.445312 364.84375 61.527344 Z M 393.035156 121.484375 C 393.035156 130.15625 388.003906 137.207031 381.816406 137.207031 C 375.636719 137.207031 370.601562 130.15625 370.601562 121.484375 C 370.601562 112.820312 375.636719 105.746094 381.816406 105.746094 C 388.003906 105.746094 393.035156 112.820312 393.035156 121.484375 Z M 368.851562 91.898438 C 369.292969 96.503906 372.898438 101.363281 378.046875 100.378906 C 382.824219 99.460938 385.832031 95.007812 387.039062 90.488281 C 388.5625 92.273438 391.542969 92.675781 394.175781 92.355469 C 394.394531 92.765625 394.636719 93.152344 394.835938 93.582031 C 396.757812 97.742188 397.945312 102.992188 399.019531 107.652344 L 399.273438 108.738281 L 399.273438 108.792969 C 399.253906 108.859375 399.222656 108.925781 399.1875 108.992188 C 399.121094 109.0625 399.050781 109.128906 398.984375 109.179688 C 398.375 109.691406 397.777344 110.234375 397.46875 110.980469 C 397.355469 111.289062 397.335938 111.683594 397.488281 111.984375 C 397.625 112.273438 397.914062 112.359375 398.234375 112.34375 C 397.863281 114.210938 397.625 116.300781 397.488281 118.273438 C 396.960938 118.121094 396.347656 118.121094 395.769531 118.324219 C 395.332031 118.476562 394.9375 118.714844 394.582031 119.007812 C 393.699219 110.578125 388.3125 104.046875 381.820312 104.046875 C 375.347656 104.046875 369.976562 110.542969 369.058594 118.9375 L 364.367188 118.9375 C 366.03125 112.785156 362.226562 105.578125 363.925781 99.421875 C 363.941406 99.375 363.941406 99.324219 363.941406 99.289062 C 364.777344 96.300781 366.21875 93.613281 368.851562 91.898438 Z M 384.710938 66.574219 L 386.609375 68.476562 C 384.589844 69.273438 383.910156 68.796875 384.710938 66.574219 Z M 393.019531 90.179688 C 393.140625 90.382812 393.238281 90.605469 393.355469 90.808594 C 391.792969 90.910156 390.148438 90.691406 389.027344 89.992188 C 390.347656 90.402344 391.695312 90.433594 393.019531 90.179688 Z M 394.328125 78.980469 C 395.246094 78.84375 396.160156 78.707031 397.507812 78.519531 C 397.367188 79.796875 397.300781 80.40625 397.183594 81.460938 C 395.992188 80.75 395.125 80.21875 394.261719 79.695312 C 394.273438 79.453125 394.308594 79.21875 394.328125 78.980469 Z M 401.71875 83.742188 C 400.917969 86.1875 399.222656 88.359375 396.824219 89.890625 C 396.417969 90.164062 395.839844 90.382812 395.179688 90.554688 C 395.023438 90.265625 394.871094 89.976562 394.703125 89.6875 C 397.542969 88.617188 400.105469 86.324219 401.71875 83.742188 Z M 400.53125 117.355469 C 399.679688 117.953125 399.121094 119.308594 399.171875 120.875 C 399.222656 122.421875 399.851562 123.679688 400.699219 124.238281 C 400.683594 124.511719 400.683594 124.785156 400.664062 125.054688 C 400.140625 123.953125 399.578125 122.898438 399.035156 121.894531 C 399.066406 117.765625 399.460938 114.605469 399.953125 112.359375 C 400.207031 113.972656 400.394531 115.625 400.53125 117.355469 Z M 401.71875 108.128906 C 402.46875 108.214844 404.421875 112.804688 404.421875 122.660156 C 404.421875 127.351562 403.980469 130.832031 403.4375 133.230469 C 403.214844 131.753906 402.777344 130.1875 402.195312 128.644531 C 402.636719 122.203125 402.402344 116.269531 401.449219 110.964844 C 401.636719 110.777344 401.757812 110.558594 401.738281 110.1875 C 401.71875 109.640625 401.617188 108.945312 401.363281 108.421875 C 401.5 108.246094 401.617188 108.140625 401.71875 108.128906 Z M 375.804688 189.550781 C 375.894531 189.730469 376.015625 189.863281 376.171875 189.925781 C 376.375 190.027344 376.613281 190.050781 376.84375 189.964844 C 377 189.902344 377.117188 189.796875 377.210938 189.671875 C 377.238281 189.632812 377.269531 189.601562 377.292969 189.558594 C 377.3125 189.519531 377.324219 189.484375 377.335938 189.445312 C 377.359375 189.382812 377.378906 189.316406 377.386719 189.246094 C 377.390625 189.183594 377.378906 189.121094 377.371094 189.054688 C 377.371094 189.050781 377.371094 189.046875 377.367188 189.042969 L 377.367188 188.9375 C 377.230469 188.460938 377.113281 187.988281 376.992188 187.511719 C 376.601562 185.847656 376.347656 184.144531 376.347656 182.429688 C 376.328125 181.515625 376.394531 180.171875 377.28125 179.664062 C 378.148438 179.167969 379.199219 178.898438 380.121094 178.609375 C 382.855469 177.757812 386.679688 177.503906 386.066406 181.546875 C 385.730469 183.742188 385.253906 186.136719 383.671875 187.71875 C 382.496094 185.289062 380.972656 183.144531 379.1875 181.074219 C 378.46875 180.238281 377.261719 181.449219 377.976562 182.277344 C 378.097656 182.414062 378.199219 182.550781 378.316406 182.683594 C 380.019531 184.691406 381.546875 186.816406 382.582031 189.261719 C 382.769531 189.738281 383.332031 190.132812 383.824219 189.773438 C 386.441406 187.953125 387.476562 184.742188 387.765625 181.632812 C 388.039062 181.617188 388.308594 181.597656 388.582031 181.597656 C 410.371094 181.597656 431.441406 220.296875 437.492188 232.382812 C 439.039062 235.472656 440.6875 239.128906 442.4375 242.988281 C 448.046875 255.359375 454.777344 270.199219 463.867188 280.394531 C 462.136719 281.363281 460.382812 282.636719 459.347656 283.4375 C 458.839844 282.367188 458.277344 281.226562 457.476562 280.273438 C 456.699219 279.339844 455.679688 278.589844 454.234375 278.300781 C 452.109375 277.878906 449.746094 278.234375 447.503906 278.710938 C 446.261719 278.964844 445.039062 279.253906 443.8125 279.542969 C 441.179688 280.171875 438.699219 280.769531 436.066406 281.007812 C 424.050781 282.128906 413.34375 282.691406 403.488281 282.757812 C 403.503906 282.65625 403.519531 282.550781 403.503906 282.433594 C 401.753906 267.121094 398.695312 252.113281 394.105469 237.394531 C 389.433594 222.386719 383.484375 207.789062 377.976562 193.070312 C 377.605469 192.050781 375.953125 192.496094 376.347656 193.511719 C 381.699219 207.839844 387.390625 222.0625 392.082031 236.628906 C 396.875 251.554688 400.035156 266.863281 401.804688 282.429688 C 401.824219 282.550781 401.855469 282.652344 401.90625 282.753906 C 400.835938 282.753906 399.765625 282.753906 398.710938 282.738281 C 391.964844 282.652344 386.507812 282.449219 381.480469 282.09375 C 381.445312 282.09375 380.628906 282.042969 379.40625 281.855469 C 375.347656 281.222656 366.574219 278.859375 364.824219 270.140625 C 363.738281 265.214844 362.769531 259.84375 361.75 254.167969 C 357.773438 232.113281 353.304688 207.484375 338.925781 192.746094 C 341.285156 193.746094 343.75 194.53125 346.273438 195.109375 C 349.558594 195.859375 352.945312 196.261719 356.359375 196.261719 C 360.890625 196.261719 365.46875 195.582031 369.910156 194.175781 C 370.265625 194.0625 370.503906 193.734375 370.5 193.359375 C 370.480469 190.707031 371.261719 187.859375 371.984375 185.605469 C 372.011719 185.507812 372.042969 185.394531 372.074219 185.304688 C 372.21875 184.859375 371.976562 184.378906 371.527344 184.234375 C 371.074219 184.09375 370.601562 184.335938 370.457031 184.78125 C 369.730469 187.03125 368.902344 189.921875 368.808594 192.734375 C 353.167969 197.441406 335.875 192.863281 325.605469 181.238281 C 325.597656 181.226562 324.910156 180.441406 325.0625 179.589844 C 325.167969 178.992188 325.679688 178.4375 326.585938 177.945312 C 330.6875 175.71875 333.539062 175.949219 334.113281 176.027344 L 335.292969 176.691406 C 342.054688 180.515625 347.402344 183.542969 355.433594 182.648438 C 357.53125 182.464844 359.472656 182.15625 361.1875 181.882812 C 367.984375 180.796875 371.875 180.1875 375.214844 188.128906 C 375.394531 188.554688 375.570312 188.988281 375.746094 189.460938 C 375.761719 189.5 375.789062 189.519531 375.804688 189.550781 Z M 334.128906 190.296875 C 334.632812 190.589844 335.117188 190.902344 335.632812 191.171875 C 335.117188 190.898438 334.632812 190.589844 334.128906 190.296875 Z M 299.15625 197.914062 C 300.710938 195.472656 302.480469 193.296875 304.460938 191.496094 C 302.484375 193.296875 300.714844 195.476562 299.15625 197.914062 Z M 306.296875 192.121094 C 306.304688 192.109375 306.316406 192.101562 306.328125 192.089844 C 310.867188 188.503906 315.84375 185.613281 321.144531 183.527344 C 322.511719 182.988281 323.375 182.550781 324.136719 182.160156 C 324.144531 182.15625 324.148438 182.152344 324.160156 182.148438 C 324.253906 182.273438 324.328125 182.355469 324.332031 182.371094 C 326.617188 184.949219 329.234375 187.183594 332.09375 189.078125 L 332.09375 189.09375 C 350.667969 202.25 355.664062 229.984375 360.066406 254.460938 C 361.105469 260.167969 362.070312 265.554688 363.160156 270.503906 C 365.265625 280.988281 376.3125 283.214844 380.101562 283.671875 C 380.882812 283.757812 381.375 283.792969 381.394531 283.792969 C 386.40625 284.148438 391.914062 284.351562 398.695312 284.4375 C 409.925781 284.578125 422.195312 283.996094 436.21875 282.703125 C 438.972656 282.449219 441.640625 281.820312 444.207031 281.191406 C 445.414062 280.902344 446.617188 280.613281 447.84375 280.359375 C 449.917969 279.933594 452.074219 279.59375 453.910156 279.96875 C 455.964844 280.375 456.832031 282.140625 457.820312 284.183594 C 457.9375 284.4375 458.058594 284.671875 458.195312 284.933594 C 458.207031 284.953125 458.214844 284.980469 458.226562 285.003906 C 458.214844 284.976562 458.203125 284.953125 458.191406 284.925781 C 458.210938 285.0625 458.257812 285.203125 458.355469 285.320312 C 458.367188 285.328125 458.382812 285.335938 458.398438 285.347656 C 458.398438 285.351562 458.398438 285.351562 458.398438 285.355469 C 458.652344 285.867188 458.90625 286.375 459.128906 286.867188 C 462.851562 294.90625 463.226562 301.726562 460.300781 307.25 C 459.738281 308.300781 459.074219 309.324219 458.277344 310.269531 C 457.871094 310.746094 457.410156 311.171875 456.953125 311.578125 C 453.757812 314.539062 449.320312 316.101562 444.703125 317.136719 C 442.476562 317.628906 440.199219 318.039062 438.003906 318.394531 C 436.796875 318.601562 435.589844 318.800781 434.453125 319.023438 C 424.9375 320.808594 415.113281 322.066406 405.917969 323.171875 L 400.433594 323.816406 C 398.851562 324.003906 397.253906 324.191406 395.65625 324.378906 C 394.601562 324.515625 393.546875 324.632812 392.476562 324.769531 C 372.558594 327.675781 339.21875 332.535156 319.453125 316.21875 C 307.910156 306.601562 303.203125 291.765625 299.363281 277.351562 C 293.34375 257.515625 290.816406 241.117188 291.648438 227.25 C 292.378906 217.359375 296.882812 199.972656 306.296875 192.121094 Z M 489.054688 309.304688 L 489.054688 309.421875 L 488.953125 309.421875 C 488.988281 309.386719 489.003906 309.335938 489.054688 309.304688 Z M 467.371094 280.804688 C 469.375 280.597656 471.738281 280.261719 473.234375 280.019531 L 471.515625 284.148438 C 471.363281 284.488281 471.464844 284.878906 471.738281 285.121094 C 472.027344 285.355469 472.4375 285.390625 472.738281 285.207031 L 480.898438 280.207031 C 481.917969 280.292969 485.84375 280.972656 485.8125 286.140625 C 485.792969 286.394531 485.914062 286.632812 486.113281 286.804688 C 486.269531 286.921875 489.871094 289.914062 487.867188 293.738281 C 487.679688 294.058594 487.746094 294.484375 488.019531 294.738281 C 488.121094 294.84375 490.550781 297.304688 488.597656 302.253906 C 488.511719 302.472656 488.511719 302.730469 488.613281 302.933594 C 489.378906 304.511719 489.429688 305.484375 488.832031 306.773438 C 487.476562 309.699219 483.785156 309.578125 480.8125 309.492188 L 461.167969 309.152344 C 465.214844 302.710938 464.859375 294.605469 460.113281 285.003906 C 461.933594 283.570312 465.605469 280.972656 467.371094 280.804688 Z M 475.34375 279.375 C 478.074219 275.226562 480.878906 271.097656 483.632812 267.050781 C 487.78125 260.96875 492.082031 254.679688 496.054688 248.339844 C 496.464844 247.675781 497.09375 247.542969 497.519531 247.574219 C 498.230469 247.609375 498.945312 248.015625 499.234375 248.5625 C 499.40625 248.917969 499.371094 249.273438 499.117188 249.664062 L 497.296875 252.488281 C 491.980469 260.746094 485.726562 270.46875 479.773438 278.898438 L 474.082031 282.382812 Z M 490.054688 292.460938 C 491.316406 292.34375 492.605469 292.140625 493.933594 291.832031 L 496.210938 291.222656 C 498.960938 290.015625 502.222656 289.316406 505.183594 289.316406 L 505.316406 289.316406 C 510.535156 289.351562 515.921875 291.035156 520.886719 294.175781 C 525.371094 297.035156 528.855469 300.128906 531.25 303.40625 C 531.472656 303.695312 531.78125 304.238281 531.492188 304.59375 C 531.082031 305.105469 529.605469 305.378906 527.597656 304.457031 C 526.511719 303.949219 525.574219 303.136719 524.574219 302.265625 C 523.503906 301.316406 522.363281 300.328125 520.988281 299.734375 C 516.332031 297.746094 510.519531 297.660156 505.996094 297.8125 C 503.894531 297.4375 501.546875 297.167969 498.910156 296.996094 C 498.402344 296.980469 498.042969 297.335938 498.007812 297.796875 C 497.996094 298.269531 498.351562 298.679688 498.808594 298.695312 C 511.859375 299.492188 515.566406 302.742188 516.277344 305.460938 L 490.921875 305.460938 C 490.988281 304.441406 490.734375 303.507812 490.3125 302.535156 C 491.996094 297.949219 490.429688 295.078125 489.613281 293.988281 C 489.835938 293.464844 489.972656 292.953125 490.054688 292.460938 Z M 516.246094 302.113281 C 515.296875 301.144531 514.003906 300.296875 512.351562 299.597656 C 515.109375 299.785156 517.894531 300.261719 520.324219 301.296875 C 521.464844 301.789062 522.433594 302.640625 523.464844 303.539062 C 524.230469 304.222656 525.03125 304.902344 525.914062 305.464844 L 522.34375 305.464844 C 520.96875 303.421875 518.605469 302.453125 516.246094 302.113281 Z M 520.089844 305.464844 L 518.03125 305.464844 C 517.941406 305.003906 517.792969 304.5625 517.605469 304.136719 C 518.523438 304.410156 519.390625 304.851562 520.089844 305.464844 Z M 553.632812 307.164062 L 553.632812 309.386719 L 490.753906 309.371094 L 490.753906 307.164062 Z M 466.960938 362.484375 C 468.410156 364.625 469.664062 366.867188 470.699219 369.261719 C 485.351562 401.660156 475.679688 452.21875 468.625 489.136719 C 468.136719 491.734375 467.660156 494.265625 467.199219 496.695312 C 467.113281 496.730469 467.027344 496.765625 466.960938 496.796875 Z M 466.964844 321.59375 C 479.726562 323.886719 492.269531 328.183594 503.023438 334.660156 C 509.53125 338.585938 515.34375 343.703125 519.796875 349.890625 C 525.746094 358.148438 527.785156 368.207031 530.316406 377.859375 C 537.351562 404.53125 543.0625 431.535156 550.097656 458.183594 C 551.359375 462.976562 552.679688 467.753906 554.058594 472.53125 C 554.890625 475.453125 547.808594 479.921875 545.835938 481.398438 C 538.984375 486.53125 531.082031 490.253906 522.996094 492.9375 C 515.074219 495.554688 506.679688 496.898438 498.335938 496.441406 C 495.277344 496.289062 489.496094 496.117188 487.660156 493.125 C 486.421875 491.121094 486.269531 488.214844 485.65625 485.921875 C 482.902344 475.640625 479.671875 465.511719 476.328125 455.394531 C 480.933594 425.011719 482.921875 392.15625 472.261719 368.582031 C 470.871094 365.355469 469.070312 362.394531 466.964844 359.644531 Z M 522.433594 497.378906 C 522.632812 497.105469 522.839844 496.828125 523.042969 496.542969 C 523.640625 497.089844 524.214844 497.628906 525.136719 498.480469 C 523.230469 499.277344 522.652344 498.652344 522.433594 497.378906 Z M 515.820312 520.625 C 516.363281 518.5 516.859375 516.582031 517.554688 513.914062 C 518.914062 515.105469 519.730469 515.816406 520.613281 516.582031 C 519.800781 519.027344 518.746094 520.742188 515.820312 520.625 Z M 511.503906 516.921875 C 511.285156 516.222656 511.078125 515.628906 510.773438 514.675781 C 511.847656 514.183594 512.78125 513.757812 514.089844 513.160156 C 514.800781 516.460938 513.355469 516.769531 511.503906 516.921875 Z M 504.773438 506.976562 C 505.675781 507.519531 506.355469 507.949219 507.679688 508.761719 C 505.167969 509.40625 505.167969 509.40625 504.773438 506.976562 Z M 569.59375 500.636719 C 569.152344 502.660156 568.433594 503.816406 566.3125 503.730469 C 566.246094 502.675781 566.191406 501.675781 566.089844 500.023438 C 567.570312 500.28125 568.488281 500.433594 569.59375 500.636719 Z M 294.519531 530.09375 C 294.519531 534 291.324219 537.195312 287.414062 537.195312 C 283.507812 537.195312 280.3125 534 280.3125 530.09375 C 280.3125 526.179688 283.507812 522.984375 287.414062 522.984375 C 291.324219 522.984375 294.519531 526.179688 294.519531 530.09375 Z M 621.492188 299.105469 C 623.140625 296.097656 622.628906 292.1875 620.050781 288.09375 L 607.453125 268.160156 L 609.9375 268.207031 L 614.40625 268.273438 C 614.40625 268.273438 614.558594 268.273438 614.574219 268.273438 L 615.375 268.292969 C 619.984375 268.292969 624.976562 267.765625 627 267.050781 C 628.871094 266.40625 630.414062 263.738281 631.316406 260.695312 L 649.195312 288.992188 C 651.441406 292.546875 651.929688 295.84375 650.589844 298.289062 C 649.246094 300.722656 646.1875 302.0625 642.003906 302.0625 L 618.554688 302.0625 C 619.808594 301.316406 620.816406 300.328125 621.492188 299.105469 Z M 542.351562 265.355469 C 540.324219 265.320312 538.472656 264.503906 537.132812 263.039062 C 535.789062 261.582031 535.144531 259.65625 535.277344 257.636719 L 543.761719 136.527344 C 544.0625 132.257812 547.789062 128.574219 552.050781 128.285156 L 626.742188 123.390625 C 626.914062 123.390625 627.085938 123.371094 627.253906 123.371094 C 629.125 123.371094 630.804688 124.085938 631.992188 125.378906 C 633.199219 126.6875 633.777344 128.453125 633.609375 130.390625 L 622.785156 259.050781 C 622.425781 263.195312 618.757812 266.578125 614.574219 266.578125 L 614.574219 267.425781 L 614.441406 266.578125 Z M 638.539062 125.34375 C 640.207031 126.484375 641.703125 130.917969 641.273438 135.675781 L 630.433594 256.378906 C 630.007812 261.050781 627.984375 264.910156 626.441406 265.453125 C 625.285156 265.84375 622.921875 266.203125 620.238281 266.40625 C 622.5625 264.742188 624.226562 262.140625 624.484375 259.179688 L 635.308594 130.527344 C 635.496094 128.128906 634.78125 125.886719 633.253906 124.222656 C 633.050781 124.019531 632.84375 123.8125 632.625 123.625 C 635.191406 123.96875 637.453125 124.59375 638.539062 125.34375 Z M 662.382812 309.707031 C 656.84375 309.695312 651.285156 309.695312 645.730469 309.679688 L 568.878906 309.421875 C 563.78125 309.40625 558.902344 309.386719 555.332031 309.371094 L 555.332031 306.3125 C 555.332031 305.835938 554.941406 305.460938 554.484375 305.460938 L 548.539062 305.460938 L 548.539062 304.613281 C 548.539062 304.117188 549.015625 303.761719 549.691406 303.761719 L 642.003906 303.761719 C 646.851562 303.761719 650.417969 302.113281 652.085938 299.105469 C 653.730469 296.097656 653.222656 292.1875 650.640625 288.09375 L 631.859375 258.382812 C 631.976562 257.757812 632.066406 257.144531 632.132812 256.53125 L 642.972656 135.828125 C 643.414062 130.800781 641.902344 125.578125 639.507812 123.933594 C 637.261719 122.402344 631.65625 121.382812 626.730469 121.6875 L 626.640625 121.6875 L 551.933594 126.585938 C 546.855469 126.921875 542.433594 131.324219 542.078125 136.40625 L 533.578125 257.515625 C 533.410156 260.015625 534.226562 262.375 535.875 264.179688 C 537.539062 266 539.816406 267.019531 542.316406 267.050781 L 554.058594 267.253906 L 605.414062 268.121094 L 618.601562 288.992188 C 620.847656 292.546875 621.339844 295.84375 619.996094 298.289062 C 618.65625 300.71875 615.59375 302.0625 611.414062 302.0625 L 549.691406 302.0625 C 548.058594 302.0625 546.835938 303.167969 546.835938 304.613281 L 546.835938 305.460938 L 532.917969 305.460938 C 533.496094 304.59375 533.410156 303.472656 532.628906 302.402344 C 530.113281 298.949219 526.460938 295.707031 521.785156 292.746094 C 516.570312 289.417969 510.875 287.652344 505.335938 287.613281 C 502.15625 287.597656 498.539062 288.328125 495.652344 289.621094 L 493.523438 290.183594 C 492.351562 290.453125 491.214844 290.605469 490.09375 290.726562 C 489.855469 288.550781 488.578125 286.734375 487.492188 285.746094 C 487.371094 280.644531 483.941406 279.136719 482 278.691406 C 487.710938 270.515625 493.644531 261.289062 498.726562 253.421875 L 500.542969 250.597656 C 501.136719 249.699219 501.203125 248.695312 500.746094 247.777344 C 500.183594 246.691406 498.929688 245.925781 497.605469 245.871094 C 496.34375 245.804688 495.277344 246.382812 494.613281 247.4375 C 490.652344 253.742188 486.371094 260.03125 482.222656 266.101562 C 479.539062 270.042969 476.785156 274.085938 474.101562 278.167969 C 473.082031 278.335938 469.851562 278.847656 467.214844 279.101562 C 466.707031 279.152344 466.109375 279.339844 465.484375 279.59375 C 456.375 269.601562 449.609375 254.675781 443.984375 242.273438 C 442.234375 238.398438 440.570312 234.742188 439.007812 231.613281 C 431.019531 215.660156 410.25 179 387.785156 179.953125 C 387.410156 177.164062 384.945312 176.09375 382.003906 176.449219 C 380.441406 176.652344 377.824219 177.128906 376.242188 178.300781 C 375.75 178.066406 375.273438 177.777344 374.851562 177.417969 C 373.8125 176.550781 373.625 175.15625 373.664062 173.664062 C 375.429688 173.273438 377.214844 172.761719 379.066406 172.082031 C 384.132812 170.179688 388.785156 166.675781 392.542969 161.96875 C 395.890625 157.753906 398.335938 152.367188 399.628906 146.335938 C 400 144.53125 400.34375 142.78125 400.648438 141.082031 C 401.804688 140.371094 402.585938 139.417969 403.042969 138.296875 C 405.4375 136 406.121094 127.488281 406.121094 122.660156 C 406.121094 117.050781 405.203125 106.429688 401.71875 106.429688 C 401.308594 106.429688 400.917969 106.582031 400.578125 106.871094 C 399.523438 102.246094 398.300781 97.066406 396.363281 92.863281 C 396.230469 92.578125 396.09375 92.304688 395.941406 92.015625 C 396.347656 91.898438 396.738281 91.78125 397.078125 91.640625 C 403.449219 89.144531 405.289062 80.988281 402.652344 75.3125 C 401.445312 72.117188 398.761719 69.3125 395.972656 67.59375 C 390.210938 64.0625 382.464844 63.3125 375.917969 64.433594 C 374.609375 64.652344 372.046875 62.75 370.738281 62.242188 C 368.664062 61.445312 366.484375 60.96875 364.308594 60.578125 C 359.636719 59.742188 354.847656 59.914062 350.15625 60.472656 C 331.273438 62.785156 313.824219 73.40625 305.035156 90.453125 C 294.652344 110.625 301.515625 133.128906 315.488281 149.667969 C 318.617188 153.371094 322.320312 156.789062 326.804688 158.707031 C 327.113281 158.996094 327.417969 159.285156 327.742188 159.554688 C 315.078125 159.351562 302.421875 159.371094 289.863281 160.117188 C 274.871094 161.015625 260.714844 169.871094 255.652344 184.167969 C 249.734375 200.859375 249.074219 220.007812 247.78125 237.53125 C 246.539062 254.085938 246.152344 270.707031 246.050781 287.3125 C 245.949219 302.269531 245.878906 317.257812 246.726562 332.214844 C 243.601562 332.519531 241.050781 334.390625 239.332031 337.652344 C 237.636719 340.863281 236.734375 345.40625 236.734375 350.773438 C 236.734375 372.339844 250.433594 401.894531 273.050781 405.484375 C 268.125 407.859375 264.722656 412.875 264.722656 418.703125 L 264.722656 419.960938 C 264.722656 428.050781 271.285156 434.628906 279.375 434.628906 L 334.402344 434.628906 L 334.402344 509.460938 C 334.402344 510.039062 334.523438 510.582031 334.691406 511.105469 L 295.3125 511.105469 C 290.796875 511.105469 288.515625 513.113281 288.515625 517.058594 L 288.515625 521.40625 C 288.144531 521.359375 287.789062 521.289062 287.414062 521.289062 C 282.570312 521.289062 278.609375 525.234375 278.609375 530.09375 C 278.609375 534.9375 282.570312 538.898438 287.414062 538.898438 C 292.273438 538.898438 296.214844 534.9375 296.214844 530.09375 C 296.214844 526.21875 293.683594 522.972656 290.21875 521.78125 L 290.21875 517.058594 C 290.21875 514.082031 291.730469 512.804688 295.3125 512.804688 L 335.625 512.804688 C 336.898438 514.472656 339.007812 515.628906 341.199219 516.019531 L 341.199219 521.355469 C 336.628906 521.664062 332.992188 525.453125 332.992188 530.09375 C 332.992188 534.9375 336.953125 538.898438 341.792969 538.898438 C 346.65625 538.898438 350.597656 534.9375 350.597656 530.09375 C 350.597656 525.605469 347.214844 521.953125 342.898438 521.40625 L 342.898438 516.171875 C 345.382812 515.917969 347.46875 514.625 348.660156 512.804688 L 392.183594 512.804688 C 392.574219 512.804688 393.472656 512.84375 394.496094 513.027344 C 394.085938 514.914062 393.832031 516.835938 393.832031 518.769531 L 393.832031 522.328125 C 391.027344 523.785156 389.074219 526.710938 389.074219 530.09375 C 389.074219 533.578125 391.128906 536.570312 394.085938 537.992188 C 394.085938 538.421875 394.101562 538.671875 394.101562 538.671875 L 394.121094 540 L 394.953125 540 C 418.523438 540 493.910156 538.539062 494.675781 538.523438 L 495.679688 538.199219 L 495.492188 537.113281 C 495.375 536.398438 495.238281 535.664062 495.070312 534.902344 L 466.957031 534.902344 L 466.957031 538.300781 L 465.257812 538.300781 L 465.257812 534.902344 L 394 534.902344 C 394.019531 535.308594 394.019531 535.703125 394.035156 536.039062 C 392.082031 534.765625 390.773438 532.589844 390.773438 530.09375 C 390.773438 527.675781 391.996094 525.535156 393.847656 524.265625 C 393.867188 527.765625 393.914062 530.824219 393.96875 533.203125 L 465.257812 533.203125 L 465.257812 501.660156 C 464.089844 501.320312 462.933594 501.015625 461.761719 500.792969 C 462.96875 500.367188 464.136719 499.925781 465.257812 499.453125 L 465.257812 501.660156 C 465.820312 501.828125 466.382812 501.996094 466.957031 502.203125 L 466.957031 498.6875 C 467.417969 498.464844 467.894531 498.242188 468.335938 498.023438 C 468.574219 497.902344 468.726562 497.679688 468.777344 497.410156 C 469.269531 494.859375 469.761719 492.210938 470.289062 489.457031 C 472.074219 480.128906 474.03125 469.945312 475.714844 459.390625 C 476.117188 460.664062 476.527344 461.925781 476.9375 463.179688 C 479.144531 470.113281 481.351562 477.066406 483.378906 484.070312 C 484.6875 488.671875 484.652344 494.773438 489.75 496.699219 C 490.398438 496.933594 491.074219 497.15625 491.753906 497.34375 C 490.632812 502.472656 489.734375 510.039062 491.894531 516.6875 C 493.640625 522.140625 495.238281 526.847656 496.378906 530.179688 L 592.226562 499.265625 C 589.542969 494.746094 586.191406 490.070312 583.21875 487.828125 C 574.042969 480.941406 562.539062 477.59375 551.832031 478.648438 C 552.480469 478.054688 553.125 477.457031 553.753906 476.847656 C 554.414062 476.203125 556.183594 474.925781 556.183594 473.886719 C 556.183594 470.914062 554.265625 467.019531 553.464844 464.113281 C 549.792969 450.84375 546.566406 437.433594 543.351562 424.023438 C 540.410156 411.6875 537.523438 399.328125 534.429688 387.023438 C 531.828125 376.691406 529.808594 365.644531 525.304688 355.921875 C 519.695312 343.855469 508.820312 335.253906 497.109375 329.511719 C 487.832031 324.976562 477.480469 321.796875 466.960938 319.925781 L 466.960938 319.605469 C 496.515625 319.652344 526.070312 319.6875 555.621094 319.738281 C 582.152344 319.789062 608.679688 319.828125 635.207031 319.875 L 635.207031 538.300781 L 636.90625 538.300781 L 636.90625 319.875 C 645.386719 319.875 653.882812 319.894531 662.382812 319.910156 C 662.859375 319.910156 663.234375 319.519531 663.234375 319.058594 L 663.234375 310.558594 C 663.234375 310.101562 662.859375 309.707031 662.382812 309.707031 "/>
</g>
<path style=" stroke:none;fill-rule:nonzero;fill:rgb(6.269836%,5.879211%,5.099487%);fill-opacity:1;" d="M 567.519531 162.226562 C 567.605469 160.78125 568.878906 159.488281 570.324219 159.40625 L 581.949219 158.636719 C 582.558594 158.636719 583.101562 158.875 583.492188 159.285156 C 583.882812 159.707031 584.070312 160.289062 584.023438 160.898438 L 581.980469 187.804688 C 581.882812 189.214844 580.585938 190.453125 579.164062 190.503906 L 568.21875 190.8125 L 568.148438 191.664062 L 568.148438 190.8125 C 567.5 190.8125 566.921875 190.574219 566.5 190.132812 C 566.074219 189.671875 565.871094 189.078125 565.902344 188.414062 Z M 568.148438 192.511719 C 568.164062 192.511719 568.265625 192.511719 568.265625 192.511719 L 579.210938 192.203125 C 581.507812 192.136719 583.511719 190.214844 583.679688 187.921875 L 585.722656 161.035156 C 585.808594 159.929688 585.445312 158.894531 584.734375 158.128906 C 583.96875 157.296875 582.863281 156.871094 581.675781 156.957031 L 570.203125 157.703125 C 567.929688 157.855469 565.957031 159.828125 565.820312 162.125 L 564.203125 188.3125 C 564.136719 189.429688 564.511719 190.488281 565.257812 191.289062 C 566.007812 192.085938 567.023438 192.511719 568.148438 192.511719 "/>
<path style=" stroke:none;fill-rule:nonzero;fill:rgb(6.269836%,5.879211%,5.099487%);fill-opacity:1;" d="M 578.582031 230.867188 C 578.480469 232.296875 577.222656 233.453125 575.796875 233.453125 L 575.796875 234.300781 L 575.777344 233.453125 L 564.847656 233.417969 C 564.191406 233.417969 563.574219 233.144531 563.136719 232.667969 C 562.691406 232.210938 562.472656 231.582031 562.507812 230.902344 L 564.121094 204.710938 C 564.203125 203.269531 565.480469 201.992188 566.921875 201.890625 L 578.546875 201.128906 C 579.160156 201.128906 579.703125 201.367188 580.097656 201.773438 C 580.484375 202.195312 580.671875 202.777344 580.621094 203.40625 Z M 582.320312 203.523438 C 582.40625 202.417969 582.050781 201.382812 581.332031 200.617188 C 580.570312 199.785156 579.464844 199.359375 578.273438 199.445312 L 566.804688 200.195312 C 564.527344 200.34375 562.554688 202.316406 562.417969 204.609375 L 560.808594 230.800781 C 560.734375 231.941406 561.128906 233.027344 561.894531 233.84375 C 562.660156 234.660156 563.710938 235.101562 564.847656 235.117188 L 575.777344 235.152344 C 575.777344 235.152344 575.777344 235.152344 575.796875 235.152344 C 578.089844 235.152344 580.09375 233.285156 580.28125 230.988281 L 582.320312 203.523438 "/>
<path style=" stroke:none;fill-rule:nonzero;fill:rgb(6.269836%,5.879211%,5.099487%);fill-opacity:1;" d="M 591.3125 160.628906 C 591.398438 159.199219 592.667969 157.910156 594.117188 157.824219 L 605.742188 157.058594 C 606.351562 157.058594 606.894531 157.296875 607.285156 157.703125 C 607.675781 158.128906 607.863281 158.6875 607.816406 159.320312 L 605.757812 187.804688 C 605.65625 189.214844 604.378906 190.402344 602.96875 190.402344 L 592.042969 190.382812 C 591.378906 190.382812 590.769531 190.113281 590.324219 189.65625 C 589.882812 189.179688 589.660156 188.550781 589.695312 187.890625 Z M 592.042969 192.085938 L 602.96875 192.101562 C 604.125 192.101562 605.199219 191.625 606.011719 190.878906 C 606.828125 190.132812 607.371094 189.074219 607.453125 187.9375 L 609.511719 159.453125 C 609.597656 158.347656 609.238281 157.3125 608.527344 156.546875 C 607.761719 155.714844 606.675781 155.292969 605.46875 155.375 L 593.996094 156.125 C 591.71875 156.273438 589.75 158.246094 589.613281 160.542969 L 587.996094 187.785156 C 587.929688 188.925781 588.320312 189.992188 589.085938 190.8125 C 589.847656 191.628906 590.902344 192.085938 592.042969 192.085938 "/>
<path style=" stroke:none;fill-rule:nonzero;fill:rgb(6.269836%,5.879211%,5.099487%);fill-opacity:1;" d="M 587.910156 203.015625 C 587.996094 201.585938 589.289062 200.296875 590.714844 200.195312 L 602.339844 199.445312 C 602.949219 199.445312 603.511719 199.664062 603.886719 200.074219 C 604.277344 200.496094 604.480469 201.074219 604.433594 201.703125 L 602.359375 231.753906 C 602.257812 233.109375 601.082031 234.21875 599.722656 234.21875 L 599.722656 235.066406 L 599.605469 234.203125 L 588.679688 233.707031 C 588.015625 233.691406 587.386719 233.386719 586.929688 232.890625 C 586.484375 232.378906 586.25 231.734375 586.296875 231.070312 Z M 585.667969 234.03125 C 586.433594 234.863281 587.472656 235.355469 588.609375 235.40625 L 599.535156 235.902344 C 599.554688 235.902344 599.707031 235.917969 599.722656 235.917969 C 602.003906 235.917969 603.886719 234.132812 604.058594 231.875 L 606.132812 201.824219 C 606.199219 200.71875 605.859375 199.683594 605.144531 198.917969 C 604.363281 198.085938 603.257812 197.675781 602.070312 197.746094 L 590.597656 198.496094 C 588.324219 198.644531 586.351562 200.636719 586.214844 202.914062 L 584.601562 230.972656 C 584.53125 232.09375 584.921875 233.183594 585.667969 234.03125 "/>
<path style=" stroke:none;fill-rule:nonzero;fill:rgb(6.269836%,5.879211%,5.099487%);fill-opacity:1;" d="M 572.566406 222.511719 C 570.976562 222.617188 569.378906 222.71875 567.789062 222.726562 C 566.695312 222.734375 566.691406 224.433594 567.789062 224.425781 C 569.382812 224.417969 570.976562 224.320312 572.566406 224.210938 C 573.652344 224.136719 573.660156 222.433594 572.566406 222.511719 "/>
<path style=" stroke:none;fill-rule:nonzero;fill:rgb(6.269836%,5.879211%,5.099487%);fill-opacity:1;" d="M 575.5 217.40625 C 572.355469 217.625 569.203125 217.824219 566.054688 217.839844 C 564.953125 217.84375 564.953125 219.546875 566.054688 219.539062 C 569.203125 219.523438 572.355469 219.324219 575.5 219.105469 C 576.585938 219.035156 576.59375 217.332031 575.5 217.40625 "/>
<path style=" stroke:none;fill-rule:nonzero;fill:rgb(6.269836%,5.879211%,5.099487%);fill-opacity:1;" d="M 576.042969 212.847656 C 573.367188 212.902344 570.683594 212.953125 568.007812 212.953125 C 566.910156 212.957031 566.910156 214.65625 568.007812 214.652344 C 570.683594 214.648438 573.367188 214.601562 576.042969 214.546875 C 577.136719 214.527344 577.136719 212.824219 576.042969 212.847656 "/>
<path style=" stroke:none;fill-rule:nonzero;fill:rgb(6.269836%,5.879211%,5.099487%);fill-opacity:1;" d="M 599.757812 183.421875 C 598.171875 183.527344 596.574219 183.628906 594.980469 183.636719 C 593.886719 183.644531 593.882812 185.34375 594.980469 185.339844 C 596.578125 185.328125 598.171875 185.230469 599.757812 185.121094 C 600.84375 185.046875 600.851562 183.34375 599.757812 183.421875 "/>
<path style=" stroke:none;fill-rule:nonzero;fill:rgb(6.269836%,5.879211%,5.099487%);fill-opacity:1;" d="M 593.242188 180.449219 C 596.394531 180.433594 599.546875 180.234375 602.6875 180.015625 C 603.777344 179.941406 603.785156 178.246094 602.6875 178.316406 C 599.546875 178.535156 596.394531 178.734375 593.242188 178.75 C 592.148438 178.757812 592.148438 180.457031 593.242188 180.449219 "/>
<path style=" stroke:none;fill-rule:nonzero;fill:rgb(6.269836%,5.879211%,5.099487%);fill-opacity:1;" d="M 595.195312 175.566406 C 597.878906 175.5625 600.554688 175.511719 603.230469 175.457031 C 604.328125 175.4375 604.328125 173.738281 603.230469 173.757812 C 600.554688 173.8125 597.878906 173.863281 595.195312 173.863281 C 594.101562 173.867188 594.101562 175.566406 595.195312 175.566406 "/>
<path style=" stroke:none;fill-rule:nonzero;fill:rgb(6.269836%,5.879211%,5.099487%);fill-opacity:1;" d="M 603.570312 134.457031 C 603.589844 134.457031 603.605469 134.457031 603.625 134.453125 L 607.019531 134.230469 C 607.488281 134.199219 607.839844 133.796875 607.8125 133.328125 C 607.78125 132.859375 607.351562 132.519531 606.90625 132.535156 L 603.515625 132.757812 C 603.046875 132.789062 602.691406 133.191406 602.722656 133.660156 C 602.753906 134.109375 603.128906 134.457031 603.570312 134.457031 "/>
<path style=" stroke:none;fill-rule:nonzero;fill:rgb(6.269836%,5.879211%,5.099487%);fill-opacity:1;" d="M 610.351562 134.011719 C 610.371094 134.011719 610.390625 134.011719 610.410156 134.011719 L 613.804688 133.785156 C 614.273438 133.753906 614.625 133.355469 614.59375 132.886719 C 614.5625 132.417969 614.105469 132.078125 613.691406 132.089844 L 610.296875 132.3125 C 609.828125 132.339844 609.476562 132.746094 609.503906 133.214844 C 609.535156 133.664062 609.90625 134.011719 610.351562 134.011719 "/>
<path style=" stroke:none;fill-rule:nonzero;fill:rgb(6.269836%,5.879211%,5.099487%);fill-opacity:1;" d="M 617.132812 133.566406 C 617.15625 133.566406 617.175781 133.5625 617.191406 133.5625 L 619.910156 133.382812 C 620.378906 133.355469 620.738281 132.949219 620.707031 132.484375 C 620.671875 132.011719 620.277344 131.671875 619.800781 131.6875 L 617.082031 131.867188 C 616.613281 131.898438 616.257812 132.304688 616.289062 132.773438 C 616.320312 133.222656 616.691406 133.566406 617.132812 133.566406 "/>
<path style=" stroke:none;fill-rule:nonzero;fill:rgb(6.269836%,5.879211%,5.099487%);fill-opacity:1;" d="M 609.886719 261.414062 L 609.886719 262.261719 L 609.75 261.414062 L 577.886719 260.863281 C 581.265625 251.6875 591.871094 252.0625 599.789062 248.917969 C 602.40625 247.863281 604.332031 246.367188 605.824219 244.363281 L 605.164062 252.964844 C 605.097656 254.101562 605.46875 255.207031 606.199219 256.019531 C 606.964844 256.855469 608.015625 257.367188 609.136719 257.382812 L 616.820312 257.484375 C 615.339844 259.816406 612.742188 261.414062 609.886719 261.414062 Z M 547.808594 260.339844 C 545.78125 260.304688 543.929688 259.488281 542.585938 258.027344 C 541.261719 256.566406 540.597656 254.648438 540.734375 252.640625 L 545.679688 182.210938 C 545.714844 182.210938 545.765625 182.226562 545.800781 182.210938 C 546.378906 182.074219 546.902344 181.90625 547.445312 181.71875 L 544.539062 219.3125 C 544.457031 220.519531 544.863281 221.726562 545.699219 222.609375 C 546.445312 223.425781 547.464844 223.882812 548.535156 223.882812 L 552.527344 223.882812 C 554.789062 223.882812 556.847656 221.859375 557.03125 219.449219 L 561.929688 156.15625 C 563.285156 155.628906 565.207031 155.664062 566.480469 155.203125 C 568.402344 154.492188 569.320312 152.402344 569.726562 150.582031 C 570.441406 147.4375 570.339844 144.6875 574.058594 143.324219 C 575.742188 142.714844 577.832031 142.832031 579.617188 142.5625 C 584.800781 141.765625 589.847656 136.289062 588.761719 130.988281 L 621.171875 128.859375 C 621.339844 128.859375 621.507812 128.847656 621.679688 128.847656 C 623.546875 128.847656 625.230469 129.5625 626.421875 130.851562 C 627.628906 132.15625 628.1875 133.941406 628.039062 135.867188 L 627.574219 141.40625 L 617.75 142.082031 C 615.460938 142.238281 613.488281 144.226562 613.320312 146.484375 L 606.128906 240.492188 C 606.011719 240.78125 605.890625 241.082031 605.757812 241.371094 C 604.226562 244.855469 601.167969 246.640625 597.75 247.882812 C 589.253906 250.941406 579.347656 250.925781 576.097656 260.835938 Z M 560.992188 146.179688 L 555.332031 219.3125 C 555.214844 220.828125 553.890625 222.183594 552.53125 222.183594 L 548.539062 222.183594 C 547.941406 222.183594 547.378906 221.929688 546.941406 221.453125 C 546.445312 220.925781 546.175781 220.175781 546.242188 219.449219 L 551.886719 146.316406 C 552.003906 144.800781 553.378906 144.003906 554.6875 144.003906 L 558.699219 144.003906 C 559.445312 144.003906 560.09375 144.257812 560.519531 144.703125 C 560.875 145.078125 561.027344 145.605469 560.992188 146.179688 Z M 548.535156 141.335938 C 548.839844 137.070312 552.566406 133.363281 556.828125 133.09375 L 587.078125 131.105469 C 587.078125 131.140625 587.058594 131.175781 587.078125 131.207031 C 588.25 136.070312 583.324219 139.824219 579.175781 140.914062 C 576.40625 141.644531 573.941406 141.234375 571.375 142.730469 C 569.472656 143.835938 568.761719 146.027344 568.386719 148.035156 C 567.941406 150.414062 568.246094 152.757812 565.125 153.878906 C 564.171875 154.238281 563.082031 154.304688 562.042969 154.492188 L 562.675781 146.316406 C 562.761719 145.265625 562.433594 144.277344 561.757812 143.546875 C 561.023438 142.746094 559.921875 142.304688 558.695312 142.304688 L 554.6875 142.304688 C 553.5 142.304688 552.410156 142.714844 551.59375 143.410156 C 550.796875 144.109375 550.265625 145.078125 550.183594 146.183594 L 547.582031 179.867188 C 547.023438 180.089844 546.425781 180.273438 545.800781 180.445312 Z M 625.144531 170.230469 L 616.089844 170.554688 L 616.15625 172.253906 L 624.996094 171.929688 L 622.855469 197.523438 L 612.558594 197.421875 L 612.539062 199.121094 L 622.703125 199.222656 L 620.136719 229.816406 L 610.855469 229.714844 L 610.839844 231.414062 L 619.984375 231.5 L 618.113281 253.863281 C 618.0625 254.492188 617.910156 255.089844 617.707031 255.667969 L 609.15625 255.582031 C 608.492188 255.5625 607.882812 255.3125 607.457031 254.832031 C 607.015625 254.359375 606.8125 253.730469 606.863281 253.066406 L 615.003906 146.605469 C 615.105469 145.175781 616.414062 143.867188 617.855469 143.765625 L 627.425781 143.105469 Z M 619.796875 254.003906 L 629.734375 136 C 629.941406 133.605469 629.210938 131.363281 627.679688 129.699219 C 626.03125 127.925781 623.6875 127.007812 621.070312 127.179688 L 556.707031 131.394531 C 551.628906 131.71875 547.210938 136.136719 546.855469 141.222656 L 539.035156 252.523438 C 538.867188 255.003906 539.679688 257.367188 541.347656 259.183594 C 542.996094 260.988281 545.289062 262.003906 547.789062 262.042969 L 609.734375 263.109375 L 609.886719 263.109375 C 614.933594 263.109375 619.367188 259.011719 619.796875 254.003906 "/>
<path style=" stroke:none;fill-rule:nonzero;fill:rgb(6.269836%,5.879211%,5.099487%);fill-opacity:1;" d="M 555.667969 149.605469 C 554.53125 149.605469 553.613281 150.527344 553.613281 151.660156 C 553.613281 152.796875 554.53125 153.71875 555.667969 153.71875 C 556.800781 153.71875 557.726562 152.796875 557.726562 151.660156 C 557.726562 150.527344 556.800781 149.605469 555.667969 149.605469 "/>
<path style=" stroke:none;fill-rule:nonzero;fill:rgb(6.269836%,5.879211%,5.099487%);fill-opacity:1;" d="M 555.144531 156.386719 C 554.007812 156.386719 553.089844 157.304688 553.089844 158.441406 C 553.089844 159.578125 554.007812 160.496094 555.144531 160.496094 C 556.28125 160.496094 557.199219 159.578125 557.199219 158.441406 C 557.199219 157.304688 556.28125 156.386719 555.144531 156.386719 "/>
<path style=" stroke:none;fill-rule:nonzero;fill:rgb(6.269836%,5.879211%,5.099487%);fill-opacity:1;" d="M 554.625 163.164062 C 553.488281 163.164062 552.570312 164.085938 552.570312 165.222656 C 552.570312 166.355469 553.488281 167.277344 554.625 167.277344 C 555.761719 167.277344 556.679688 166.355469 556.679688 165.222656 C 556.679688 164.085938 555.761719 163.164062 554.625 163.164062 "/>
<path style=" stroke:none;fill-rule:nonzero;fill:rgb(6.269836%,5.879211%,5.099487%);fill-opacity:1;" d="M 554.101562 169.941406 C 552.964844 169.941406 552.042969 170.859375 552.042969 171.996094 C 552.042969 173.132812 552.964844 174.050781 554.101562 174.050781 C 555.234375 174.050781 556.15625 173.132812 556.15625 171.996094 C 556.15625 170.859375 555.234375 169.941406 554.101562 169.941406 "/>
<path style=" stroke:none;fill-rule:nonzero;fill:rgb(6.269836%,5.879211%,5.099487%);fill-opacity:1;" d="M 553.582031 176.722656 C 552.445312 176.722656 551.523438 177.640625 551.523438 178.777344 C 551.523438 179.914062 552.445312 180.832031 553.582031 180.832031 C 554.714844 180.832031 555.636719 179.914062 555.636719 178.777344 C 555.636719 177.640625 554.714844 176.722656 553.582031 176.722656 "/>
<path style=" stroke:none;fill-rule:nonzero;fill:rgb(6.269836%,5.879211%,5.099487%);fill-opacity:1;" d="M 553.054688 183.5 C 551.925781 183.5 551 184.417969 551 185.554688 C 551 186.691406 551.925781 187.613281 553.054688 187.613281 C 554.191406 187.613281 555.113281 186.691406 555.113281 185.554688 C 555.113281 184.417969 554.191406 183.5 553.054688 183.5 "/>
<path style=" stroke:none;fill-rule:nonzero;fill:rgb(6.269836%,5.879211%,5.099487%);fill-opacity:1;" d="M 552.535156 190.273438 C 551.402344 190.273438 550.480469 191.195312 550.480469 192.328125 C 550.480469 193.464844 551.402344 194.390625 552.535156 194.390625 C 553.671875 194.390625 554.59375 193.464844 554.59375 192.328125 C 554.59375 191.195312 553.671875 190.273438 552.535156 190.273438 "/>
<path style=" stroke:none;fill-rule:nonzero;fill:rgb(6.269836%,5.879211%,5.099487%);fill-opacity:1;" d="M 552.015625 197.054688 C 550.878906 197.054688 549.960938 197.972656 549.960938 199.109375 C 549.960938 200.246094 550.878906 201.164062 552.015625 201.164062 C 553.148438 201.164062 554.070312 200.246094 554.070312 199.109375 C 554.070312 197.972656 553.148438 197.054688 552.015625 197.054688 "/>
<path style=" stroke:none;fill-rule:nonzero;fill:rgb(6.269836%,5.879211%,5.099487%);fill-opacity:1;" d="M 551.492188 203.832031 C 550.355469 203.832031 549.4375 204.753906 549.4375 205.890625 C 549.4375 207.023438 550.355469 207.945312 551.492188 207.945312 C 552.628906 207.945312 553.546875 207.023438 553.546875 205.890625 C 553.546875 204.753906 552.628906 203.832031 551.492188 203.832031 "/>
<path style=" stroke:none;fill-rule:nonzero;fill:rgb(6.269836%,5.879211%,5.099487%);fill-opacity:1;" d="M 550.972656 210.609375 C 549.835938 210.609375 548.914062 211.53125 548.914062 212.667969 C 548.914062 213.800781 549.835938 214.726562 550.972656 214.726562 C 552.109375 214.726562 553.027344 213.800781 553.027344 212.667969 C 553.027344 211.53125 552.109375 210.609375 550.972656 210.609375 "/>
</g>
</svg>
