<?xml version="1.0" encoding="UTF-8"?>
<svg xmlns="http://www.w3.org/2000/svg" xmlns:xlink="http://www.w3.org/1999/xlink" width="900pt" height="599.999999pt" viewBox="0 0 900 599.999999" version="1.2">
<defs>
<clipPath id="clip1">
  <path d="M 298.144531 60 L 601.894531 60 L 601.894531 540 L 298.144531 540 Z M 298.144531 60 "/>
</clipPath>
</defs>
<g id="surface1">
<path style=" stroke:none;fill-rule:evenodd;fill:rgb(100%,100%,100%);fill-opacity:1;" d="M 458.957031 142.371094 C 459.390625 141.777344 460.015625 141.386719 460.828125 141.191406 L 460.972656 141.179688 C 462.417969 141.179688 463.6875 141.09375 464.777344 140.914062 C 465.886719 140.738281 466.8125 140.464844 467.5625 140.097656 C 468.21875 139.785156 468.734375 139.390625 469.105469 138.925781 C 469.484375 138.449219 469.710938 137.898438 469.792969 137.273438 L 469.792969 137.199219 C 469.421875 134.175781 469.300781 131.78125 469.429688 130.023438 C 469.554688 128.332031 469.898438 127.25 470.464844 126.789062 L 470.53125 126.742188 L 470.597656 126.703125 C 471.367188 126.320312 472 125.933594 472.480469 125.542969 C 472.984375 125.140625 473.332031 124.726562 473.53125 124.304688 C 473.695312 123.957031 473.742188 123.585938 473.667969 123.191406 C 473.597656 122.820312 473.421875 122.433594 473.136719 122.035156 C 473.113281 122 473.078125 121.972656 473.042969 121.949219 C 472.300781 121.457031 471.644531 120.972656 471.066406 120.492188 C 470.496094 120.015625 470.015625 119.546875 469.625 119.085938 C 469.1875 118.570312 468.863281 118.066406 468.636719 117.566406 C 468.417969 117.074219 468.296875 116.585938 468.277344 116.101562 L 468.277344 116.003906 C 468.335938 115.441406 468.371094 114.929688 468.378906 114.453125 C 468.386719 113.972656 468.375 113.535156 468.335938 113.140625 C 468.308594 112.882812 468.273438 112.679688 468.230469 112.425781 C 468.199219 112.257812 468.035156 112.15625 467.875 112.1875 C 467.839844 112.191406 467.808594 112.207031 467.785156 112.222656 C 467.097656 112.597656 466.414062 112.886719 465.738281 113.128906 C 465.046875 113.378906 464.382812 113.570312 463.734375 113.757812 C 462.851562 114.015625 462.011719 114.257812 461.246094 114.609375 C 460.460938 114.976562 459.761719 115.457031 459.1875 116.175781 C 458.835938 116.613281 458.535156 117.117188 458.292969 117.683594 C 458.050781 118.246094 457.855469 118.871094 457.710938 119.5625 C 457.570312 120.265625 457.480469 121.042969 457.445312 121.882812 C 457.40625 122.71875 457.425781 123.621094 457.503906 124.589844 L 457.503906 124.613281 C 457.511719 124.753906 457.472656 124.898438 457.394531 125.007812 L 457.382812 125.027344 C 457.300781 125.128906 457.1875 125.214844 457.046875 125.25 C 456.699219 125.339844 456.359375 125.410156 456.023438 125.464844 C 455.691406 125.511719 455.347656 125.550781 455 125.566406 C 454.660156 125.585938 454.324219 125.59375 453.996094 125.582031 C 453.65625 125.566406 453.320312 125.539062 452.988281 125.496094 L 452.96875 125.492188 C 452.835938 125.484375 452.707031 125.429688 452.605469 125.34375 C 452.511719 125.257812 452.441406 125.140625 452.417969 125.007812 C 452.269531 124.253906 452.019531 123.585938 451.703125 123 C 451.355469 122.367188 450.925781 121.835938 450.445312 121.410156 C 449.945312 120.96875 449.398438 120.640625 448.832031 120.4375 C 448.257812 120.226562 447.664062 120.144531 447.097656 120.199219 C 446.320312 120.273438 445.660156 120.613281 445.140625 121.125 C 444.589844 121.667969 444.195312 122.410156 443.980469 123.234375 C 443.890625 123.597656 443.828125 123.976562 443.808594 124.359375 C 443.789062 124.742188 443.800781 125.125 443.851562 125.515625 C 443.902344 125.910156 444 126.300781 444.132812 126.6875 C 444.261719 127.058594 444.425781 127.417969 444.636719 127.765625 C 445.25 128.789062 446.234375 129.664062 447.632812 130.183594 C 448.832031 130.628906 450.339844 130.808594 452.183594 130.601562 C 452.355469 130.582031 452.511719 130.632812 452.628906 130.734375 C 452.753906 130.828125 452.839844 130.972656 452.859375 131.136719 C 452.871094 131.304688 452.824219 131.464844 452.726562 131.585938 C 452.628906 131.707031 452.484375 131.789062 452.320312 131.808594 C 451.929688 131.851562 451.558594 131.878906 451.203125 131.894531 C 450.832031 131.910156 450.476562 131.910156 450.132812 131.890625 C 449.976562 131.882812 449.835938 132.003906 449.816406 132.160156 C 449.714844 133.097656 449.53125 133.949219 449.289062 134.707031 C 449.046875 135.457031 448.734375 136.121094 448.359375 136.699219 C 447.957031 137.3125 447.488281 137.820312 446.949219 138.234375 C 446.40625 138.648438 445.792969 138.957031 445.113281 139.171875 C 444.992188 139.210938 444.917969 139.308594 444.898438 139.417969 C 444.679688 140.898438 444.195312 142.191406 443.503906 143.308594 C 442.761719 144.519531 441.773438 145.527344 440.621094 146.34375 C 440.515625 146.421875 440.472656 146.550781 440.503906 146.667969 L 441.144531 149.1875 C 441.179688 149.335938 441.316406 149.429688 441.464844 149.421875 C 445.179688 149.234375 448.429688 149.25 451.207031 149.460938 C 453.972656 149.667969 456.265625 150.074219 458.085938 150.671875 C 458.292969 150.734375 458.5 150.816406 458.707031 150.886719 C 458.863281 150.945312 459.035156 150.863281 459.089844 150.707031 C 459.117188 150.644531 459.117188 150.578125 459.101562 150.515625 C 458.753906 149.34375 458.507812 148.285156 458.355469 147.339844 C 458.207031 146.402344 458.152344 145.574219 458.195312 144.855469 C 458.257812 143.808594 458.515625 142.980469 458.957031 142.371094 Z M 389.855469 132.710938 C 398.3125 132.800781 403.539062 132.878906 405.472656 132.90625 C 405.640625 132.90625 405.773438 132.785156 405.785156 132.621094 C 405.8125 132.210938 405.84375 131.652344 405.886719 130.941406 C 405.917969 130.417969 405.949219 129.804688 405.984375 129.113281 C 405.988281 128.941406 405.859375 128.800781 405.691406 128.792969 L 354.851562 128.207031 C 354.683594 128.203125 354.546875 128.339844 354.539062 128.507812 L 354.492188 132.085938 C 354.492188 132.253906 354.625 132.390625 354.796875 132.394531 C 369.683594 132.503906 381.390625 132.617188 389.855469 132.710938 Z M 354.851562 138.785156 C 354.683594 138.78125 354.546875 138.917969 354.539062 139.085938 L 354.492188 142.667969 C 354.492188 142.835938 354.625 142.972656 354.796875 142.972656 C 369.683594 143.082031 381.390625 143.195312 389.855469 143.289062 C 398.3125 143.382812 403.539062 143.457031 405.472656 143.484375 C 405.640625 143.484375 405.773438 143.363281 405.785156 143.199219 C 405.8125 142.792969 405.84375 142.230469 405.886719 141.519531 C 405.917969 140.996094 405.949219 140.382812 405.984375 139.691406 C 405.988281 139.523438 405.859375 139.378906 405.691406 139.371094 Z M 369.019531 153.359375 C 368.820312 152.835938 368.5 152.398438 368.113281 152.058594 C 367.738281 151.722656 367.292969 151.476562 366.8125 151.328125 C 366.332031 151.183594 365.820312 151.128906 365.320312 151.191406 C 364.617188 151.265625 363.921875 151.566406 363.339844 152.117188 C 362.820312 152.597656 362.386719 153.273438 362.105469 154.160156 C 362.054688 154.320312 361.945312 154.445312 361.804688 154.515625 L 361.792969 154.527344 C 361.660156 154.585938 361.496094 154.605469 361.34375 154.554688 C 361.25 154.527344 361.164062 154.472656 361.097656 154.40625 L 361.082031 154.390625 C 361.019531 154.324219 360.972656 154.246094 360.949219 154.160156 C 360.664062 153.269531 360.226562 152.59375 359.703125 152.113281 C 359.109375 151.5625 358.402344 151.265625 357.691406 151.1875 C 357.175781 151.128906 356.652344 151.183594 356.167969 151.332031 C 355.679688 151.484375 355.222656 151.738281 354.835938 152.070312 C 354.4375 152.417969 354.117188 152.859375 353.914062 153.386719 C 353.722656 153.867188 353.632812 154.421875 353.675781 155.023438 C 353.765625 156.28125 354.398438 157.773438 355.816406 159.417969 C 357.015625 160.808594 358.78125 162.320312 361.269531 163.910156 C 361.371094 163.976562 361.5 163.972656 361.601562 163.90625 C 364.097656 162.3125 365.875 160.792969 367.078125 159.394531 C 368.511719 157.742188 369.148438 156.242188 369.238281 154.980469 C 369.285156 154.378906 369.199219 153.835938 369.019531 153.359375 Z M 491.640625 142.640625 C 491.640625 142.808594 491.773438 142.945312 491.945312 142.945312 L 546.191406 142.945312 C 546.355469 142.945312 546.496094 142.808594 546.496094 142.640625 L 546.484375 142.566406 C 546.089844 140.1875 545.332031 137.664062 544.167969 135 C 543.050781 132.4375 541.550781 129.746094 539.648438 126.914062 C 539.242188 126.320312 538.753906 125.667969 538.238281 124.988281 L 538.230469 124.972656 C 537.289062 123.722656 536.265625 122.367188 535.496094 120.972656 C 534.738281 119.609375 534.222656 118.199219 534.273438 116.8125 C 534.273438 116.726562 534.238281 116.644531 534.1875 116.585938 C 532.792969 115.175781 531.496094 113.691406 530.316406 112.140625 C 529.136719 110.589844 528.058594 108.972656 527.085938 107.285156 C 526.082031 105.539062 525.195312 103.71875 524.417969 101.824219 C 523.640625 99.941406 522.980469 97.976562 522.4375 95.941406 C 522.308594 95.464844 522.121094 94.679688 521.90625 93.683594 C 521.730469 92.890625 521.542969 91.972656 521.363281 90.992188 C 521.335938 90.851562 521.207031 90.746094 521.0625 90.746094 L 491.945312 90.746094 C 491.773438 90.746094 491.640625 90.878906 491.640625 91.050781 Z M 491.945312 151.402344 C 491.773438 151.402344 491.640625 151.539062 491.640625 151.703125 L 491.640625 172.796875 C 491.640625 172.957031 491.765625 173.089844 491.921875 173.097656 C 495.726562 173.542969 499.671875 173.707031 503.625 173.59375 C 507.550781 173.484375 511.484375 173.097656 515.292969 172.4375 L 515.320312 172.433594 C 518.441406 171.886719 521.480469 171.148438 524.367188 170.226562 C 527.148438 169.328125 529.785156 168.257812 532.207031 167.007812 C 534.703125 165.710938 536.980469 164.222656 538.945312 162.550781 C 540.824219 160.941406 542.425781 159.160156 543.683594 157.199219 C 544.226562 156.355469 544.699219 155.476562 545.109375 154.5625 C 545.511719 153.675781 545.84375 152.746094 546.109375 151.785156 C 546.152344 151.625 546.058594 151.457031 545.894531 151.410156 C 545.867188 151.40625 545.84375 151.402344 545.816406 151.402344 Z M 577.640625 123.453125 C 581.90625 129.636719 585.070312 136.128906 587.226562 142.734375 C 587.269531 142.863281 587.390625 142.945312 587.519531 142.945312 L 593.652344 142.945312 C 593.816406 142.945312 593.957031 142.808594 593.957031 142.640625 L 593.957031 91.050781 C 593.957031 90.878906 593.816406 90.746094 593.652344 90.746094 L 551.375 90.746094 C 551.210938 90.746094 551.070312 90.878906 551.070312 91.050781 C 551.070312 91.082031 551.078125 91.113281 551.085938 91.140625 C 551.496094 92.773438 551.847656 94.484375 552.15625 96.226562 C 552.476562 97.988281 552.757812 99.773438 553.03125 101.535156 L 553.367188 103.59375 C 553.382812 103.746094 553.523438 103.855469 553.675781 103.851562 C 554.066406 103.835938 554.449219 103.832031 554.832031 103.84375 C 555.203125 103.855469 555.574219 103.878906 555.9375 103.921875 C 556.601562 103.988281 557.246094 104.101562 557.871094 104.269531 C 558.476562 104.421875 559.054688 104.625 559.617188 104.878906 L 559.632812 104.882812 C 560.167969 105.125 560.679688 105.410156 561.160156 105.742188 C 561.628906 106.066406 562.078125 106.4375 562.484375 106.855469 L 562.511719 106.875 C 568.589844 112.023438 573.609375 117.601562 577.640625 123.453125 Z M 546.898438 83.925781 L 546.902344 83.929688 Z M 547.042969 105.15625 C 548.636719 104.605469 550.273438 104.207031 551.878906 103.996094 C 552.046875 103.976562 552.160156 103.828125 552.140625 103.660156 C 552.050781 103.023438 551.953125 102.308594 551.828125 101.679688 C 551.21875 97.828125 550.589844 93.847656 549.648438 90.414062 L 549.609375 90.300781 L 549.582031 90.179688 C 549.246094 88.96875 548.859375 87.820312 548.425781 86.777344 C 547.988281 85.734375 547.492188 84.78125 546.933594 83.96875 L 546.851562 83.863281 L 546.78125 83.753906 C 546.34375 83.144531 545.863281 82.617188 545.339844 82.183594 C 544.808594 81.746094 544.234375 81.398438 543.601562 81.160156 C 542.71875 80.828125 541.660156 80.734375 540.464844 80.90625 C 539.328125 81.066406 538.074219 81.460938 536.722656 82.113281 C 535.398438 82.75 534.003906 83.625 532.5625 84.761719 C 531.207031 85.824219 529.808594 87.117188 528.390625 88.648438 L 528.382812 88.664062 C 528.339844 88.710938 528.289062 88.753906 528.238281 88.785156 C 528.1875 88.820312 528.128906 88.84375 528.0625 88.863281 C 527.902344 88.902344 527.734375 88.871094 527.601562 88.796875 C 527.46875 88.714844 527.363281 88.582031 527.324219 88.421875 C 526.902344 86.769531 526.484375 85.285156 526.074219 83.992188 C 525.667969 82.710938 525.269531 81.609375 524.875 80.691406 C 524.632812 80.125 524.394531 79.628906 524.15625 79.210938 C 523.921875 78.792969 523.691406 78.449219 523.460938 78.195312 C 523.324219 78.03125 523.195312 77.914062 523.085938 77.832031 C 522.917969 77.714844 522.761719 77.671875 522.613281 77.707031 L 522.527344 77.738281 C 522.089844 77.9375 521.816406 78.511719 521.675781 79.355469 C 521.523438 80.226562 521.496094 81.414062 521.550781 82.746094 C 521.558594 83.007812 521.59375 83.289062 521.59375 83.550781 C 521.652344 84.5 521.753906 85.515625 521.886719 86.527344 C 522.035156 87.703125 522.214844 88.867188 522.410156 89.953125 C 522.417969 90.003906 522.429688 90.050781 522.433594 90.105469 C 522.625 91.179688 522.828125 92.191406 523.015625 93.070312 C 523.257812 94.203125 523.472656 95.101562 523.613281 95.625 C 524.140625 97.609375 524.789062 99.523438 525.546875 101.371094 C 526.300781 103.210938 527.167969 104.980469 528.144531 106.679688 C 528.992188 108.15625 529.917969 109.570312 530.929688 110.9375 C 531.941406 112.296875 533.035156 113.609375 534.21875 114.875 C 534.332031 114.996094 534.527344 115.003906 534.648438 114.890625 C 534.679688 114.855469 534.703125 114.824219 534.722656 114.78125 C 535.25 113.460938 536.207031 112.140625 537.464844 110.894531 C 538.785156 109.582031 540.4375 108.359375 542.28125 107.3125 C 543.769531 106.464844 545.386719 105.730469 547.042969 105.15625 Z M 590.09375 75.433594 L 590.097656 75.414062 C 590.175781 75.226562 590.296875 75.050781 590.445312 74.902344 C 590.597656 74.75 590.777344 74.632812 590.976562 74.550781 C 591.167969 74.46875 591.375 74.425781 591.59375 74.425781 C 591.820312 74.425781 592.03125 74.46875 592.222656 74.550781 L 592.238281 74.554688 C 592.429688 74.636719 592.605469 74.753906 592.75 74.902344 C 592.902344 75.054688 593.023438 75.234375 593.109375 75.433594 C 593.183594 75.625 593.226562 75.835938 593.226562 76.058594 C 593.226562 76.277344 593.183594 76.492188 593.109375 76.679688 L 593.097656 76.695312 C 593.019531 76.886719 592.898438 77.0625 592.75 77.210938 C 592.597656 77.359375 592.417969 77.484375 592.222656 77.566406 C 592.03125 77.640625 591.820312 77.6875 591.59375 77.6875 C 591.375 77.6875 591.167969 77.640625 590.976562 77.566406 L 590.957031 77.5625 C 590.765625 77.476562 590.589844 77.355469 590.445312 77.210938 C 590.292969 77.058594 590.167969 76.875 590.09375 76.679688 C 590.011719 76.492188 589.96875 76.277344 589.96875 76.058594 C 589.96875 75.835938 590.011719 75.625 590.09375 75.433594 Z M 590.09375 81.566406 L 590.097656 81.546875 C 590.175781 81.355469 590.296875 81.179688 590.445312 81.035156 C 590.597656 80.886719 590.777344 80.761719 590.976562 80.679688 C 591.167969 80.601562 591.375 80.558594 591.59375 80.558594 C 591.820312 80.558594 592.03125 80.601562 592.222656 80.679688 L 592.238281 80.6875 C 592.429688 80.765625 592.605469 80.886719 592.75 81.035156 C 592.902344 81.183594 593.023438 81.367188 593.109375 81.566406 C 593.183594 81.757812 593.226562 81.964844 593.226562 82.1875 C 593.226562 82.40625 593.183594 82.621094 593.109375 82.8125 L 593.097656 82.828125 C 593.019531 83.015625 592.898438 83.191406 592.75 83.339844 C 592.597656 83.492188 592.417969 83.617188 592.222656 83.695312 C 592.03125 83.777344 591.820312 83.820312 591.59375 83.820312 C 591.375 83.820312 591.167969 83.777344 590.976562 83.695312 L 590.957031 83.691406 C 590.765625 83.609375 590.589844 83.488281 590.445312 83.339844 C 590.292969 83.191406 590.167969 83.011719 590.09375 82.8125 C 590.011719 82.621094 589.96875 82.40625 589.96875 82.1875 C 589.96875 81.964844 590.011719 81.757812 590.09375 81.566406 Z M 590.09375 69.300781 L 590.097656 69.285156 C 590.175781 69.09375 590.296875 68.917969 590.445312 68.769531 C 590.597656 68.617188 590.777344 68.5 590.976562 68.414062 C 591.167969 68.339844 591.375 68.296875 591.59375 68.296875 C 591.820312 68.296875 592.03125 68.339844 592.222656 68.414062 L 592.238281 68.425781 C 592.429688 68.503906 592.605469 68.625 592.75 68.769531 C 592.902344 68.921875 593.023438 69.105469 593.109375 69.300781 C 593.183594 69.492188 593.226562 69.703125 593.226562 69.925781 C 593.226562 70.144531 593.183594 70.359375 593.109375 70.546875 L 593.097656 70.5625 C 593.019531 70.753906 592.898438 70.929688 592.75 71.078125 C 592.597656 71.230469 592.417969 71.347656 592.222656 71.433594 C 592.03125 71.511719 591.820312 71.554688 591.59375 71.554688 C 591.375 71.554688 591.167969 71.511719 590.976562 71.433594 L 590.957031 71.425781 C 590.765625 71.34375 590.589844 71.226562 590.445312 71.078125 C 590.292969 70.925781 590.167969 70.746094 590.09375 70.546875 C 590.011719 70.359375 589.96875 70.144531 589.96875 69.925781 C 589.96875 69.703125 590.011719 69.492188 590.09375 69.300781 Z M 490.421875 90.136719 C 490.421875 89.964844 490.488281 89.8125 490.597656 89.703125 C 490.707031 89.59375 490.859375 89.527344 491.03125 89.527344 L 520.746094 89.527344 C 520.910156 89.527344 521.050781 89.390625 521.050781 89.222656 L 521.039062 89.148438 C 520.90625 88.335938 520.78125 87.496094 520.679688 86.664062 C 520.582031 85.917969 520.496094 85.160156 520.4375 84.402344 C 520.425781 84.242188 520.289062 84.125 520.132812 84.125 L 498.492188 84.125 C 497.402344 84.125 496.363281 83.90625 495.414062 83.511719 C 494.429688 83.101562 493.539062 82.5 492.789062 81.75 C 492.046875 81.007812 491.441406 80.121094 491.03125 79.136719 C 490.636719 78.183594 490.421875 77.140625 490.421875 76.058594 C 490.421875 74.96875 490.636719 73.925781 491.03125 72.980469 C 491.441406 71.996094 492.046875 71.101562 492.789062 70.359375 C 493.535156 69.613281 494.429688 69.007812 495.414062 68.601562 C 496.359375 68.203125 497.398438 67.992188 498.492188 67.992188 L 578.578125 67.992188 C 579.664062 67.992188 580.703125 68.203125 581.652344 68.601562 C 582.640625 69.007812 583.53125 69.613281 584.277344 70.359375 C 585.019531 71.101562 585.625 71.996094 586.035156 72.980469 C 586.429688 73.925781 586.648438 74.96875 586.648438 76.058594 C 586.648438 77.140625 586.429688 78.179688 586.035156 79.128906 C 585.621094 80.117188 585.019531 81.007812 584.273438 81.757812 C 583.527344 82.5 582.636719 83.101562 581.644531 83.511719 C 580.699219 83.90625 579.664062 84.125 578.578125 84.125 L 548.96875 84.125 C 548.800781 84.125 548.664062 84.257812 548.664062 84.429688 C 548.664062 84.488281 548.683594 84.542969 548.710938 84.589844 C 549.082031 85.277344 549.421875 86.011719 549.726562 86.796875 C 550.039062 87.59375 550.324219 88.433594 550.585938 89.308594 C 550.625 89.441406 550.742188 89.523438 550.875 89.527344 L 594.5625 89.527344 C 594.730469 89.527344 594.882812 89.59375 594.992188 89.703125 C 595.101562 89.8125 595.171875 89.964844 595.171875 90.136719 L 595.171875 143.550781 C 595.171875 143.722656 595.101562 143.875 594.992188 143.984375 C 594.882812 144.09375 594.730469 144.160156 594.5625 144.160156 L 588.089844 144.160156 C 587.917969 144.160156 587.785156 144.300781 587.785156 144.464844 C 587.785156 144.507812 587.789062 144.542969 587.796875 144.574219 C 588.070312 145.472656 588.316406 146.363281 588.539062 147.242188 C 588.769531 148.128906 588.984375 149.027344 589.179688 149.945312 C 589.207031 150.085938 589.335938 150.183594 589.476562 150.183594 L 594.5625 150.183594 C 594.730469 150.183594 594.882812 150.253906 594.992188 150.363281 C 595.101562 150.472656 595.171875 150.625 595.171875 150.792969 L 595.171875 204.210938 C 595.171875 204.378906 595.101562 204.535156 594.992188 204.644531 C 594.882812 204.753906 594.730469 204.820312 594.5625 204.820312 L 579.546875 204.820312 C 579.433594 204.820312 579.335938 204.886719 579.28125 204.976562 C 578.6875 205.90625 578.070312 206.816406 577.4375 207.710938 C 576.796875 208.601562 576.140625 209.480469 575.460938 210.347656 C 575.355469 210.480469 575.378906 210.671875 575.507812 210.777344 C 575.566406 210.816406 575.632812 210.84375 575.699219 210.84375 L 594.5625 210.84375 C 594.730469 210.84375 594.882812 210.910156 594.992188 211.019531 C 595.101562 211.132812 595.171875 211.285156 595.171875 211.449219 L 595.171875 264.871094 C 595.171875 265.039062 595.101562 265.1875 594.992188 265.300781 C 594.882812 265.410156 594.730469 265.480469 594.5625 265.480469 L 507.339844 265.480469 C 507.175781 265.480469 507.039062 265.613281 507.039062 265.785156 C 507.039062 265.851562 507.0625 265.90625 507.09375 265.960938 C 507.519531 266.664062 507.925781 267.367188 508.328125 268.070312 C 508.734375 268.789062 509.128906 269.492188 509.5 270.1875 C 509.554688 270.289062 509.660156 270.34375 509.769531 270.351562 L 599.742188 270.351562 C 599.90625 270.351562 600.046875 270.210938 600.046875 270.046875 L 600.046875 61.828125 C 600.046875 61.65625 599.90625 61.523438 599.742188 61.523438 L 485.855469 61.523438 C 485.683594 61.523438 485.550781 61.65625 485.550781 61.828125 L 485.550781 171.820312 C 485.550781 171.976562 485.664062 172.105469 485.816406 172.125 C 486.515625 172.265625 487.207031 172.398438 487.894531 172.519531 C 488.613281 172.644531 489.34375 172.757812 490.074219 172.863281 C 490.238281 172.878906 490.394531 172.765625 490.417969 172.601562 L 490.421875 150.792969 C 490.421875 150.625 490.488281 150.472656 490.597656 150.363281 C 490.707031 150.253906 490.859375 150.183594 491.03125 150.183594 L 546.21875 150.1875 C 546.371094 150.1875 546.496094 150.078125 546.519531 149.933594 C 546.671875 149.066406 546.765625 148.167969 546.800781 147.238281 C 546.832031 146.324219 546.808594 145.394531 546.722656 144.441406 C 546.707031 144.28125 546.570312 144.160156 546.414062 144.160156 L 491.03125 144.160156 C 490.859375 144.160156 490.707031 144.09375 490.597656 143.984375 C 490.488281 143.875 490.421875 143.722656 490.421875 143.550781 Z M 578.578125 82.90625 L 547.804688 82.90625 C 547.710938 82.902344 547.621094 82.863281 547.5625 82.789062 C 547.074219 82.144531 546.539062 81.585938 545.953125 81.125 C 545.367188 80.664062 544.730469 80.285156 544.03125 80.023438 C 543.011719 79.640625 541.804688 79.515625 540.460938 79.683594 C 539.152344 79.847656 537.714844 80.285156 536.1875 81.019531 C 534.984375 81.605469 533.714844 82.375 532.410156 83.351562 C 531.167969 84.273438 529.890625 85.378906 528.59375 86.679688 C 528.558594 86.71875 528.515625 86.746094 528.460938 86.761719 C 528.300781 86.804688 528.132812 86.707031 528.085938 86.546875 C 527.734375 85.242188 527.378906 84.054688 527.023438 82.980469 C 526.679688 81.933594 526.332031 81.003906 525.992188 80.214844 C 525.71875 79.574219 525.445312 79.015625 525.175781 78.546875 C 524.90625 78.078125 524.640625 77.695312 524.375 77.394531 C 524.039062 77.007812 523.691406 76.738281 523.339844 76.59375 C 523.003906 76.460938 522.667969 76.4375 522.316406 76.527344 L 522.183594 76.570312 L 522.066406 76.613281 C 521.429688 76.886719 520.992188 77.539062 520.714844 78.441406 C 520.382812 79.53125 520.277344 80.964844 520.332031 82.570312 L 520.332031 82.601562 C 520.332031 82.769531 520.191406 82.90625 520.027344 82.90625 L 498.492188 82.90625 C 497.5625 82.90625 496.683594 82.71875 495.875 82.382812 C 495.046875 82.035156 494.300781 81.53125 493.671875 80.910156 L 493.648438 80.890625 C 493.019531 80.261719 492.511719 79.507812 492.160156 78.667969 C 491.820312 77.859375 491.640625 76.976562 491.640625 76.058594 C 491.640625 75.136719 491.820312 74.25 492.160156 73.441406 C 492.511719 72.605469 493.019531 71.847656 493.648438 71.21875 C 494.28125 70.589844 495.039062 70.078125 495.875 69.726562 C 496.683594 69.394531 497.570312 69.207031 498.492188 69.207031 L 578.578125 69.207031 C 579.496094 69.207031 580.382812 69.394531 581.183594 69.726562 C 582.027344 70.078125 582.785156 70.589844 583.417969 71.21875 C 584.042969 71.847656 584.558594 72.605469 584.90625 73.441406 C 585.242188 74.25 585.429688 75.136719 585.429688 76.058594 C 585.429688 76.980469 585.242188 77.867188 584.90625 78.667969 C 584.558594 79.507812 584.050781 80.257812 583.417969 80.890625 C 582.785156 81.527344 582.027344 82.035156 581.191406 82.382812 C 580.382812 82.71875 579.5 82.90625 578.578125 82.90625 Z M 584.828125 194.535156 C 583.542969 197.515625 582.074219 200.390625 580.421875 203.140625 C 580.332031 203.289062 580.382812 203.472656 580.527344 203.558594 C 580.574219 203.589844 580.628906 203.601562 580.679688 203.601562 L 593.652344 203.601562 C 593.816406 203.601562 593.957031 203.464844 593.957031 203.296875 L 593.957031 151.703125 C 593.957031 151.539062 593.816406 151.402344 593.652344 151.402344 L 589.84375 151.402344 C 589.679688 151.402344 589.539062 151.539062 589.539062 151.703125 L 589.550781 151.785156 C 590.613281 157.40625 591 163.058594 590.757812 168.613281 C 590.503906 174.335938 589.59375 179.957031 588.074219 185.363281 C 587.191406 188.5 586.105469 191.570312 584.828125 194.535156 Z M 574.695312 212.058594 C 574.648438 212.058594 574.601562 212.054688 574.558594 212.046875 L 574.542969 212.039062 C 574.503906 212.03125 574.460938 212.015625 574.425781 211.996094 C 574.296875 211.9375 574.148438 211.96875 574.058594 212.074219 L 573.585938 212.628906 C 570.199219 216.574219 566.367188 220.113281 562.152344 223.132812 C 558.050781 226.070312 553.589844 228.523438 548.8125 230.386719 C 540.507812 233.625 531.25 235.101562 521.300781 234.296875 C 512.085938 233.550781 502.273438 230.851562 492.078125 225.796875 C 491.925781 225.71875 491.746094 225.78125 491.667969 225.933594 C 491.648438 225.976562 491.640625 226.019531 491.640625 226.066406 L 491.640625 242.25 C 491.640625 242.316406 491.660156 242.378906 491.699219 242.429688 C 492.832031 244.238281 493.996094 246.027344 495.171875 247.796875 C 496.363281 249.597656 497.554688 251.351562 498.734375 253.097656 C 499.996094 254.972656 501.25 256.832031 502.460938 258.648438 C 503.679688 260.488281 504.859375 262.316406 505.972656 264.113281 C 506.027344 264.210938 506.128906 264.257812 506.226562 264.261719 L 593.652344 264.261719 C 593.816406 264.261719 593.957031 264.125 593.957031 263.957031 L 593.957031 212.363281 C 593.957031 212.199219 593.816406 212.058594 593.652344 212.058594 Z M 525.027344 345.703125 C 523.328125 340.929688 521.453125 335.871094 519.394531 330.527344 C 517.367188 325.261719 515.15625 319.710938 512.765625 313.886719 C 510.367188 308.027344 507.796875 301.914062 505.066406 295.558594 C 505.023438 295.449219 504.925781 295.382812 504.816406 295.375 C 500.625 294.773438 493.226562 297.101562 485.277344 300.363281 C 477.351562 303.621094 468.882812 307.808594 462.535156 310.945312 L 462.503906 310.960938 C 458.933594 312.726562 456.027344 314.160156 454.21875 314.929688 C 448.535156 317.34375 442.429688 319.65625 436.378906 321.421875 C 430.328125 323.183594 424.320312 324.414062 418.824219 324.664062 C 415.746094 324.808594 412.824219 324.644531 410.148438 324.101562 C 407.480469 323.570312 405.050781 322.65625 402.933594 321.300781 C 402.789062 321.210938 402.605469 321.253906 402.515625 321.390625 C 402.476562 321.449219 402.460938 321.515625 402.46875 321.578125 C 402.621094 325.996094 402.972656 330.304688 403.523438 334.503906 C 404.074219 338.707031 404.828125 342.800781 405.785156 346.800781 C 406.796875 351.019531 408.03125 355.128906 409.484375 359.132812 C 410.945312 363.148438 412.628906 367.0625 414.535156 370.878906 C 414.578125 370.960938 414.636719 371.011719 414.714844 371.035156 C 419.925781 373.097656 424.769531 375.386719 428.878906 377.875 L 428.898438 377.882812 C 432.605469 380.128906 435.707031 382.535156 437.929688 385.078125 C 438.039062 385.199219 438.089844 385.363281 438.074219 385.515625 C 438.066406 385.671875 437.996094 385.824219 437.871094 385.933594 C 437.746094 386.042969 437.585938 386.089844 437.433594 386.078125 C 437.277344 386.066406 437.125 386 437.015625 385.871094 C 434.820312 383.363281 431.734375 380.992188 428.03125 378.769531 C 423.964844 376.332031 419.148438 374.078125 413.96875 372.042969 L 413.882812 372.011719 C 412.148438 371.328125 410.371094 370.671875 408.558594 370.035156 C 406.667969 369.378906 404.765625 368.753906 402.863281 368.152344 C 392.890625 365.039062 382.578125 362.679688 374.109375 361.253906 C 364.640625 359.671875 357.441406 359.269531 355.542969 360.285156 L 355.527344 360.296875 C 355.308594 360.417969 355.09375 360.550781 354.886719 360.703125 C 354.675781 360.855469 354.453125 361.03125 354.234375 361.222656 L 354.199219 361.253906 C 353.871094 361.546875 353.546875 361.875 353.222656 362.230469 C 352.902344 362.59375 352.582031 362.992188 352.261719 363.421875 C 351.105469 364.984375 350.050781 366.910156 349.15625 368.996094 C 348.21875 371.167969 347.445312 373.519531 346.914062 375.820312 C 346.503906 377.585938 346.234375 379.3125 346.132812 380.886719 C 346.039062 382.394531 346.101562 383.769531 346.34375 384.914062 C 346.367188 384.996094 346.378906 385.0625 346.394531 385.144531 C 346.464844 385.433594 346.546875 385.707031 346.640625 385.960938 C 346.738281 386.21875 346.851562 386.464844 346.976562 386.6875 L 346.988281 386.710938 C 347.105469 386.914062 347.222656 387.097656 347.355469 387.253906 L 347.371094 387.269531 C 347.503906 387.429688 347.652344 387.574219 347.808594 387.691406 L 347.835938 387.714844 C 368.785156 400.0625 387.054688 409.023438 402.648438 414.59375 C 418.265625 420.175781 431.207031 422.347656 441.464844 421.125 C 451.558594 419.921875 459.046875 415.355469 463.929688 407.441406 C 468.789062 399.550781 471.042969 388.339844 470.695312 373.804688 C 470.691406 373.722656 470.664062 373.65625 470.609375 373.605469 C 469.910156 372.847656 469.1875 372.082031 468.449219 371.304688 C 467.742188 370.5625 466.941406 369.636719 466.210938 368.957031 C 455.605469 357.875 443.539062 345.25 438.554688 325.804688 C 438.519531 325.644531 438.546875 325.476562 438.621094 325.34375 C 438.703125 325.214844 438.832031 325.113281 438.992188 325.070312 C 439.15625 325.03125 439.324219 325.058594 439.457031 325.136719 C 439.589844 325.214844 439.6875 325.34375 439.730469 325.507812 L 439.742188 325.535156 C 444.644531 344.65625 456.601562 357.160156 467.109375 368.136719 C 477.285156 378.777344 486.117188 388.011719 486.089844 400.542969 C 486.082031 402.027344 486.019531 403.558594 485.902344 405.128906 C 485.777344 406.695312 485.597656 408.292969 485.355469 409.925781 C 485.113281 411.566406 484.8125 413.234375 484.453125 414.933594 C 484.09375 416.628906 483.675781 418.375 483.191406 420.160156 C 481.609375 426.035156 479.542969 431.300781 477.273438 436.183594 C 475.003906 441.074219 472.519531 445.601562 470.101562 449.996094 L 470.097656 450.011719 C 466.351562 456.835938 462.773438 463.359375 460.449219 470.445312 C 459.917969 472.042969 459.554688 473.617188 459.414062 475.136719 C 459.273438 476.660156 459.359375 478.128906 459.75 479.476562 C 460.128906 480.8125 460.8125 482.054688 461.867188 483.167969 C 462.90625 484.277344 464.3125 485.253906 466.144531 486.0625 C 466.996094 486.4375 467.925781 486.792969 468.925781 487.136719 C 469.929688 487.472656 471.003906 487.796875 472.160156 488.105469 C 473.3125 488.410156 474.546875 488.699219 475.855469 488.972656 C 477.15625 489.242188 478.539062 489.5 479.992188 489.738281 L 480.023438 489.742188 C 480.84375 489.792969 481.71875 489.71875 482.652344 489.527344 C 483.589844 489.339844 484.585938 489.023438 485.617188 488.597656 L 485.734375 488.546875 C 486.613281 488.175781 487.519531 487.726562 488.453125 487.203125 C 489.390625 486.675781 490.355469 486.066406 491.34375 485.386719 C 493.605469 483.824219 495.976562 481.882812 498.390625 479.609375 C 500.785156 477.359375 503.234375 474.773438 505.675781 471.90625 C 513.261719 462.996094 519.402344 454.195312 524.136719 445.335938 C 528.875 436.464844 532.207031 427.53125 534.152344 418.371094 C 536.105469 409.210938 536.675781 399.8125 535.910156 390.007812 C 535.136719 380.210938 533.019531 370.007812 529.59375 359.21875 C 528.242188 354.976562 526.722656 350.472656 525.027344 345.703125 Z M 364.613281 330.527344 L 364.609375 330.503906 C 363.441406 325.707031 361.058594 315.882812 361.835938 311.402344 C 361.863281 311.238281 361.75 311.078125 361.585938 311.050781 L 361.566406 311.050781 C 360.464844 310.871094 359.355469 310.613281 358.246094 310.296875 C 357.113281 309.960938 355.980469 309.5625 354.867188 309.097656 C 352.566406 308.144531 350.347656 306.921875 348.363281 305.527344 C 346.414062 304.160156 344.683594 302.617188 343.3125 300.988281 C 343.207031 300.859375 343.011719 300.839844 342.882812 300.949219 C 342.839844 300.988281 342.808594 301.035156 342.792969 301.085938 C 342.625 301.542969 342.425781 302.023438 342.207031 302.507812 C 341.988281 303.003906 341.742188 303.511719 341.46875 304.035156 C 341.03125 304.882812 340.535156 305.765625 339.984375 306.683594 C 339.433594 307.609375 338.835938 308.554688 338.195312 309.515625 C 337.960938 309.882812 337.667969 310.289062 337.335938 310.75 C 337.050781 311.136719 336.644531 311.679688 336.21875 312.253906 C 334.785156 314.171875 332.972656 316.601562 331.554688 318.878906 C 330.113281 321.203125 329.074219 323.386719 329.246094 324.773438 C 329.265625 324.941406 329.417969 325.058594 329.585938 325.039062 C 329.707031 325.027344 329.804688 324.933594 329.835938 324.824219 C 329.851562 324.808594 329.847656 324.808594 329.867188 324.792969 C 330.160156 324.578125 330.492188 324.296875 330.851562 323.976562 C 331.203125 323.660156 331.59375 323.289062 332.003906 322.878906 C 332.105469 322.777344 332.25 322.628906 332.425781 322.4375 C 332.636719 322.207031 332.863281 321.980469 333.066406 321.75 C 334.125 320.601562 335.671875 318.9375 337.113281 317.617188 C 338.476562 316.355469 339.707031 315.417969 340.179688 315.621094 C 340.632812 315.816406 340.765625 316.296875 340.683594 316.996094 C 340.59375 317.800781 340.21875 318.867188 339.6875 320.097656 C 339.308594 320.96875 338.84375 321.976562 338.347656 323.046875 L 338.332031 323.089844 C 337.292969 325.335938 336.121094 327.871094 335.304688 330.125 C 334.472656 332.417969 334 334.433594 334.40625 335.589844 C 334.457031 335.75 334.632812 335.832031 334.789062 335.78125 C 334.84375 335.761719 334.886719 335.734375 334.917969 335.691406 C 335.707031 334.789062 337.667969 331.375 339.503906 328.175781 L 339.511719 328.164062 C 340.433594 326.558594 341.332031 324.992188 342.097656 323.789062 C 342.859375 322.59375 343.507812 321.71875 343.949219 321.445312 L 344.03125 321.402344 C 344.273438 321.261719 344.480469 321.210938 344.660156 321.25 C 344.835938 321.289062 344.996094 321.425781 345.148438 321.664062 C 345.96875 322.972656 344.800781 326.054688 343.460938 329.601562 L 343.453125 329.617188 C 342.578125 331.925781 341.628906 334.457031 341.109375 336.664062 C 340.574219 338.949219 340.515625 340.902344 341.484375 341.976562 C 341.585938 342.09375 341.746094 342.109375 341.871094 342.035156 C 342.578125 341.605469 343.253906 340.347656 343.90625 338.695312 C 344.539062 337.09375 345.167969 335.101562 345.78125 333.140625 C 347.289062 328.316406 348.742188 323.695312 351.066406 324.382812 C 352.058594 324.679688 352.441406 325.597656 352.515625 326.863281 C 352.589844 328.230469 352.308594 329.996094 352.015625 331.84375 C 351.789062 333.253906 351.558594 334.722656 351.46875 336.03125 C 351.371094 337.382812 351.429688 338.570312 351.785156 339.394531 C 351.851562 339.550781 352.035156 339.617188 352.183594 339.558594 C 352.246094 339.527344 352.292969 339.484375 352.324219 339.433594 C 352.910156 338.496094 353.382812 337.117188 353.792969 335.585938 C 354.199219 334.078125 354.546875 332.398438 354.863281 330.84375 C 355.226562 329.082031 355.5625 327.457031 355.996094 326.277344 C 356.390625 325.191406 356.859375 324.507812 357.484375 324.492188 C 358.191406 324.472656 358.632812 324.777344 358.960938 325.292969 C 359.324219 325.859375 359.566406 326.6875 359.835938 327.617188 C 360.140625 328.648438 360.488281 329.84375 361.128906 330.910156 C 361.78125 332.003906 362.734375 332.945312 364.21875 333.410156 C 364.25 333.421875 364.289062 333.425781 364.324219 333.425781 C 364.4375 333.425781 364.542969 333.417969 364.632812 333.402344 C 364.746094 333.378906 364.839844 333.34375 364.921875 333.296875 L 364.945312 333.289062 C 365.011719 333.246094 365.066406 333.1875 365.113281 333.117188 C 365.15625 333.050781 365.1875 332.980469 365.210938 332.894531 C 365.222656 332.871094 365.222656 332.839844 365.222656 332.816406 C 365.230469 332.675781 365.167969 332.480469 365.074219 332.171875 C 364.960938 331.808594 364.792969 331.265625 364.617188 330.535156 Z M 485.550781 231.511719 C 485.550781 231.570312 485.566406 231.621094 485.589844 231.671875 C 486.234375 232.980469 486.921875 234.273438 487.628906 235.5625 C 488.339844 236.84375 489.082031 238.140625 489.855469 239.429688 C 489.941406 239.570312 490.128906 239.617188 490.269531 239.53125 C 490.367188 239.476562 490.417969 239.375 490.421875 239.269531 L 490.421875 225.136719 C 490.421875 225.015625 490.347656 224.910156 490.246094 224.863281 C 489.53125 224.492188 488.828125 224.113281 488.128906 223.726562 C 487.410156 223.332031 486.703125 222.933594 486.007812 222.527344 C 485.859375 222.441406 485.675781 222.496094 485.589844 222.636719 C 485.566406 222.6875 485.550781 222.738281 485.550781 222.789062 Z M 461.976562 309.867188 C 458.421875 311.621094 455.519531 313.058594 453.742188 313.808594 C 448.125 316.199219 442.089844 318.484375 436.109375 320.234375 C 430.125 321.988281 424.1875 323.203125 418.773438 323.453125 C 413.480469 323.695312 408.679688 322.996094 404.828125 320.949219 C 400.953125 318.886719 398.046875 315.464844 396.5625 310.269531 L 396.5625 310.257812 C 395.542969 306.042969 394.726562 301.785156 394.121094 297.5 C 393.511719 293.214844 393.109375 288.886719 392.910156 284.519531 L 392.902344 284.414062 C 392.632812 278.339844 392.75 272.195312 393.269531 265.980469 C 393.785156 259.765625 394.699219 253.46875 396 247.085938 C 398.25 236.085938 401.683594 224.851562 406.285156 213.390625 C 410.878906 201.929688 416.65625 190.242188 423.605469 178.320312 C 423.691406 178.175781 423.707031 178.007812 423.667969 177.855469 C 423.628906 177.707031 423.53125 177.574219 423.386719 177.488281 C 423.242188 177.410156 423.074219 177.390625 422.921875 177.429688 C 422.773438 177.46875 422.640625 177.566406 422.554688 177.714844 C 415.570312 189.691406 409.769531 201.4375 405.144531 212.964844 C 400.519531 224.484375 397.078125 235.78125 394.8125 246.84375 C 393.503906 253.230469 392.589844 259.554688 392.066406 265.796875 C 391.546875 272.042969 391.417969 278.207031 391.6875 284.292969 C 391.6875 284.339844 391.675781 284.386719 391.65625 284.429688 C 390.621094 286.761719 389.378906 289.058594 388.003906 291.257812 C 386.542969 293.601562 384.925781 295.84375 383.242188 297.921875 C 381.4375 300.144531 379.558594 302.175781 377.710938 303.921875 C 375.824219 305.699219 373.960938 307.199219 372.230469 308.316406 C 371.9375 308.507812 371.621094 308.683594 371.304688 308.84375 C 370.96875 309.011719 370.632812 309.160156 370.289062 309.292969 C 369.203125 309.707031 368.019531 309.960938 366.78125 310.078125 C 365.488281 310.195312 364.132812 310.160156 362.75 309.996094 L 362.730469 309.992188 C 361.53125 309.847656 360.300781 309.601562 359.078125 309.269531 C 357.820312 308.921875 356.5625 308.488281 355.335938 307.980469 C 352.714844 306.890625 350.214844 305.453125 348.066406 303.808594 C 345.972656 302.203125 344.207031 300.402344 342.988281 298.523438 C 342.746094 298.148438 342.527344 297.765625 342.332031 297.386719 C 342.140625 297.019531 341.96875 296.644531 341.828125 296.269531 L 341.808594 296.226562 C 340.273438 290.730469 340.492188 283.648438 342.199219 275.566406 C 343.972656 267.1875 347.347656 257.730469 352.007812 247.871094 C 356.6875 237.988281 362.65625 227.703125 369.625 217.699219 C 376.285156 208.125 383.859375 198.804688 392.070312 190.308594 C 403.914062 178.070312 411.273438 173.980469 419.5625 169.375 L 419.578125 169.367188 C 421.910156 168.070312 424.316406 166.730469 426.953125 165.148438 C 429.554688 163.570312 432.355469 161.765625 435.464844 159.539062 C 436.042969 159.125 436.554688 158.714844 436.992188 158.316406 C 437.429688 157.921875 437.800781 157.53125 438.089844 157.15625 C 438.417969 156.742188 438.65625 156.335938 438.816406 155.9375 C 438.96875 155.554688 439.046875 155.167969 439.046875 154.792969 C 439.03125 154.597656 438.957031 154.453125 438.921875 154.269531 C 438.773438 153.699219 438.683594 153.199219 438.640625 152.765625 C 438.597656 152.3125 438.609375 151.929688 438.675781 151.613281 C 438.71875 151.40625 438.792969 151.234375 438.894531 151.097656 C 439.007812 150.949219 439.144531 150.839844 439.316406 150.777344 C 439.347656 150.761719 439.378906 150.757812 439.414062 150.753906 C 443.582031 150.484375 447.183594 150.429688 450.226562 150.609375 C 453.28125 150.785156 455.773438 151.191406 457.707031 151.828125 C 459.457031 152.402344 460.714844 153.179688 461.484375 154.148438 C 462.273438 155.148438 462.542969 156.335938 462.292969 157.71875 L 462.28125 157.769531 C 462.1875 158.003906 462.136719 158.246094 462.117188 158.488281 C 462.09375 158.726562 462.101562 158.976562 462.152344 159.230469 C 462.1875 159.476562 462.265625 159.734375 462.375 159.984375 C 462.484375 160.246094 462.632812 160.507812 462.808594 160.777344 C 466.652344 166.515625 474.226562 170.53125 483.324219 172.761719 C 493.1875 175.183594 504.839844 175.496094 515.5 173.636719 L 515.535156 173.628906 C 518.722656 173.070312 521.824219 172.320312 524.761719 171.378906 C 527.597656 170.464844 530.289062 169.367188 532.761719 168.085938 C 535.359375 166.738281 537.726562 165.1875 539.777344 163.433594 C 541.726562 161.761719 543.394531 159.90625 544.707031 157.855469 C 547.332031 153.765625 548.550781 148.945312 547.847656 143.390625 C 547.199219 138.296875 544.9375 132.582031 540.65625 126.234375 C 540.441406 125.921875 540.214844 125.597656 539.972656 125.269531 C 539.742188 124.960938 539.472656 124.601562 539.199219 124.246094 C 538.300781 123.046875 537.316406 121.742188 536.585938 120.4375 C 535.84375 119.097656 535.367188 117.757812 535.507812 116.53125 C 535.671875 115.15625 536.480469 113.714844 537.730469 112.339844 C 539.035156 110.910156 540.832031 109.535156 542.878906 108.367188 C 544.4375 107.480469 546.148438 106.71875 547.894531 106.152344 C 549.554688 105.609375 551.257812 105.238281 552.910156 105.105469 L 552.976562 105.101562 C 553.460938 105.0625 553.945312 105.042969 554.429688 105.046875 C 554.898438 105.054688 555.363281 105.082031 555.8125 105.128906 C 556.410156 105.191406 556.992188 105.292969 557.550781 105.4375 C 558.097656 105.582031 558.628906 105.761719 559.121094 105.984375 C 559.597656 106.199219 560.054688 106.453125 560.484375 106.75 C 560.898438 107.042969 561.289062 107.371094 561.648438 107.734375 L 561.691406 107.777344 C 574.039062 118.203125 581.933594 130.449219 586.066406 143.125 C 590.664062 157.1875 590.625 171.785156 586.902344 185.035156 C 585.960938 188.378906 584.792969 191.628906 583.402344 194.773438 C 582.007812 197.914062 580.390625 200.945312 578.574219 203.828125 L 578.5 203.941406 C 577.621094 205.328125 576.695312 206.691406 575.714844 208.011719 C 574.742188 209.328125 573.722656 210.605469 572.660156 211.839844 C 569.335938 215.710938 565.582031 219.179688 561.449219 222.144531 C 557.433594 225.019531 553.054688 227.421875 548.371094 229.253906 C 539.226562 232.820312 528.894531 234.199219 517.738281 232.683594 C 507.527344 231.300781 496.617188 227.484375 485.292969 220.703125 L 485.21875 220.65625 C 484.394531 220.160156 483.574219 219.65625 482.777344 219.148438 C 481.988281 218.648438 481.179688 218.121094 480.351562 217.566406 L 480.25 217.5 C 477.460938 215.632812 474.648438 213.578125 471.8125 211.335938 C 469.046875 209.144531 466.257812 206.765625 463.453125 204.207031 C 463.332031 204.09375 463.175781 204.039062 463.015625 204.050781 C 462.863281 204.054688 462.707031 204.121094 462.597656 204.246094 C 462.484375 204.363281 462.429688 204.527344 462.4375 204.675781 C 462.445312 204.835938 462.511719 204.988281 462.636719 205.097656 C 465.410156 207.636719 468.179688 210 470.9375 212.183594 C 473.746094 214.414062 476.539062 216.460938 479.3125 218.328125 C 479.375 218.371094 479.421875 218.433594 479.4375 218.515625 C 480.847656 224.703125 483.527344 230.714844 486.796875 236.578125 C 490.070312 242.445312 493.9375 248.175781 497.726562 253.777344 C 503.539062 262.394531 509.148438 270.699219 512.015625 278.742188 C 514.894531 286.832031 514.988281 294.640625 509.726562 302.195312 C 509.691406 302.242188 509.648438 302.28125 509.59375 302.304688 C 509.441406 302.367188 509.265625 302.292969 509.199219 302.140625 L 506.929688 296.800781 C 506.886719 296.695312 506.898438 296.566406 506.980469 296.476562 C 507.09375 296.355469 507.285156 296.34375 507.410156 296.457031 C 507.523438 296.558594 507.628906 296.667969 507.722656 296.777344 C 507.824219 296.890625 507.90625 297.015625 507.988281 297.148438 C 508.078125 297.285156 508.21875 297.382812 508.363281 297.417969 C 508.515625 297.453125 508.683594 297.429688 508.828125 297.34375 C 508.964844 297.257812 509.058594 297.121094 509.097656 296.96875 C 509.128906 296.820312 509.113281 296.664062 509.03125 296.523438 L 509.019531 296.511719 C 508.707031 296 508.292969 295.589844 507.789062 295.265625 C 507.269531 294.9375 506.65625 294.695312 505.960938 294.535156 C 505.917969 294.527344 505.882812 294.511719 505.847656 294.484375 C 505.765625 294.425781 505.675781 294.390625 505.582031 294.375 C 505.496094 294.355469 505.394531 294.359375 505.304688 294.390625 C 505.261719 294.402344 505.21875 294.410156 505.171875 294.398438 C 500.523438 293.765625 492.933594 296.042969 484.917969 299.269531 C 476.867188 302.503906 468.394531 306.695312 462 309.851562 L 461.976562 309.867188 "/>
<g clip-path="url(#clip1)" clip-rule="nonzero">
<path style=" stroke:none;fill-rule:evenodd;fill:rgb(6.269836%,5.879211%,5.099487%);fill-opacity:1;" d="M 589.84375 151.703125 C 592.023438 163.175781 591.371094 174.742188 588.363281 185.441406 C 586.589844 191.757812 583.996094 197.777344 580.679688 203.296875 L 593.652344 203.296875 L 593.652344 151.703125 Z M 491.945312 172.796875 C 499.503906 173.675781 507.621094 173.464844 515.238281 172.136719 L 515.269531 172.132812 C 521.390625 171.0625 527.171875 169.265625 532.0625 166.734375 C 536.917969 164.230469 540.886719 160.996094 543.425781 157.035156 C 544.480469 155.390625 545.292969 153.617188 545.816406 151.703125 L 491.945312 151.703125 Z M 491.945312 242.25 C 494.210938 245.859375 496.617188 249.421875 498.988281 252.933594 C 501.503906 256.660156 503.988281 260.332031 506.226562 263.957031 L 593.652344 263.957031 L 593.652344 212.363281 L 574.695312 212.363281 C 574.546875 212.363281 574.414062 212.332031 574.289062 212.269531 C 574.132812 212.453125 573.976562 212.644531 573.816406 212.832031 C 567.101562 220.644531 558.664062 226.867188 548.921875 230.667969 C 532.855469 236.941406 513.238281 236.632812 491.945312 226.066406 Z M 485.855469 231.511719 C 487.144531 234.125 488.582031 236.710938 490.117188 239.269531 L 490.117188 225.136719 C 488.699219 224.402344 487.28125 223.617188 485.855469 222.789062 Z M 481.398438 220.066406 C 482.078125 222.582031 482.972656 225.078125 484.027344 227.546875 L 484.027344 221.707031 C 483.152344 221.179688 482.273438 220.628906 481.398438 220.066406 Z M 422.292969 177.5625 C 408.308594 201.539062 399.050781 224.617188 394.511719 246.785156 C 391.890625 259.597656 390.847656 272.105469 391.382812 284.304688 C 389.25 289.085938 386.257812 293.722656 383.007812 297.734375 C 379.390625 302.191406 375.464844 305.863281 372.0625 308.058594 C 371.484375 308.433594 370.855469 308.75 370.183594 309.007812 C 368 309.839844 365.449219 310.015625 362.785156 309.691406 L 362.761719 309.691406 C 360.355469 309.394531 357.855469 308.695312 355.449219 307.699219 C 350.328125 305.570312 345.671875 302.109375 343.246094 298.355469 C 342.773438 297.628906 342.390625 296.890625 342.101562 296.144531 C 338.988281 285.039062 343.15625 267.304688 352.285156 248 C 361.421875 228.6875 375.519531 207.859375 392.289062 190.523438 C 404.105469 178.308594 411.449219 174.226562 419.722656 169.632812 C 424.421875 167.027344 429.410156 164.253906 435.640625 159.785156 C 436.820312 158.945312 437.71875 158.125 438.332031 157.347656 C 439.019531 156.472656 439.355469 155.621094 439.347656 154.792969 C 439.347656 154.707031 439.335938 154.628906 439.316406 154.554688 L 439.21875 154.191406 C 438.933594 153.089844 438.851562 152.25 438.96875 151.675781 C 439.042969 151.351562 439.195312 151.144531 439.433594 151.058594 C 447.742188 150.511719 453.800781 150.863281 457.605469 152.113281 C 461 153.230469 462.460938 155.082031 461.992188 157.664062 C 461.804688 158.1875 461.75 158.726562 461.851562 159.28125 C 461.941406 159.828125 462.179688 160.378906 462.554688 160.941406 C 470.652344 173.023438 494.941406 177.527344 515.554688 173.9375 L 515.585938 173.925781 C 521.878906 172.828125 527.839844 170.972656 532.902344 168.351562 C 538.027344 165.703125 542.238281 162.265625 544.960938 158.015625 C 550.054688 150.085938 549.945312 139.457031 540.910156 126.066406 C 540.480469 125.433594 539.976562 124.765625 539.445312 124.058594 C 537.644531 121.675781 535.539062 118.878906 535.8125 116.5625 C 536.132812 113.863281 539.109375 110.859375 543.027344 108.628906 C 546.046875 106.914062 549.597656 105.679688 552.925781 105.410156 L 553 105.40625 C 553.949219 105.328125 554.882812 105.335938 555.78125 105.429688 C 556.929688 105.546875 558.015625 105.820312 559 106.261719 C 559.902344 106.671875 560.730469 107.226562 561.433594 107.949219 L 561.496094 108.011719 C 587.441406 129.929688 593.65625 159.867188 586.609375 184.953125 C 584.738281 191.617188 581.933594 197.9375 578.3125 203.675781 C 578.289062 203.707031 578.269531 203.742188 578.246094 203.773438 C 576.492188 206.546875 574.546875 209.175781 572.429688 211.644531 C 565.90625 219.238281 557.71875 225.277344 548.261719 228.96875 C 530.828125 235.769531 509.058594 234.585938 485.445312 220.441406 C 485.421875 220.421875 485.398438 220.40625 485.375 220.394531 C 483.757812 219.425781 482.132812 218.394531 480.503906 217.304688 C 480.476562 217.285156 480.445312 217.261719 480.417969 217.25 C 474.910156 213.554688 469.316406 209.152344 463.660156 203.976562 C 463.289062 203.644531 462.710938 203.667969 462.375 204.035156 C 462.03125 204.410156 462.058594 204.980469 462.429688 205.324219 C 468.066406 210.476562 473.640625 214.875 479.140625 218.582031 C 481.980469 231.019531 489.898438 242.738281 497.472656 253.949219 C 509.089844 271.144531 519.863281 287.105469 509.476562 302.023438 C 508.734375 300.261719 507.980469 298.484375 507.203125 296.683594 C 507.410156 296.863281 507.589844 297.070312 507.730469 297.304688 C 508 297.734375 508.558594 297.867188 508.984375 297.605469 C 509.410156 297.339844 509.542969 296.777344 509.277344 296.347656 C 508.605469 295.25 507.488281 294.574219 506.023438 294.242188 C 505.800781 294.070312 505.5 294.011719 505.214844 294.097656 C 495.789062 292.816406 474.664062 303.253906 461.867188 309.582031 C 458.300781 311.339844 455.398438 312.777344 453.625 313.535156 C 442.402344 318.304688 429.539062 322.652344 418.761719 323.148438 C 408.273438 323.628906 399.773438 320.40625 396.859375 310.1875 C 394.824219 301.78125 393.613281 293.214844 393.214844 284.488281 C 393.214844 284.457031 393.214844 284.429688 393.207031 284.402344 C 392.664062 272.289062 393.695312 259.871094 396.300781 247.148438 C 400.796875 225.179688 409.984375 202.285156 423.867188 178.472656 C 424.121094 178.035156 423.972656 177.480469 423.539062 177.226562 C 423.101562 176.976562 422.546875 177.125 422.292969 177.5625 Z M 440.796875 146.589844 L 441.441406 149.117188 C 448.914062 148.746094 454.496094 149.167969 458.179688 150.382812 C 458.398438 150.453125 458.605469 150.523438 458.8125 150.601562 C 458.105469 148.238281 457.800781 146.316406 457.890625 144.839844 C 458.027344 142.628906 458.980469 141.3125 460.765625 140.898438 C 460.832031 140.882812 460.898438 140.875 460.972656 140.875 C 463.832031 140.878906 465.980469 140.53125 467.433594 139.828125 C 468.660156 139.234375 469.34375 138.367188 469.488281 137.234375 C 468.746094 131.152344 469.007812 127.589844 470.273438 126.558594 C 470.328125 126.503906 470.390625 126.46875 470.464844 126.433594 C 471.964844 125.6875 472.898438 124.929688 473.25 124.175781 C 473.527344 123.589844 473.402344 122.9375 472.890625 122.214844 C 471.363281 121.207031 470.195312 120.230469 469.390625 119.28125 C 468.488281 118.214844 468.015625 117.160156 467.976562 116.117188 C 467.976562 116.070312 467.976562 116.023438 467.980469 115.972656 C 468.089844 114.871094 468.109375 113.933594 468.035156 113.167969 C 468.007812 112.921875 467.976562 112.691406 467.9375 112.488281 C 466.527344 113.261719 465.128906 113.667969 463.820312 114.046875 C 462.078125 114.550781 460.507812 115.007812 459.425781 116.363281 C 458.757812 117.195312 458.28125 118.285156 458.011719 119.621094 C 457.726562 121 457.660156 122.652344 457.800781 124.5625 C 457.851562 125.007812 457.5625 125.429688 457.121094 125.542969 C 456.425781 125.71875 455.722656 125.835938 455.015625 125.871094 C 454.328125 125.914062 453.640625 125.886719 452.945312 125.796875 C 452.542969 125.769531 452.199219 125.476562 452.117188 125.0625 C 451.828125 123.574219 451.121094 122.417969 450.246094 121.632812 C 449.304688 120.800781 448.164062 120.402344 447.125 120.503906 C 445.664062 120.640625 444.65625 121.824219 444.273438 123.308594 C 444.097656 123.988281 444.054688 124.730469 444.15625 125.476562 C 444.25 126.210938 444.496094 126.941406 444.894531 127.609375 C 445.988281 129.421875 448.296875 130.738281 452.15625 130.300781 C 452.652344 130.242188 453.101562 130.605469 453.160156 131.105469 C 453.214844 131.605469 452.847656 132.054688 452.355469 132.113281 C 451.558594 132.203125 450.8125 132.226562 450.121094 132.195312 C 449.898438 134.105469 449.394531 135.667969 448.613281 136.863281 C 447.777344 138.148438 446.640625 139.015625 445.203125 139.464844 C 444.730469 142.628906 443.070312 144.96875 440.796875 146.589844 Z M 343.078125 301.179688 C 345.875 304.511719 350.144531 307.464844 354.75 309.382812 C 356.96875 310.300781 359.269531 310.984375 361.535156 311.351562 C 360.746094 315.898438 363.148438 325.785156 364.316406 330.601562 C 364.660156 332.007812 364.957031 332.6875 364.921875 332.808594 C 364.882812 332.921875 364.835938 332.996094 364.769531 333.035156 C 364.671875 333.09375 364.519531 333.121094 364.308594 333.121094 C 361.507812 332.242188 360.722656 329.554688 360.132812 327.539062 C 359.570312 325.625 359.136719 324.144531 357.476562 324.1875 C 355.914062 324.230469 355.296875 327.234375 354.570312 330.785156 C 353.929688 333.878906 353.195312 337.453125 352.066406 339.277344 C 351.390625 337.730469 351.871094 334.695312 352.3125 331.890625 C 352.910156 328.160156 353.441406 324.769531 351.152344 324.09375 C 348.539062 323.3125 347.046875 328.078125 345.484375 333.050781 C 344.269531 336.949219 342.996094 340.996094 341.714844 341.777344 C 339.933594 339.800781 342 334.324219 343.738281 329.714844 C 345.109375 326.089844 346.304688 322.933594 345.40625 321.507812 C 345.015625 320.875 344.492188 320.78125 343.867188 321.144531 L 343.792969 321.183594 C 342.8125 321.796875 341.085938 324.808594 339.25 328.011719 C 337.417969 331.203125 335.460938 334.613281 334.691406 335.488281 C 333.9375 333.332031 336.535156 327.703125 338.605469 323.21875 C 339.109375 322.121094 339.589844 321.082031 339.96875 320.21875 C 341.050781 317.699219 341.5 315.859375 340.300781 315.339844 C 339.078125 314.8125 334.960938 319.257812 332.835938 321.558594 C 332.355469 322.070312 331.988281 322.472656 331.789062 322.667969 C 330.980469 323.464844 330.261719 324.132812 329.691406 324.546875 C 329.613281 324.601562 329.570312 324.667969 329.546875 324.734375 C 329.234375 322.125 333.605469 316.265625 336.460938 312.433594 C 337.273438 311.351562 337.96875 310.417969 338.453125 309.679688 C 339.734375 307.734375 340.863281 305.875 341.742188 304.171875 C 342.285156 303.121094 342.734375 302.117188 343.078125 301.179688 Z M 370.753906 155.085938 C 370.890625 153.308594 370.199219 151.867188 369.117188 150.914062 C 368.042969 149.96875 366.582031 149.511719 365.144531 149.679688 C 363.789062 149.835938 362.460938 150.539062 361.523438 151.898438 C 360.582031 150.535156 359.238281 149.832031 357.855469 149.679688 C 356.410156 149.515625 354.925781 149.976562 353.835938 150.929688 C 352.734375 151.894531 352.035156 153.339844 352.160156 155.132812 C 352.363281 157.929688 354.667969 161.613281 360.953125 165.503906 C 361.261719 165.695312 361.640625 165.675781 361.925781 165.492188 C 368.234375 161.585938 370.550781 157.882812 370.753906 155.085938 Z M 361.429688 163.652344 C 366.796875 160.234375 368.773438 157.195312 368.9375 154.957031 C 369.023438 153.800781 368.589844 152.882812 367.910156 152.285156 C 367.226562 151.675781 366.277344 151.386719 365.355469 151.492188 C 364.140625 151.632812 362.957031 152.484375 362.394531 154.253906 C 362.242188 154.734375 361.730469 154.996094 361.253906 154.84375 C 360.960938 154.753906 360.746094 154.527344 360.660156 154.253906 C 360.09375 152.480469 358.890625 151.625 357.65625 151.492188 C 356.710938 151.386719 355.738281 151.6875 355.035156 152.300781 C 354.339844 152.910156 353.898438 153.835938 353.980469 155.003906 C 354.140625 157.230469 356.101562 160.253906 361.429688 163.652344 Z M 405.480469 143.179688 C 405.53125 142.4375 405.601562 141.246094 405.679688 139.675781 L 354.84375 139.085938 L 354.796875 142.667969 C 384.585938 142.886719 401.605469 143.125 405.480469 143.179688 Z M 407.539062 138.816406 L 407.539062 138.78125 C 407.542969 138.28125 407.140625 137.867188 406.636719 137.867188 L 353.957031 137.257812 C 353.457031 137.253906 353.046875 137.652344 353.042969 138.160156 L 352.964844 143.566406 C 352.960938 144.070312 353.371094 144.480469 353.871094 144.480469 C 387.507812 144.726562 405.175781 145 406.257812 145.011719 L 406.273438 145.011719 C 406.773438 145.046875 407.207031 144.660156 407.234375 144.15625 C 407.234375 144.152344 407.386719 142.429688 407.539062 138.816406 Z M 405.480469 132.601562 C 405.53125 131.859375 405.601562 130.667969 405.679688 129.097656 L 354.84375 128.507812 L 354.796875 132.089844 C 384.585938 132.3125 401.605469 132.546875 405.480469 132.601562 Z M 407.539062 128.230469 L 407.539062 128.207031 C 407.542969 127.703125 407.140625 127.292969 406.636719 127.289062 L 353.957031 126.679688 C 353.457031 126.675781 353.046875 127.082031 353.042969 127.578125 L 352.964844 132.988281 C 352.960938 133.492188 353.371094 133.902344 353.871094 133.902344 C 387.511719 134.148438 405.175781 134.417969 406.257812 134.433594 L 406.273438 134.433594 C 406.773438 134.460938 407.207031 134.082031 407.234375 133.578125 C 407.234375 133.574219 407.386719 131.851562 407.539062 128.230469 Z M 486.554688 489.84375 L 485.828125 491.15625 C 479.375 502.761719 473.613281 513.125 474.460938 518.328125 C 474.800781 520.40625 476.269531 522.566406 477.972656 525.078125 C 480.382812 528.632812 483.253906 532.855469 484.375 538.785156 C 484.410156 538.917969 484.414062 539.0625 484.382812 539.210938 C 484.28125 539.699219 483.792969 540.011719 483.300781 539.902344 C 473.40625 537.757812 463.707031 534.914062 455.457031 531.042969 C 447.128906 527.140625 440.273438 522.179688 436.160156 515.828125 C 435.882812 515.410156 436 514.84375 436.425781 514.566406 C 439.640625 512.488281 443.1875 508.757812 447.050781 503.375 C 450.882812 498.042969 455.019531 491.097656 459.460938 482.550781 C 458.9375 481.714844 458.554688 480.824219 458.28125 479.894531 C 457.417969 476.867188 457.859375 473.453125 459 469.972656 C 461.375 462.75 464.988281 456.167969 468.769531 449.265625 C 473.546875 440.566406 478.605469 431.347656 481.726562 419.769531 C 482.667969 416.269531 483.375 412.910156 483.851562 409.707031 C 484.328125 406.496094 484.566406 403.441406 484.570312 400.542969 C 484.589844 391.210938 479.308594 383.660156 472.242188 375.824219 C 472.457031 404.566406 462.253906 420.175781 441.644531 422.632812 C 420.804688 425.121094 389.265625 413.910156 347.027344 389 L 346.917969 388.925781 C 346.40625 388.539062 345.984375 388.035156 345.648438 387.425781 C 345.386719 386.949219 345.171875 386.402344 345.011719 385.804688 L 342.90625 384.859375 C 331.582031 379.761719 324.261719 376.472656 319.273438 377.726562 C 317.234375 378.242188 315.210938 379.882812 312.851562 381.792969 C 309.507812 384.511719 305.523438 387.734375 299.671875 389.355469 C 299.5625 389.390625 299.4375 389.398438 299.316406 389.386719 C 298.820312 389.320312 298.464844 388.863281 298.53125 388.367188 C 299.828125 378.316406 301.832031 368.410156 304.988281 359.871094 C 308.167969 351.253906 312.527344 344 318.511719 339.355469 C 318.914062 339.050781 319.484375 339.125 319.792969 339.519531 C 322.140625 342.542969 326.160156 345.753906 331.851562 349.152344 C 337.492188 352.511719 344.761719 356.042969 353.652344 359.734375 C 354.03125 359.433594 354.421875 359.171875 354.8125 358.953125 L 354.820312 358.949219 C 358.613281 356.914062 381.875 359.996094 403.3125 366.707031 C 406.363281 367.65625 409.386719 368.683594 412.308594 369.78125 C 408.867188 362.578125 406.203125 355.058594 404.308594 347.152344 C 402.273438 338.625 401.136719 329.660156 400.90625 320.175781 C 398.285156 317.9375 396.285156 314.835938 395.101562 310.683594 L 395.09375 310.652344 C 393.304688 303.238281 392.132812 295.703125 391.59375 288.050781 C 389.578125 291.898438 387.085938 295.597656 384.421875 298.878906 C 380.683594 303.488281 376.609375 307.292969 373.058594 309.585938 C 372.355469 310.042969 371.613281 310.414062 370.832031 310.707031 C 368.582031 311.566406 366.007812 311.8125 363.328125 311.578125 C 362.515625 315.457031 364.925781 325.398438 366.089844 330.171875 C 366.503906 331.871094 366.773438 332.984375 366.667969 333.332031 C 366.496094 333.898438 366.171875 334.324219 365.691406 334.605469 C 365.261719 334.859375 364.738281 334.96875 364.117188 334.9375 C 364.046875 334.933594 363.976562 334.917969 363.910156 334.898438 C 360.054688 333.777344 359.097656 330.5 358.378906 328.042969 C 358.046875 326.890625 357.785156 326 357.527344 326.011719 C 357.410156 326.011719 356.925781 328.359375 356.351562 331.148438 C 355.554688 335.023438 354.605469 339.613281 352.691406 341.378906 C 352.371094 341.6875 351.871094 341.726562 351.503906 341.449219 C 349.230469 339.71875 349.90625 335.472656 350.515625 331.605469 C 350.976562 328.703125 351.394531 326.0625 350.640625 325.839844 C 349.746094 325.574219 348.511719 329.496094 347.226562 333.59375 C 345.734375 338.367188 344.171875 343.339844 341.632812 343.710938 C 341.410156 343.742188 341.171875 343.691406 340.972656 343.546875 C 337.507812 341.054688 339.976562 334.523438 342.035156 329.074219 C 342.808594 327.039062 343.511719 325.167969 343.808594 323.914062 C 343.03125 325.085938 341.949219 326.964844 340.832031 328.917969 C 338.597656 332.816406 336.199219 336.992188 334.605469 337.476562 C 334.539062 337.503906 334.46875 337.515625 334.398438 337.519531 C 334.339844 337.527344 334.28125 337.527344 334.222656 337.519531 C 334.015625 337.496094 333.808594 337.402344 333.652344 337.234375 C 331.292969 334.714844 334.46875 327.835938 336.949219 322.453125 C 337.429688 321.40625 337.886719 320.417969 338.289062 319.492188 C 338.945312 317.976562 339.730469 317.085938 339.582031 317.019531 C 339.535156 317 336 320.8125 334.167969 322.789062 C 333.640625 323.355469 333.238281 323.792969 333.074219 323.957031 C 332.199219 324.824219 331.402344 325.554688 330.761719 326.023438 C 329.835938 326.691406 329.039062 326.914062 328.414062 326.496094 C 328.292969 326.414062 328.1875 326.304688 328.109375 326.164062 C 326.363281 322.917969 331.644531 315.839844 335 311.347656 C 335.828125 310.234375 336.535156 309.285156 336.929688 308.683594 C 338.167969 306.804688 339.261719 304.996094 340.121094 303.339844 C 340.875 301.871094 341.441406 300.535156 341.742188 299.386719 L 341.71875 299.34375 C 341.167969 298.496094 340.714844 297.628906 340.382812 296.757812 L 340.347656 296.632812 C 337.113281 285.09375 341.324219 266.90625 350.632812 247.222656 C 359.851562 227.746094 374.066406 206.742188 390.976562 189.257812 C 402.980469 176.847656 410.441406 172.703125 418.839844 168.042969 C 423.472656 165.464844 428.398438 162.730469 434.578125 158.300781 C 435.625 157.550781 436.402344 156.855469 436.894531 156.222656 C 437.285156 155.730469 437.496094 155.292969 437.523438 154.910156 L 437.453125 154.640625 C 437.101562 153.261719 437.011719 152.152344 437.1875 151.304688 C 437.414062 150.238281 438.015625 149.5625 438.984375 149.289062 L 439.042969 149.273438 C 439.109375 149.253906 439.175781 149.246094 439.238281 149.246094 L 439.585938 149.222656 L 439.171875 147.582031 L 438.957031 147.6875 C 437.476562 148.421875 435.835938 148.914062 434.160156 149.183594 C 432.503906 149.449219 430.808594 149.496094 429.199219 149.351562 C 425.199219 148.976562 421.683594 147.351562 420.410156 144.773438 C 419.257812 142.453125 419.492188 140.347656 419.714844 138.3125 C 419.886719 136.753906 420.050781 135.238281 419.460938 133.835938 C 419.0625 132.882812 417.898438 131.921875 416.617188 130.867188 C 413.851562 128.582031 410.613281 125.910156 411.441406 121.050781 C 411.941406 118.132812 414.027344 116.554688 416.222656 114.894531 C 417.601562 113.847656 419.035156 112.769531 419.992188 111.332031 C 421.65625 108.824219 420.753906 106.742188 419.753906 104.425781 C 418.496094 101.515625 417.109375 98.300781 419.324219 93.558594 C 420.753906 90.519531 423.429688 88.066406 426.675781 86.480469 C 429.953125 84.871094 433.820312 84.132812 437.550781 84.5625 C 439.007812 84.730469 440.140625 85.050781 441.058594 85.480469 C 441.996094 85.914062 442.710938 86.445312 443.3125 87.011719 L 444.179688 87.835938 C 446.628906 90.179688 448.332031 91.816406 452.003906 88.957031 L 452.054688 88.917969 C 453.164062 88.105469 454.257812 87.429688 455.328125 86.886719 C 456.394531 86.351562 457.441406 85.941406 458.476562 85.667969 C 458.496094 85.660156 458.539062 85.648438 458.558594 85.648438 C 463.089844 84.523438 466.691406 85.351562 469.386719 87.308594 C 472.046875 89.238281 473.785156 92.257812 474.617188 95.582031 L 474.636719 95.660156 C 475.125 97.644531 475.226562 99.746094 474.917969 101.808594 C 474.613281 103.808594 473.925781 105.773438 472.835938 107.554688 C 471.769531 109.296875 470.65625 110.523438 469.53125 111.421875 C 469.683594 111.878906 469.789062 112.402344 469.847656 112.996094 C 469.929688 113.867188 469.914062 114.898438 469.796875 116.089844 C 469.835938 116.695312 470.164062 117.371094 470.785156 118.105469 C 471.5 118.945312 472.582031 119.839844 474.027344 120.777344 C 474.117188 120.835938 474.191406 120.90625 474.25 120.988281 C 475.28125 122.339844 475.5 123.660156 474.902344 124.945312 C 474.378906 126.070312 473.199219 127.09375 471.367188 128.019531 C 470.664062 128.683594 470.648438 131.714844 471.316406 137.105469 C 471.324219 137.203125 471.320312 137.296875 471.304688 137.382812 C 471.105469 139.210938 470.078125 140.574219 468.222656 141.46875 C 466.546875 142.277344 464.171875 142.6875 461.09375 142.691406 C 460.253906 142.929688 459.789062 143.679688 459.714844 144.945312 C 459.613281 146.523438 460.070312 148.785156 461.082031 151.71875 C 463.402344 153.226562 464.300781 155.351562 463.773438 158.089844 C 463.757812 158.148438 463.746094 158.207031 463.722656 158.257812 C 463.628906 158.488281 463.601562 158.726562 463.644531 158.976562 C 463.695312 159.269531 463.839844 159.585938 464.066406 159.929688 C 467.773438 165.460938 475.144531 169.304688 484.027344 171.414062 L 484.027344 60.914062 C 484.027344 60.410156 484.4375 60 484.941406 60 L 600.65625 60 C 601.160156 60 601.566406 60.410156 601.566406 60.914062 L 601.566406 270.960938 C 601.566406 271.464844 601.160156 271.871094 600.65625 271.871094 L 510.71875 271.871094 C 516.296875 282.945312 518.15625 293.585938 510.304688 303.988281 C 514.203125 313.257812 517.699219 321.917969 520.808594 329.980469 C 524.925781 340.664062 528.332031 350.253906 531.042969 358.761719 C 537.976562 380.589844 539.597656 400.105469 535.640625 418.683594 C 531.6875 437.257812 522.167969 454.867188 506.832031 472.886719 C 501.847656 478.742188 496.816406 483.460938 492.207031 486.636719 C 490.246094 487.988281 488.347656 489.066406 486.554688 489.84375 Z M 485.5 488.316406 C 485.535156 488.296875 485.574219 488.28125 485.617188 488.269531 C 487.355469 487.535156 489.21875 486.484375 491.167969 485.136719 C 495.660156 482.042969 500.570312 477.4375 505.449219 471.707031 C 520.582031 453.929688 529.96875 436.578125 533.859375 418.308594 C 537.746094 400.042969 536.140625 380.828125 529.304688 359.316406 C 526.617188 350.859375 523.21875 341.300781 519.113281 330.636719 C 515.050781 320.109375 510.277344 308.453125 504.792969 295.679688 C 496.535156 294.480469 475.363281 304.945312 462.675781 311.21875 C 459.082031 312.992188 456.15625 314.4375 454.339844 315.207031 C 442.957031 320.046875 429.882812 324.464844 418.839844 324.96875 C 412.628906 325.253906 407.0625 324.3125 402.773438 321.558594 C 403.070312 330.386719 404.175781 338.757812 406.078125 346.730469 C 408.089844 355.144531 411 363.121094 414.808594 370.746094 C 424.792969 374.699219 433.425781 379.472656 438.15625 384.875 C 438.488281 385.253906 438.453125 385.828125 438.070312 386.160156 C 437.695312 386.488281 437.121094 386.449219 436.785156 386.070312 C 432.214844 380.847656 423.710938 376.199219 413.859375 372.324219 C 413.828125 372.316406 413.800781 372.304688 413.777344 372.296875 C 410.242188 370.90625 406.535156 369.621094 402.773438 368.441406 C 381.726562 361.859375 359.183594 358.679688 355.6875 360.550781 C 355.269531 360.785156 354.851562 361.089844 354.4375 361.449219 L 354.421875 361.464844 L 354.417969 361.464844 L 354.402344 361.480469 L 354.402344 361.484375 C 353.75 362.054688 353.117188 362.773438 352.503906 363.605469 C 350.175781 366.753906 348.246094 371.421875 347.214844 375.886719 C 346.417969 379.300781 346.152344 382.558594 346.640625 384.851562 C 346.667969 384.914062 346.679688 384.980469 346.683594 385.050781 C 346.824219 385.613281 347.003906 386.117188 347.242188 386.546875 C 347.453125 386.917969 347.699219 387.226562 347.992188 387.453125 C 389.855469 412.136719 421.003906 423.261719 441.425781 420.820312 C 461.425781 418.433594 471.085938 402.761719 470.390625 373.808594 C 468.972656 372.289062 467.507812 370.753906 466.007812 369.183594 C 455.371094 358.070312 443.265625 345.410156 438.261719 325.882812 C 438.136719 325.398438 438.433594 324.902344 438.917969 324.773438 C 439.402344 324.648438 439.902344 324.945312 440.027344 325.429688 C 444.90625 344.492188 456.847656 356.96875 467.328125 367.929688 C 477.546875 378.613281 486.421875 387.886719 486.394531 400.542969 C 486.382812 403.550781 486.140625 406.695312 485.65625 409.96875 C 485.167969 413.242188 484.445312 416.667969 483.484375 420.234375 C 480.308594 432.027344 475.195312 441.34375 470.371094 450.144531 C 466.628906 456.964844 463.054688 463.476562 460.734375 470.539062 C 459.695312 473.699219 459.28125 476.757812 460.042969 479.398438 C 460.78125 481.976562 462.679688 484.199219 466.265625 485.785156 C 467.957031 486.527344 469.949219 487.203125 472.238281 487.8125 C 474.539062 488.425781 477.144531 488.960938 480.039062 489.4375 C 481.644531 489.542969 483.484375 489.148438 485.5 488.316406 Z M 551.375 91.050781 L 593.652344 91.050781 L 593.652344 142.640625 L 587.519531 142.640625 C 583.300781 129.730469 575.265625 117.261719 562.707031 106.648438 C 561.839844 105.765625 560.839844 105.089844 559.742188 104.601562 C 558.578125 104.074219 557.304688 103.757812 555.96875 103.617188 C 555.214844 103.539062 554.445312 103.515625 553.664062 103.546875 C 553.542969 102.800781 553.4375 102.140625 553.332031 101.484375 C 552.773438 97.957031 552.203125 94.328125 551.375 91.050781 Z M 533.96875 116.800781 C 533.871094 119.703125 536.085938 122.636719 537.988281 125.160156 C 538.5 125.839844 538.996094 126.492188 539.394531 127.085938 C 543.269531 132.828125 545.429688 138.011719 546.191406 142.640625 L 491.945312 142.640625 L 491.945312 91.050781 L 521.0625 91.050781 C 521.480469 93.296875 521.910156 95.160156 522.144531 96.015625 C 523.242188 100.105469 524.804688 103.917969 526.824219 107.4375 C 528.78125 110.832031 531.160156 113.957031 533.96875 116.800781 Z M 547.804688 82.601562 C 546.800781 81.285156 545.59375 80.292969 544.136719 79.738281 C 542.046875 78.949219 539.230469 79.214844 536.0625 80.746094 C 533.675781 81.898438 531.058594 83.773438 528.382812 86.464844 C 527.667969 83.855469 526.964844 81.707031 526.273438 80.097656 C 525.722656 78.808594 525.160156 77.832031 524.605469 77.195312 C 523.867188 76.351562 523.078125 76.019531 522.242188 76.238281 C 522.132812 76.261719 522.039062 76.296875 521.949219 76.332031 C 520.386719 77 519.925781 79.515625 520.027344 82.601562 L 498.492188 82.601562 C 496.6875 82.601562 495.050781 81.867188 493.867188 80.675781 C 492.679688 79.492188 491.945312 77.855469 491.945312 76.058594 C 491.945312 74.261719 492.679688 72.617188 493.867188 71.433594 C 495.050781 70.246094 496.6875 69.511719 498.492188 69.511719 L 578.578125 69.511719 C 580.375 69.511719 582.011719 70.246094 583.199219 71.433594 C 584.382812 72.617188 585.125 74.261719 585.125 76.058594 C 585.125 77.855469 584.386719 79.492188 583.203125 80.675781 L 583.199219 80.679688 C 582.011719 81.867188 580.375 82.601562 578.578125 82.601562 Z M 520.132812 84.429688 C 520.265625 86 520.488281 87.660156 520.746094 89.222656 L 491.03125 89.222656 C 490.527344 89.222656 490.117188 89.632812 490.117188 90.136719 L 490.117188 143.550781 C 490.117188 144.054688 490.527344 144.464844 491.03125 144.464844 L 546.417969 144.464844 C 546.589844 146.371094 546.515625 148.175781 546.21875 149.886719 L 491.03125 149.878906 C 490.527344 149.878906 490.117188 150.289062 490.117188 150.792969 L 490.117188 172.558594 C 488.667969 172.351562 487.246094 172.109375 485.855469 171.820312 L 485.855469 61.828125 L 599.742188 61.828125 L 599.742188 270.046875 L 509.769531 270.046875 C 509.011719 268.632812 508.199219 267.210938 507.339844 265.785156 L 594.5625 265.785156 C 595.070312 265.785156 595.476562 265.375 595.476562 264.871094 L 595.476562 211.449219 C 595.476562 210.945312 595.070312 210.539062 594.5625 210.539062 L 575.699219 210.539062 C 577.066406 208.800781 578.347656 206.992188 579.546875 205.125 L 594.5625 205.125 C 595.070312 205.125 595.476562 204.714844 595.476562 204.210938 L 595.476562 150.792969 C 595.476562 150.289062 595.070312 149.878906 594.5625 149.878906 L 589.476562 149.878906 C 589.089844 148.070312 588.621094 146.269531 588.089844 144.464844 L 594.5625 144.464844 C 595.070312 144.464844 595.476562 144.054688 595.476562 143.550781 L 595.476562 90.136719 C 595.476562 89.632812 595.070312 89.222656 594.5625 89.222656 L 550.875 89.222656 C 550.347656 87.460938 549.730469 85.832031 548.96875 84.429688 L 578.578125 84.429688 C 580.875 84.429688 582.964844 83.488281 584.488281 81.96875 L 584.488281 81.964844 C 586.003906 80.449219 586.953125 78.355469 586.953125 76.058594 C 586.953125 73.753906 586.003906 71.660156 584.492188 70.140625 C 582.972656 68.628906 580.878906 67.6875 578.578125 67.6875 L 498.492188 67.6875 C 496.183594 67.6875 494.089844 68.628906 492.574219 70.140625 C 491.054688 71.660156 490.117188 73.753906 490.117188 76.058594 C 490.117188 78.359375 491.054688 80.453125 492.574219 81.96875 L 492.578125 81.96875 C 494.09375 83.484375 496.1875 84.429688 498.492188 84.429688 Z M 591.675781 75.976562 C 591.65625 75.957031 591.628906 75.949219 591.59375 75.949219 C 591.566406 75.949219 591.539062 75.957031 591.519531 75.976562 C 591.5 76 591.492188 76.023438 591.492188 76.058594 C 591.492188 76.085938 591.5 76.113281 591.519531 76.132812 C 591.539062 76.152344 591.566406 76.167969 591.59375 76.167969 C 591.628906 76.167969 591.65625 76.152344 591.675781 76.132812 C 591.695312 76.113281 591.703125 76.085938 591.703125 76.058594 C 591.703125 76.023438 591.695312 76 591.675781 75.976562 Z M 591.59375 74.121094 C 592.132812 74.121094 592.617188 74.335938 592.964844 74.6875 C 593.316406 75.039062 593.53125 75.519531 593.53125 76.058594 C 593.53125 76.589844 593.316406 77.074219 592.964844 77.421875 C 592.617188 77.773438 592.132812 77.992188 591.59375 77.992188 C 591.0625 77.992188 590.578125 77.773438 590.230469 77.421875 C 589.878906 77.074219 589.664062 76.589844 589.664062 76.058594 C 589.664062 75.519531 589.878906 75.039062 590.230469 74.6875 C 590.578125 74.335938 591.0625 74.121094 591.59375 74.121094 Z M 591.675781 82.113281 C 591.65625 82.09375 591.628906 82.078125 591.59375 82.078125 C 591.566406 82.078125 591.539062 82.09375 591.519531 82.113281 C 591.5 82.132812 591.492188 82.15625 591.492188 82.1875 C 591.492188 82.21875 591.5 82.246094 591.519531 82.265625 C 591.539062 82.285156 591.566406 82.296875 591.59375 82.296875 C 591.628906 82.296875 591.65625 82.285156 591.675781 82.265625 C 591.695312 82.246094 591.703125 82.21875 591.703125 82.1875 C 591.703125 82.15625 591.695312 82.132812 591.675781 82.113281 Z M 591.59375 80.253906 C 592.132812 80.253906 592.617188 80.472656 592.964844 80.820312 C 593.316406 81.171875 593.53125 81.652344 593.53125 82.1875 C 593.53125 82.722656 593.316406 83.207031 592.964844 83.558594 C 592.617188 83.90625 592.132812 84.125 591.59375 84.125 C 591.0625 84.125 590.578125 83.90625 590.230469 83.558594 C 589.878906 83.207031 589.664062 82.722656 589.664062 82.1875 C 589.664062 81.652344 589.878906 81.171875 590.230469 80.820312 C 590.578125 80.472656 591.0625 80.253906 591.59375 80.253906 Z M 591.675781 69.847656 C 591.65625 69.828125 591.628906 69.816406 591.59375 69.816406 C 591.566406 69.816406 591.539062 69.828125 591.519531 69.847656 C 591.5 69.863281 591.492188 69.894531 591.492188 69.925781 C 591.492188 69.957031 591.5 69.984375 591.519531 70.003906 C 591.539062 70.023438 591.566406 70.03125 591.59375 70.03125 C 591.628906 70.03125 591.65625 70.023438 591.675781 70.003906 C 591.695312 69.984375 591.703125 69.957031 591.703125 69.925781 C 591.703125 69.894531 591.695312 69.863281 591.675781 69.847656 Z M 591.59375 67.992188 C 592.132812 67.992188 592.617188 68.203125 592.964844 68.558594 C 593.316406 68.902344 593.53125 69.390625 593.53125 69.925781 C 593.53125 70.460938 593.316406 70.945312 592.964844 71.292969 C 592.617188 71.644531 592.132812 71.859375 591.59375 71.859375 C 591.0625 71.859375 590.578125 71.644531 590.230469 71.292969 C 589.878906 70.945312 589.664062 70.460938 589.664062 69.925781 C 589.664062 69.390625 589.878906 68.902344 590.230469 68.558594 C 590.578125 68.203125 591.0625 67.992188 591.59375 67.992188 Z M 521.886719 83.382812 C 521.890625 83.425781 521.894531 83.46875 521.894531 83.515625 L 521.894531 83.527344 C 522.023438 85.585938 522.347656 87.859375 522.710938 89.898438 C 522.71875 89.945312 522.730469 90 522.734375 90.050781 C 523.171875 92.523438 523.660156 94.628906 523.902344 95.546875 C 524.964844 99.496094 526.46875 103.160156 528.40625 106.527344 C 530.085938 109.449219 532.097656 112.164062 534.441406 114.667969 C 535.550781 111.898438 538.484375 109.125 542.128906 107.046875 C 545.078125 105.371094 548.511719 104.125 551.84375 103.699219 L 551.535156 101.761719 C 550.929688 97.910156 550.296875 93.921875 549.359375 90.492188 C 549.324219 90.421875 549.300781 90.347656 549.292969 90.265625 C 548.617188 87.859375 547.78125 85.734375 546.679688 84.140625 C 546.625 84.078125 546.574219 84.007812 546.53125 83.929688 C 545.691406 82.761719 544.691406 81.898438 543.492188 81.445312 C 541.855469 80.828125 539.546875 81.085938 536.851562 82.390625 C 534.332031 83.605469 531.515625 85.714844 528.613281 88.851562 C 528.496094 89 528.332031 89.105469 528.140625 89.15625 C 527.648438 89.28125 527.152344 88.984375 527.03125 88.496094 C 526.191406 85.234375 525.378906 82.640625 524.59375 80.808594 C 524.117188 79.695312 523.660156 78.882812 523.234375 78.394531 C 522.980469 78.109375 522.800781 77.976562 522.691406 78.003906 L 522.664062 78.007812 C 521.933594 78.320312 521.757812 80.273438 521.851562 82.730469 C 521.859375 82.945312 521.871094 83.164062 521.886719 83.382812 "/>
</g>
</g>
</svg>
